<?xml version="1.0" encoding="UTF-8" standalone="no"?>
<!-- Created with Inkscape (http://www.inkscape.org/) -->

<svg
   xmlns:dc="http://purl.org/dc/elements/1.1/"
   xmlns:cc="http://creativecommons.org/ns#"
   xmlns:rdf="http://www.w3.org/1999/02/22-rdf-syntax-ns#"
   xmlns:svg="http://www.w3.org/2000/svg"
   xmlns="http://www.w3.org/2000/svg"
   xmlns:sodipodi="http://sodipodi.sourceforge.net/DTD/sodipodi-0.dtd"
   xmlns:inkscape="http://www.inkscape.org/namespaces/inkscape"
   version="1.1"
   id="svg48"
   xml:space="preserve"
   width="1133.8582"
   height="1133.8582"
   viewBox="0 0 1133.8582 1133.8582"
   sodipodi:docname="QML56.svg"
   inkscape:version="0.92.2 5c3e80d, 2017-08-06"><metadata
     id="metadata54"><rdf:RDF><cc:Work
         rdf:about=""><dc:format>image/svg+xml</dc:format><dc:type
           rdf:resource="http://purl.org/dc/dcmitype/StillImage" /><dc:title></dc:title></cc:Work></rdf:RDF></metadata><defs
     id="defs52" /><sodipodi:namedview
     pagecolor="#ffffff"
     bordercolor="#666666"
     borderopacity="1"
     objecttolerance="10"
     gridtolerance="10"
     guidetolerance="10"
     inkscape:pageopacity="0"
     inkscape:pageshadow="2"
     inkscape:window-width="1440"
     inkscape:window-height="794"
     id="namedview50"
     showgrid="false"
     inkscape:zoom="0.51240977"
     inkscape:cx="566.92908"
     inkscape:cy="644.9916"
     inkscape:window-x="0"
     inkscape:window-y="1"
     inkscape:window-maximized="1"
     inkscape:current-layer="g56" /><g
     id="g56"
     inkscape:groupmode="layer"
     inkscape:label="QML56"
     transform="matrix(1.3333333,0,0,-1.3333333,0,1133.8582)"><g
       id="g58"
       transform="matrix(-1,0,0,1,833.879,0)"><g
         id="g60"
         transform="matrix(1,0,0,-1,0,850.39368)"><path
           d="m 32.844,495.699 h 97.793"
           style="fill:none;stroke:#000000;stroke-width:0.56692898;stroke-linecap:round;stroke-linejoin:round;stroke-miterlimit:4;stroke-dasharray:none;stroke-opacity:1"
           id="path62"
           inkscape:connector-curvature="0" /></g><g
         id="g64"
         transform="matrix(1,0,0,-1,0,850.39368)"><path
           d="m 133.473,431.922 v 60.945"
           style="fill:none;stroke:#000000;stroke-width:0.56692898;stroke-linecap:round;stroke-linejoin:round;stroke-miterlimit:4;stroke-dasharray:none;stroke-opacity:1"
           id="path66"
           inkscape:connector-curvature="0" /></g><g
         id="g68"
         transform="matrix(1,0,0,-1,0,850.39368)"><path
           d="m 134.891,430.508 c -0.782,0 -1.414,0.637 -1.414,1.418"
           style="fill:none;stroke:#000000;stroke-width:0.56692898;stroke-linecap:round;stroke-linejoin:round;stroke-miterlimit:4;stroke-dasharray:none;stroke-opacity:1"
           id="path70"
           inkscape:connector-curvature="0" /></g><g
         id="g72"
         transform="matrix(1,0,0,-1,0,850.39368)"><path
           d="m 31.426,497.117 v 168.66"
           style="fill:none;stroke:#000000;stroke-width:0.56692898;stroke-linecap:round;stroke-linejoin:round;stroke-miterlimit:4;stroke-dasharray:none;stroke-opacity:1"
           id="path74"
           inkscape:connector-curvature="0" /></g><g
         id="g76"
         transform="matrix(1,0,0,-1,0,850.39368)"><path
           d="m 32.844,495.703 c -0.782,0 -1.414,0.637 -1.414,1.418"
           style="fill:none;stroke:#000000;stroke-width:0.56692898;stroke-linecap:round;stroke-linejoin:round;stroke-miterlimit:4;stroke-dasharray:none;stroke-opacity:1"
           id="path78"
           inkscape:connector-curvature="0" /></g><g
         id="g80"
         transform="matrix(1,0,0,-1,0,850.39368)"><path
           d="m 134.891,430.504 h 659.05"
           style="fill:none;stroke:#000000;stroke-width:0.56692898;stroke-linecap:round;stroke-linejoin:round;stroke-miterlimit:4;stroke-dasharray:none;stroke-opacity:1"
           id="path82"
           inkscape:connector-curvature="0" /></g><g
         id="g84"
         transform="matrix(1,0,0,-1,0,850.39368)"><path
           d="m 793.949,674.289 c 4.696,-0.004 8.504,-3.809 8.504,-8.504"
           style="fill:none;stroke:#000000;stroke-width:0.42519599;stroke-linecap:round;stroke-linejoin:round;stroke-miterlimit:4;stroke-dasharray:none;stroke-opacity:1"
           id="path86"
           inkscape:connector-curvature="0" /></g><g
         id="g88"
         transform="matrix(1,0,0,-1,0,850.39368)"><path
           d="m 31.43,665.785 c 0,2.254 0.894,4.418 2.488,6.012 1.598,1.594 3.758,2.492 6.016,2.492"
           style="fill:none;stroke:#000000;stroke-width:0.42519599;stroke-linecap:round;stroke-linejoin:round;stroke-miterlimit:4;stroke-dasharray:none;stroke-opacity:1"
           id="path90"
           inkscape:connector-curvature="0" /></g><g
         id="g92"
         transform="matrix(1,0,0,-1,0,850.39368)"><path
           d="m 802.453,439.012 c 0,-4.696 -3.808,-8.504 -8.504,-8.504"
           style="fill:none;stroke:#000000;stroke-width:0.42519599;stroke-linecap:round;stroke-linejoin:round;stroke-miterlimit:4;stroke-dasharray:none;stroke-opacity:1"
           id="path94"
           inkscape:connector-curvature="0" /></g><g
         id="g96"
         transform="matrix(1,0,0,-1,0,850.39368)"><path
           d="M 802.445,439.004 V 665.777"
           style="fill:none;stroke:#000000;stroke-width:0.42519599;stroke-linecap:round;stroke-linejoin:round;stroke-miterlimit:4;stroke-dasharray:none;stroke-opacity:1"
           id="path98"
           inkscape:connector-curvature="0" /></g><g
         id="g100"
         transform="matrix(1,0,0,-1,0,850.39368)"><path
           d="M 793.941,674.285 H 39.93"
           style="fill:none;stroke:#000000;stroke-width:0.42519599;stroke-linecap:round;stroke-linejoin:round;stroke-miterlimit:4;stroke-dasharray:none;stroke-opacity:1"
           id="path102"
           inkscape:connector-curvature="0" /></g><g
         id="g104"
         transform="matrix(1,0,0,-1,0,850.39368)"><path
           d="m 51.27,660.113 c 0,2.348 -1.903,4.254 -4.25,4.254 -2.348,0 -4.254,-1.906 -4.254,-4.254 0,-2.347 1.906,-4.25 4.254,-4.25 2.347,0 4.25,1.903 4.25,4.25 z"
           style="fill:none;stroke:#000000;stroke-width:0.56692898;stroke-linecap:round;stroke-linejoin:round;stroke-miterlimit:4;stroke-dasharray:none;stroke-opacity:1"
           id="path106"
           inkscape:connector-curvature="0" /></g><g
         id="g108"
         transform="matrix(1,0,0,-1,0,850.39368)"><path
           d="m 130.641,495.703 c 1.566,0 2.836,-1.269 2.836,-2.832"
           style="fill:none;stroke:#000000;stroke-width:0.56692898;stroke-linecap:round;stroke-linejoin:round;stroke-miterlimit:4;stroke-dasharray:none;stroke-opacity:1"
           id="path110"
           inkscape:connector-curvature="0" /></g><g
         id="g112"
         transform="matrix(1,0,0,-1,0,850.39368)"><path
           d="M 31.426,73.34 V 242"
           style="fill:none;stroke:#000000;stroke-width:0.56692898;stroke-linecap:round;stroke-linejoin:round;stroke-miterlimit:4;stroke-dasharray:none;stroke-opacity:1"
           id="path114"
           inkscape:connector-curvature="0" /></g><g
         id="g116"
         transform="matrix(1,0,0,-1,0,850.39368)"><path
           d="m 134.891,6.727 h 659.05"
           style="fill:none;stroke:#000000;stroke-width:0.56692898;stroke-linecap:round;stroke-linejoin:round;stroke-miterlimit:4;stroke-dasharray:none;stroke-opacity:1"
           id="path118"
           inkscape:connector-curvature="0" /></g><g
         id="g120"
         transform="matrix(1,0,0,-1,0,850.39368)"><path
           d="m 802.445,776.332 v 68.031"
           style="fill:none;stroke:#000000;stroke-width:0.56692898;stroke-linecap:round;stroke-linejoin:round;stroke-miterlimit:4;stroke-dasharray:none;stroke-opacity:1"
           id="path122"
           inkscape:connector-curvature="0" /></g><g
         id="g124"
         transform="matrix(1,0,0,-1,0,850.39368)"><path
           d="m 31.426,747.984 v 9.922"
           style="fill:none;stroke:#000000;stroke-width:0.56692898;stroke-linecap:round;stroke-linejoin:round;stroke-miterlimit:4;stroke-dasharray:none;stroke-opacity:1"
           id="path126"
           inkscape:connector-curvature="0" /></g><g
         id="g128"
         transform="matrix(1,0,0,-1,0,850.39368)"><path
           d="m 802.445,689.875 v 68.031"
           style="fill:none;stroke:#000000;stroke-width:0.56692898;stroke-linecap:round;stroke-linejoin:round;stroke-miterlimit:4;stroke-dasharray:none;stroke-opacity:1"
           id="path130"
           inkscape:connector-curvature="0" /></g><g
         id="g132"
         transform="matrix(1,0,0,-1,0,850.39368)"><path
           d="m 799.617,847.203 c 1.567,0 2.836,-1.269 2.836,-2.84"
           style="fill:none;stroke:#000000;stroke-width:0.56692898;stroke-linecap:round;stroke-linejoin:round;stroke-miterlimit:4;stroke-dasharray:none;stroke-opacity:1"
           id="path134"
           inkscape:connector-curvature="0" /></g><g
         id="g136"
         transform="matrix(1,0,0,-1,0,850.39368)"><path
           d="m 134.891,681.371 h 659.05"
           style="fill:none;stroke:#000000;stroke-width:0.56692898;stroke-linecap:round;stroke-linejoin:round;stroke-miterlimit:4;stroke-dasharray:none;stroke-opacity:1"
           id="path138"
           inkscape:connector-curvature="0" /></g><g
         id="g140"
         transform="matrix(1,0,0,-1,0,850.39368)"><path
           d="M 34.258,847.195 H 799.617"
           style="fill:none;stroke:#000000;stroke-width:0.56692898;stroke-linecap:round;stroke-linejoin:round;stroke-miterlimit:4;stroke-dasharray:none;stroke-opacity:1"
           id="path142"
           inkscape:connector-curvature="0" /></g><g
         id="g144"
         transform="matrix(1,0,0,-1,0,850.39368)"><path
           d="m 31.43,844.363 c -0.004,1.567 1.265,2.84 2.832,2.84"
           style="fill:none;stroke:#000000;stroke-width:0.56692898;stroke-linecap:round;stroke-linejoin:round;stroke-miterlimit:4;stroke-dasharray:none;stroke-opacity:1"
           id="path146"
           inkscape:connector-curvature="0" /></g><g
         id="g148"
         transform="matrix(1,0,0,-1,0,850.39368)"><path
           d="m 802.453,776.332 c 0,-4.695 -3.808,-8.504 -8.504,-8.504"
           style="fill:none;stroke:#000000;stroke-width:0.42519599;stroke-linecap:round;stroke-linejoin:round;stroke-miterlimit:4;stroke-dasharray:none;stroke-opacity:1"
           id="path150"
           inkscape:connector-curvature="0" /></g><g
         id="g152"
         transform="matrix(1,0,0,-1,0,850.39368)"><path
           d="m 39.934,767.828 c -4.7,0 -8.504,3.809 -8.504,8.504"
           style="fill:none;stroke:#000000;stroke-width:0.42519599;stroke-linecap:round;stroke-linejoin:round;stroke-miterlimit:4;stroke-dasharray:none;stroke-opacity:1"
           id="path154"
           inkscape:connector-curvature="0" /></g><g
         id="g156"
         transform="matrix(1,0,0,-1,0,850.39368)"><path
           d="M 39.93,767.828 H 793.941"
           style="fill:none;stroke:#000000;stroke-width:0.42519599;stroke-linecap:round;stroke-linejoin:round;stroke-miterlimit:4;stroke-dasharray:none;stroke-opacity:1"
           id="path158"
           inkscape:connector-curvature="0" /></g><g
         id="g160"
         transform="matrix(1,0,0,-1,0,850.39368)"><path
           d="m 31.426,776.332 v 68.031"
           style="fill:none;stroke:#000000;stroke-width:0.56692898;stroke-linecap:round;stroke-linejoin:round;stroke-miterlimit:4;stroke-dasharray:none;stroke-opacity:1"
           id="path162"
           inkscape:connector-curvature="0" /></g><g
         id="g164"
         transform="matrix(1,0,0,-1,0,850.39368)"><path
           d="m 130.641,746.566 c 1.562,0 2.832,-1.265 2.836,-2.828"
           style="fill:none;stroke:#000000;stroke-width:0.56692898;stroke-linecap:round;stroke-linejoin:round;stroke-miterlimit:4;stroke-dasharray:none;stroke-opacity:1"
           id="path166"
           inkscape:connector-curvature="0" /></g><g
         id="g168"
         transform="matrix(1,0,0,-1,0,850.39368)"><path
           d="M 34.258,760.738 H 799.617"
           style="fill:none;stroke:#000000;stroke-width:0.56692898;stroke-linecap:round;stroke-linejoin:round;stroke-miterlimit:4;stroke-dasharray:none;stroke-opacity:1"
           id="path170"
           inkscape:connector-curvature="0" /></g><g
         id="g172"
         transform="matrix(1,0,0,-1,0,850.39368)"><path
           d="m 32.844,746.566 h 97.793"
           style="fill:none;stroke:#000000;stroke-width:0.56692898;stroke-linecap:round;stroke-linejoin:round;stroke-miterlimit:4;stroke-dasharray:none;stroke-opacity:1"
           id="path174"
           inkscape:connector-curvature="0" /></g><g
         id="g176"
         transform="matrix(1,0,0,-1,0,850.39368)"><path
           d="M 133.473,682.789 V 743.73"
           style="fill:none;stroke:#000000;stroke-width:0.56692898;stroke-linecap:round;stroke-linejoin:round;stroke-miterlimit:4;stroke-dasharray:none;stroke-opacity:1"
           id="path178"
           inkscape:connector-curvature="0" /></g><g
         id="g180"
         transform="matrix(1,0,0,-1,0,850.39368)"><path
           d="m 799.617,760.742 c 1.567,0.004 2.836,-1.269 2.836,-2.836"
           style="fill:none;stroke:#000000;stroke-width:0.56692898;stroke-linecap:round;stroke-linejoin:round;stroke-miterlimit:4;stroke-dasharray:none;stroke-opacity:1"
           id="path182"
           inkscape:connector-curvature="0" /></g><g
         id="g184"
         transform="matrix(1,0,0,-1,0,850.39368)"><path
           d="m 134.891,681.371 c -0.782,0 -1.414,0.637 -1.414,1.418"
           style="fill:none;stroke:#000000;stroke-width:0.56692898;stroke-linecap:round;stroke-linejoin:round;stroke-miterlimit:4;stroke-dasharray:none;stroke-opacity:1"
           id="path186"
           inkscape:connector-curvature="0" /></g><g
         id="g188"
         transform="matrix(1,0,0,-1,0,850.39368)"><path
           d="m 32.844,746.566 c -0.782,0 -1.414,0.637 -1.414,1.418"
           style="fill:none;stroke:#000000;stroke-width:0.56692898;stroke-linecap:round;stroke-linejoin:round;stroke-miterlimit:4;stroke-dasharray:none;stroke-opacity:1"
           id="path190"
           inkscape:connector-curvature="0" /></g><g
         id="g192"
         transform="matrix(1,0,0,-1,0,850.39368)"><path
           d="m 31.43,757.906 c -0.004,1.567 1.265,2.836 2.832,2.836"
           style="fill:none;stroke:#000000;stroke-width:0.56692898;stroke-linecap:round;stroke-linejoin:round;stroke-miterlimit:4;stroke-dasharray:none;stroke-opacity:1"
           id="path194"
           inkscape:connector-curvature="0" /></g><g
         id="g196"
         transform="matrix(1,0,0,-1,0,850.39368)"><path
           d="m 802.453,689.875 c 0,-4.695 -3.808,-8.504 -8.504,-8.504"
           style="fill:none;stroke:#000000;stroke-width:0.42519599;stroke-linecap:round;stroke-linejoin:round;stroke-miterlimit:4;stroke-dasharray:none;stroke-opacity:1"
           id="path198"
           inkscape:connector-curvature="0" /></g><g
         id="g200"
         transform="matrix(1,0,0,-1,0,850.39368)"><path
           d="m 31.426,352.555 v 68.027"
           style="fill:none;stroke:#000000;stroke-width:0.56692898;stroke-linecap:round;stroke-linejoin:round;stroke-miterlimit:4;stroke-dasharray:none;stroke-opacity:1"
           id="path202"
           inkscape:connector-curvature="0" /></g><g
         id="g204"
         transform="matrix(1,0,0,-1,0,850.39368)"><path
           d="m 802.445,352.555 v 68.027"
           style="fill:none;stroke:#000000;stroke-width:0.56692898;stroke-linecap:round;stroke-linejoin:round;stroke-miterlimit:4;stroke-dasharray:none;stroke-opacity:1"
           id="path206"
           inkscape:connector-curvature="0" /></g><g
         id="g208"
         transform="matrix(1,0,0,-1,0,850.39368)"><path
           d="m 799.617,423.422 c 1.567,0 2.836,-1.27 2.836,-2.836"
           style="fill:none;stroke:#000000;stroke-width:0.56692898;stroke-linecap:round;stroke-linejoin:round;stroke-miterlimit:4;stroke-dasharray:none;stroke-opacity:1"
           id="path210"
           inkscape:connector-curvature="0" /></g><g
         id="g212"
         transform="matrix(1,0,0,-1,0,850.39368)"><path
           d="m 31.43,420.586 c 0,1.566 1.269,2.836 2.832,2.836"
           style="fill:none;stroke:#000000;stroke-width:0.56692898;stroke-linecap:round;stroke-linejoin:round;stroke-miterlimit:4;stroke-dasharray:none;stroke-opacity:1"
           id="path214"
           inkscape:connector-curvature="0" /></g><g
         id="g216"
         transform="matrix(1,0,0,-1,0,850.39368)"><path
           d="m 802.453,352.555 c 0,-2.254 -0.894,-4.418 -2.492,-6.012 -1.594,-1.598 -3.754,-2.492 -6.012,-2.492"
           style="fill:none;stroke:#000000;stroke-width:0.42519599;stroke-linecap:round;stroke-linejoin:round;stroke-miterlimit:4;stroke-dasharray:none;stroke-opacity:1"
           id="path218"
           inkscape:connector-curvature="0" /></g><g
         id="g220"
         transform="matrix(1,0,0,-1,0,850.39368)"><path
           d="m 39.934,344.051 c -2.258,0 -4.422,0.894 -6.016,2.492 -1.594,1.594 -2.488,3.758 -2.488,6.012"
           style="fill:none;stroke:#000000;stroke-width:0.42519599;stroke-linecap:round;stroke-linejoin:round;stroke-miterlimit:4;stroke-dasharray:none;stroke-opacity:1"
           id="path222"
           inkscape:connector-curvature="0" /></g><g
         id="g224"
         transform="matrix(1,0,0,-1,0,850.39368)"><path
           d="M 39.93,344.043 H 793.941"
           style="fill:none;stroke:#000000;stroke-width:0.42519599;stroke-linecap:round;stroke-linejoin:round;stroke-miterlimit:4;stroke-dasharray:none;stroke-opacity:1"
           id="path226"
           inkscape:connector-curvature="0" /></g><g
         id="g228"
         transform="matrix(1,0,0,-1,0,850.39368)"><path
           d="M 34.258,423.418 H 799.617"
           style="fill:none;stroke:#000000;stroke-width:0.56692898;stroke-linecap:round;stroke-linejoin:round;stroke-miterlimit:4;stroke-dasharray:none;stroke-opacity:1"
           id="path230"
           inkscape:connector-curvature="0" /></g><g
         id="g232"
         transform="matrix(1,0,0,-1,0,850.39368)"><path
           d="m 802.445,266.098 v 68.023"
           style="fill:none;stroke:#000000;stroke-width:0.56692898;stroke-linecap:round;stroke-linejoin:round;stroke-miterlimit:4;stroke-dasharray:none;stroke-opacity:1"
           id="path234"
           inkscape:connector-curvature="0" /></g><g
         id="g236"
         transform="matrix(1,0,0,-1,0,850.39368)"><path
           d="m 134.891,257.594 h 659.05"
           style="fill:none;stroke:#000000;stroke-width:0.56692898;stroke-linecap:round;stroke-linejoin:round;stroke-miterlimit:4;stroke-dasharray:none;stroke-opacity:1"
           id="path238"
           inkscape:connector-curvature="0" /></g><g
         id="g240"
         transform="matrix(1,0,0,-1,0,850.39368)"><path
           d="m 31.426,324.207 v 9.914"
           style="fill:none;stroke:#000000;stroke-width:0.56692898;stroke-linecap:round;stroke-linejoin:round;stroke-miterlimit:4;stroke-dasharray:none;stroke-opacity:1"
           id="path242"
           inkscape:connector-curvature="0" /></g><g
         id="g244"
         transform="matrix(1,0,0,-1,0,850.39368)"><path
           d="m 32.844,322.789 h 97.793"
           style="fill:none;stroke:#000000;stroke-width:0.56692898;stroke-linecap:round;stroke-linejoin:round;stroke-miterlimit:4;stroke-dasharray:none;stroke-opacity:1"
           id="path246"
           inkscape:connector-curvature="0" /></g><g
         id="g248"
         transform="matrix(1,0,0,-1,0,850.39368)"><path
           d="m 133.473,259.004 v 60.949"
           style="fill:none;stroke:#000000;stroke-width:0.56692898;stroke-linecap:round;stroke-linejoin:round;stroke-miterlimit:4;stroke-dasharray:none;stroke-opacity:1"
           id="path250"
           inkscape:connector-curvature="0" /></g><g
         id="g252"
         transform="matrix(1,0,0,-1,0,850.39368)"><path
           d="m 799.617,336.965 c 1.567,0 2.836,-1.27 2.836,-2.836"
           style="fill:none;stroke:#000000;stroke-width:0.56692898;stroke-linecap:round;stroke-linejoin:round;stroke-miterlimit:4;stroke-dasharray:none;stroke-opacity:1"
           id="path254"
           inkscape:connector-curvature="0" /></g><g
         id="g256"
         transform="matrix(1,0,0,-1,0,850.39368)"><path
           d="m 134.891,257.594 c -0.782,0 -1.414,0.636 -1.414,1.418"
           style="fill:none;stroke:#000000;stroke-width:0.56692898;stroke-linecap:round;stroke-linejoin:round;stroke-miterlimit:4;stroke-dasharray:none;stroke-opacity:1"
           id="path258"
           inkscape:connector-curvature="0" /></g><g
         id="g260"
         transform="matrix(1,0,0,-1,0,850.39368)"><path
           d="m 32.844,322.793 c -0.782,0 -1.414,0.633 -1.414,1.414"
           style="fill:none;stroke:#000000;stroke-width:0.56692898;stroke-linecap:round;stroke-linejoin:round;stroke-miterlimit:4;stroke-dasharray:none;stroke-opacity:1"
           id="path262"
           inkscape:connector-curvature="0" /></g><g
         id="g264"
         transform="matrix(1,0,0,-1,0,850.39368)"><path
           d="m 31.43,334.129 c 0,1.566 1.269,2.836 2.832,2.836"
           style="fill:none;stroke:#000000;stroke-width:0.56692898;stroke-linecap:round;stroke-linejoin:round;stroke-miterlimit:4;stroke-dasharray:none;stroke-opacity:1"
           id="path266"
           inkscape:connector-curvature="0" /></g><g
         id="g268"
         transform="matrix(1,0,0,-1,0,850.39368)"><path
           d="m 802.453,266.098 c 0,-4.696 -3.808,-8.504 -8.504,-8.504"
           style="fill:none;stroke:#000000;stroke-width:0.42519599;stroke-linecap:round;stroke-linejoin:round;stroke-miterlimit:4;stroke-dasharray:none;stroke-opacity:1"
           id="path270"
           inkscape:connector-curvature="0" /></g><g
         id="g272"
         transform="matrix(1,0,0,-1,0,850.39368)"><path
           d="m 130.641,322.793 c 1.566,0 2.836,-1.27 2.836,-2.836"
           style="fill:none;stroke:#000000;stroke-width:0.56692898;stroke-linecap:round;stroke-linejoin:round;stroke-miterlimit:4;stroke-dasharray:none;stroke-opacity:1"
           id="path274"
           inkscape:connector-curvature="0" /></g><g
         id="g276"
         transform="matrix(1,0,0,-1,0,850.39368)"><path
           d="M 34.258,336.961 H 799.617"
           style="fill:none;stroke:#000000;stroke-width:0.56692898;stroke-linecap:round;stroke-linejoin:round;stroke-miterlimit:4;stroke-dasharray:none;stroke-opacity:1"
           id="path278"
           inkscape:connector-curvature="0" /></g><g
         id="g280"
         transform="matrix(1,0,0,-1,0,850.39368)"><path
           d="m 134.891,6.73 c -0.782,0 -1.414,0.633 -1.414,1.415"
           style="fill:none;stroke:#000000;stroke-width:0.56692898;stroke-linecap:round;stroke-linejoin:round;stroke-miterlimit:4;stroke-dasharray:none;stroke-opacity:1"
           id="path282"
           inkscape:connector-curvature="0" /></g><g
         id="g284"
         transform="matrix(1,0,0,-1,0,850.39368)"><path
           d="m 32.844,71.922 h 97.793"
           style="fill:none;stroke:#000000;stroke-width:0.56692898;stroke-linecap:round;stroke-linejoin:round;stroke-miterlimit:4;stroke-dasharray:none;stroke-opacity:1"
           id="path286"
           inkscape:connector-curvature="0" /></g><g
         id="g288"
         transform="matrix(1,0,0,-1,0,850.39368)"><path
           d="m 32.844,71.926 c -0.782,0 -1.414,0.633 -1.414,1.418"
           style="fill:none;stroke:#000000;stroke-width:0.56692898;stroke-linecap:round;stroke-linejoin:round;stroke-miterlimit:4;stroke-dasharray:none;stroke-opacity:1"
           id="path290"
           inkscape:connector-curvature="0" /></g><g
         id="g292"
         transform="matrix(1,0,0,-1,0,850.39368)"><path
           d="M 133.473,8.145 V 69.082"
           style="fill:none;stroke:#000000;stroke-width:0.56692898;stroke-linecap:round;stroke-linejoin:round;stroke-miterlimit:4;stroke-dasharray:none;stroke-opacity:1"
           id="path294"
           inkscape:connector-curvature="0" /></g><g
         id="g296"
         transform="matrix(1,0,0,-1,0,850.39368)"><path
           d="m 130.641,71.926 c 1.566,0 2.836,-1.27 2.836,-2.836"
           style="fill:none;stroke:#000000;stroke-width:0.56692898;stroke-linecap:round;stroke-linejoin:round;stroke-miterlimit:4;stroke-dasharray:none;stroke-opacity:1"
           id="path298"
           inkscape:connector-curvature="0" /></g><g
         id="g300"
         transform="matrix(1,0,0,-1,0,850.39368)"><path
           d="m 51.27,236.336 c 0,2.348 -1.903,4.25 -4.25,4.25 -2.348,0 -4.254,-1.902 -4.254,-4.25 0,-2.348 1.906,-4.254 4.254,-4.254 2.347,0 4.25,1.906 4.25,4.254 z"
           style="fill:none;stroke:#000000;stroke-width:0.56692898;stroke-linecap:round;stroke-linejoin:round;stroke-miterlimit:4;stroke-dasharray:none;stroke-opacity:1"
           id="path302"
           inkscape:connector-curvature="0" /></g><g
         id="g304"
         transform="matrix(1,0,0,-1,0,850.39368)"><path
           d="M 793.941,250.504 H 39.93"
           style="fill:none;stroke:#000000;stroke-width:0.42519599;stroke-linecap:round;stroke-linejoin:round;stroke-miterlimit:4;stroke-dasharray:none;stroke-opacity:1"
           id="path306"
           inkscape:connector-curvature="0" /></g><g
         id="g308"
         transform="matrix(1,0,0,-1,0,850.39368)"><path
           d="M 802.445,15.227 V 242"
           style="fill:none;stroke:#000000;stroke-width:0.42519599;stroke-linecap:round;stroke-linejoin:round;stroke-miterlimit:4;stroke-dasharray:none;stroke-opacity:1"
           id="path310"
           inkscape:connector-curvature="0" /></g><g
         id="g312"
         transform="matrix(1,0,0,-1,0,850.39368)"><path
           d="m 802.453,15.234 c 0,-4.699 -3.808,-8.504 -8.504,-8.504"
           style="fill:none;stroke:#000000;stroke-width:0.42519599;stroke-linecap:round;stroke-linejoin:round;stroke-miterlimit:4;stroke-dasharray:none;stroke-opacity:1"
           id="path314"
           inkscape:connector-curvature="0" /></g><g
         id="g316"
         transform="matrix(1,0,0,-1,0,850.39368)"><path
           d="m 31.43,242.004 c 0,2.254 0.894,4.418 2.488,6.012 1.598,1.597 3.758,2.492 6.016,2.492"
           style="fill:none;stroke:#000000;stroke-width:0.42519599;stroke-linecap:round;stroke-linejoin:round;stroke-miterlimit:4;stroke-dasharray:none;stroke-opacity:1"
           id="path318"
           inkscape:connector-curvature="0" /></g><g
         id="g320"
         transform="matrix(1,0,0,-1,0,850.39368)"><path
           d="m 793.949,250.508 c 4.696,0 8.504,-3.809 8.504,-8.504"
           style="fill:none;stroke:#000000;stroke-width:0.42519599;stroke-linecap:round;stroke-linejoin:round;stroke-miterlimit:4;stroke-dasharray:none;stroke-opacity:1"
           id="path322"
           inkscape:connector-curvature="0" /></g><g
         id="g324"
         transform="matrix(1,0,0,-1,0,850.39368)"><path
           d="m 312.199,613.344 c 0,1.64 -1.332,2.976 -2.976,2.976 -1.645,0 -2.977,-1.336 -2.977,-2.976 0,-1.645 1.332,-2.977 2.977,-2.977 1.644,0 2.976,1.332 2.976,2.977 z"
           style="fill:none;stroke:#000000;stroke-width:0.28346401;stroke-linecap:round;stroke-linejoin:round;stroke-miterlimit:4;stroke-dasharray:none;stroke-opacity:1"
           id="path326"
           inkscape:connector-curvature="0" /></g><g
         id="g328"
         transform="matrix(1,0,0,-1,0,850.39368)"><path
           d="m 527.633,613.344 c 0,1.64 -1.332,2.976 -2.977,2.976 -1.644,0 -2.976,-1.336 -2.976,-2.976 0,-1.645 1.332,-2.977 2.976,-2.977 1.645,0 2.977,1.332 2.977,2.977 z"
           style="fill:none;stroke:#000000;stroke-width:0.28346401;stroke-linecap:round;stroke-linejoin:round;stroke-miterlimit:4;stroke-dasharray:none;stroke-opacity:1"
           id="path330"
           inkscape:connector-curvature="0" /></g><g
         id="g332"
         transform="matrix(1,0,0,-1,0,850.39368)"><path
           d="m 527.633,492.871 c 0,1.641 -1.332,2.977 -2.977,2.977 -1.644,0 -2.976,-1.336 -2.976,-2.977 0,-1.644 1.332,-2.976 2.976,-2.976 1.645,0 2.977,1.332 2.977,2.976 z"
           style="fill:none;stroke:#000000;stroke-width:0.28346401;stroke-linecap:round;stroke-linejoin:round;stroke-miterlimit:4;stroke-dasharray:none;stroke-opacity:1"
           id="path334"
           inkscape:connector-curvature="0" /></g><g
         id="g336"
         transform="matrix(1,0,0,-1,0,850.39368)"><path
           d="m 312.199,492.871 c 0,1.641 -1.332,2.977 -2.976,2.977 -1.645,0 -2.977,-1.336 -2.977,-2.977 0,-1.644 1.332,-2.976 2.977,-2.976 1.644,0 2.976,1.332 2.976,2.976 z"
           style="fill:none;stroke:#000000;stroke-width:0.28346401;stroke-linecap:round;stroke-linejoin:round;stroke-miterlimit:4;stroke-dasharray:none;stroke-opacity:1"
           id="path338"
           inkscape:connector-curvature="0" /></g><g
         id="g340"
         transform="matrix(1,0,0,-1,0,850.39368)"><path
           d="m 743.062,600.586 c 0,1.644 -1.332,2.976 -2.976,2.976 -1.645,0 -2.977,-1.332 -2.977,-2.976 0,-1.645 1.332,-2.977 2.977,-2.977 1.644,0 2.976,1.332 2.976,2.977 z"
           style="fill:none;stroke:#000000;stroke-width:0.28346401;stroke-linecap:round;stroke-linejoin:round;stroke-miterlimit:4;stroke-dasharray:none;stroke-opacity:1"
           id="path342"
           inkscape:connector-curvature="0" /></g><g
         id="g344"
         transform="matrix(1,0,0,-1,0,850.39368)"><path
           d="m 96.766,600.586 c 0,1.644 -1.332,2.976 -2.977,2.976 -1.641,0 -2.977,-1.332 -2.977,-2.976 0,-1.645 1.336,-2.977 2.977,-2.977 1.645,0 2.977,1.332 2.977,2.977 z"
           style="fill:none;stroke:#000000;stroke-width:0.28346401;stroke-linecap:round;stroke-linejoin:round;stroke-miterlimit:4;stroke-dasharray:none;stroke-opacity:1"
           id="path346"
           inkscape:connector-curvature="0" /></g><g
         id="g348"
         transform="matrix(1,0,0,-1,0,850.39368)"><path
           d="m 150.625,492.871 c 0,1.641 -1.332,2.977 -2.977,2.977 -1.644,0 -2.976,-1.336 -2.976,-2.977 0,-1.644 1.332,-2.976 2.976,-2.976 1.645,0 2.977,1.332 2.977,2.976 z"
           style="fill:none;stroke:#000000;stroke-width:0.28346401;stroke-linecap:round;stroke-linejoin:round;stroke-miterlimit:4;stroke-dasharray:none;stroke-opacity:1"
           id="path350"
           inkscape:connector-curvature="0" /></g><g
         id="g352"
         transform="matrix(1,0,0,-1,0,850.39368)"><path
           d="m 743.062,492.871 c 0,1.641 -1.332,2.977 -2.976,2.977 -1.645,0 -2.977,-1.336 -2.977,-2.977 0,-1.644 1.332,-2.976 2.977,-2.976 1.644,0 2.976,1.332 2.976,2.976 z"
           style="fill:none;stroke:#000000;stroke-width:0.28346401;stroke-linecap:round;stroke-linejoin:round;stroke-miterlimit:4;stroke-dasharray:none;stroke-opacity:1"
           id="path354"
           inkscape:connector-curvature="0" /></g><g
         id="g356"
         transform="matrix(1,0,0,-1,0,850.39368)"><path
           d="m 312.199,830.195 c 0,1.645 -1.332,2.977 -2.976,2.977 -1.645,0 -2.977,-1.332 -2.977,-2.977 0,-1.644 1.332,-2.976 2.977,-2.976 1.644,0 2.976,1.332 2.976,2.976 z"
           style="fill:none;stroke:#000000;stroke-width:0.28346401;stroke-linecap:round;stroke-linejoin:round;stroke-miterlimit:4;stroke-dasharray:none;stroke-opacity:1"
           id="path358"
           inkscape:connector-curvature="0" /></g><g
         id="g360"
         transform="matrix(1,0,0,-1,0,850.39368)"><path
           d="m 150.625,830.195 c 0,1.645 -1.332,2.977 -2.977,2.977 -1.644,0 -2.976,-1.332 -2.976,-2.977 0,-1.644 1.332,-2.976 2.976,-2.976 1.645,0 2.977,1.332 2.977,2.976 z"
           style="fill:none;stroke:#000000;stroke-width:0.28346401;stroke-linecap:round;stroke-linejoin:round;stroke-miterlimit:4;stroke-dasharray:none;stroke-opacity:1"
           id="path362"
           inkscape:connector-curvature="0" /></g><g
         id="g364"
         transform="matrix(1,0,0,-1,0,850.39368)"><path
           d="m 743.062,830.195 c 0,1.645 -1.332,2.977 -2.976,2.977 -1.645,0 -2.977,-1.332 -2.977,-2.977 0,-1.644 1.332,-2.976 2.977,-2.976 1.644,0 2.976,1.332 2.976,2.976 z"
           style="fill:none;stroke:#000000;stroke-width:0.28346401;stroke-linecap:round;stroke-linejoin:round;stroke-miterlimit:4;stroke-dasharray:none;stroke-opacity:1"
           id="path366"
           inkscape:connector-curvature="0" /></g><g
         id="g368"
         transform="matrix(1,0,0,-1,0,850.39368)"><path
           d="m 527.633,830.195 c 0,1.645 -1.332,2.977 -2.977,2.977 -1.644,0 -2.976,-1.332 -2.976,-2.977 0,-1.644 1.332,-2.976 2.976,-2.976 1.645,0 2.977,1.332 2.977,2.976 z"
           style="fill:none;stroke:#000000;stroke-width:0.28346401;stroke-linecap:round;stroke-linejoin:round;stroke-miterlimit:4;stroke-dasharray:none;stroke-opacity:1"
           id="path370"
           inkscape:connector-curvature="0" /></g><g
         id="g372"
         transform="matrix(1,0,0,-1,0,850.39368)"><path
           d="m 150.625,743.738 c 0,1.645 -1.332,2.977 -2.977,2.977 -1.644,0 -2.976,-1.332 -2.976,-2.977 0,-1.644 1.332,-2.976 2.976,-2.976 1.645,0 2.977,1.332 2.977,2.976 z"
           style="fill:none;stroke:#000000;stroke-width:0.28346401;stroke-linecap:round;stroke-linejoin:round;stroke-miterlimit:4;stroke-dasharray:none;stroke-opacity:1"
           id="path374"
           inkscape:connector-curvature="0" /></g><g
         id="g376"
         transform="matrix(1,0,0,-1,0,850.39368)"><path
           d="m 743.062,743.738 c 0,1.645 -1.332,2.977 -2.976,2.977 -1.645,0 -2.977,-1.332 -2.977,-2.977 0,-1.644 1.332,-2.976 2.977,-2.976 1.644,0 2.976,1.332 2.976,2.976 z"
           style="fill:none;stroke:#000000;stroke-width:0.28346401;stroke-linecap:round;stroke-linejoin:round;stroke-miterlimit:4;stroke-dasharray:none;stroke-opacity:1"
           id="path378"
           inkscape:connector-curvature="0" /></g><g
         id="g380"
         transform="matrix(1,0,0,-1,0,850.39368)"><path
           d="m 527.633,743.738 c 0,1.645 -1.332,2.977 -2.977,2.977 -1.644,0 -2.976,-1.332 -2.976,-2.977 0,-1.644 1.332,-2.976 2.976,-2.976 1.645,0 2.977,1.332 2.977,2.976 z"
           style="fill:none;stroke:#000000;stroke-width:0.28346401;stroke-linecap:round;stroke-linejoin:round;stroke-miterlimit:4;stroke-dasharray:none;stroke-opacity:1"
           id="path382"
           inkscape:connector-curvature="0" /></g><g
         id="g384"
         transform="matrix(1,0,0,-1,0,850.39368)"><path
           d="m 312.199,743.738 c 0,1.645 -1.332,2.977 -2.976,2.977 -1.645,0 -2.977,-1.332 -2.977,-2.977 0,-1.644 1.332,-2.976 2.977,-2.976 1.644,0 2.976,1.332 2.976,2.976 z"
           style="fill:none;stroke:#000000;stroke-width:0.28346401;stroke-linecap:round;stroke-linejoin:round;stroke-miterlimit:4;stroke-dasharray:none;stroke-opacity:1"
           id="path386"
           inkscape:connector-curvature="0" /></g><g
         id="g388"
         transform="matrix(1,0,0,-1,0,850.39368)"><path
           d="m 527.633,406.414 c 0,1.645 -1.332,2.977 -2.977,2.977 -1.644,0 -2.976,-1.332 -2.976,-2.977 0,-1.644 1.332,-2.976 2.976,-2.976 1.645,0 2.977,1.332 2.977,2.976 z"
           style="fill:none;stroke:#000000;stroke-width:0.28346401;stroke-linecap:round;stroke-linejoin:round;stroke-miterlimit:4;stroke-dasharray:none;stroke-opacity:1"
           id="path390"
           inkscape:connector-curvature="0" /></g><g
         id="g392"
         transform="matrix(1,0,0,-1,0,850.39368)"><path
           d="m 312.199,406.414 c 0,1.645 -1.332,2.977 -2.976,2.977 -1.645,0 -2.977,-1.332 -2.977,-2.977 0,-1.644 1.332,-2.976 2.977,-2.976 1.644,0 2.976,1.332 2.976,2.976 z"
           style="fill:none;stroke:#000000;stroke-width:0.28346401;stroke-linecap:round;stroke-linejoin:round;stroke-miterlimit:4;stroke-dasharray:none;stroke-opacity:1"
           id="path394"
           inkscape:connector-curvature="0" /></g><g
         id="g396"
         transform="matrix(1,0,0,-1,0,850.39368)"><path
           d="m 150.625,406.414 c 0,1.645 -1.332,2.977 -2.977,2.977 -1.644,0 -2.976,-1.332 -2.976,-2.977 0,-1.644 1.332,-2.976 2.976,-2.976 1.645,0 2.977,1.332 2.977,2.976 z"
           style="fill:none;stroke:#000000;stroke-width:0.28346401;stroke-linecap:round;stroke-linejoin:round;stroke-miterlimit:4;stroke-dasharray:none;stroke-opacity:1"
           id="path398"
           inkscape:connector-curvature="0" /></g><g
         id="g400"
         transform="matrix(1,0,0,-1,0,850.39368)"><path
           d="m 743.062,406.414 c 0,1.645 -1.332,2.977 -2.976,2.977 -1.645,0 -2.977,-1.332 -2.977,-2.977 0,-1.644 1.332,-2.976 2.977,-2.976 1.644,0 2.976,1.332 2.976,2.976 z"
           style="fill:none;stroke:#000000;stroke-width:0.28346401;stroke-linecap:round;stroke-linejoin:round;stroke-miterlimit:4;stroke-dasharray:none;stroke-opacity:1"
           id="path402"
           inkscape:connector-curvature="0" /></g><g
         id="g404"
         transform="matrix(1,0,0,-1,0,850.39368)"><path
           d="m 527.633,319.957 c 0,1.645 -1.332,2.977 -2.977,2.977 -1.644,0 -2.976,-1.332 -2.976,-2.977 0,-1.645 1.332,-2.977 2.976,-2.977 1.645,0 2.977,1.332 2.977,2.977 z"
           style="fill:none;stroke:#000000;stroke-width:0.28346401;stroke-linecap:round;stroke-linejoin:round;stroke-miterlimit:4;stroke-dasharray:none;stroke-opacity:1"
           id="path406"
           inkscape:connector-curvature="0" /></g><g
         id="g408"
         transform="matrix(1,0,0,-1,0,850.39368)"><path
           d="m 312.199,319.957 c 0,1.645 -1.332,2.977 -2.976,2.977 -1.645,0 -2.977,-1.332 -2.977,-2.977 0,-1.645 1.332,-2.977 2.977,-2.977 1.644,0 2.976,1.332 2.976,2.977 z"
           style="fill:none;stroke:#000000;stroke-width:0.28346401;stroke-linecap:round;stroke-linejoin:round;stroke-miterlimit:4;stroke-dasharray:none;stroke-opacity:1"
           id="path410"
           inkscape:connector-curvature="0" /></g><g
         id="g412"
         transform="matrix(1,0,0,-1,0,850.39368)"><path
           d="m 150.625,319.957 c 0,1.645 -1.332,2.977 -2.977,2.977 -1.644,0 -2.976,-1.332 -2.976,-2.977 0,-1.645 1.332,-2.977 2.976,-2.977 1.645,0 2.977,1.332 2.977,2.977 z"
           style="fill:none;stroke:#000000;stroke-width:0.28346401;stroke-linecap:round;stroke-linejoin:round;stroke-miterlimit:4;stroke-dasharray:none;stroke-opacity:1"
           id="path414"
           inkscape:connector-curvature="0" /></g><g
         id="g416"
         transform="matrix(1,0,0,-1,0,850.39368)"><path
           d="m 743.062,319.957 c 0,1.645 -1.332,2.977 -2.976,2.977 -1.645,0 -2.977,-1.332 -2.977,-2.977 0,-1.645 1.332,-2.977 2.977,-2.977 1.644,0 2.976,1.332 2.976,2.977 z"
           style="fill:none;stroke:#000000;stroke-width:0.28346401;stroke-linecap:round;stroke-linejoin:round;stroke-miterlimit:4;stroke-dasharray:none;stroke-opacity:1"
           id="path418"
           inkscape:connector-curvature="0" /></g><g
         id="g420"
         transform="matrix(1,0,0,-1,0,850.39368)"><path
           d="m 743.062,69.09 c 0,1.644 -1.332,2.976 -2.976,2.976 -1.645,0 -2.977,-1.332 -2.977,-2.976 0,-1.641 1.332,-2.977 2.977,-2.977 1.644,0 2.976,1.336 2.976,2.977 z"
           style="fill:none;stroke:#000000;stroke-width:0.28346401;stroke-linecap:round;stroke-linejoin:round;stroke-miterlimit:4;stroke-dasharray:none;stroke-opacity:1"
           id="path422"
           inkscape:connector-curvature="0" /></g><g
         id="g424"
         transform="matrix(1,0,0,-1,0,850.39368)"><path
           d="m 150.625,69.09 c 0,1.644 -1.332,2.976 -2.977,2.976 -1.644,0 -2.976,-1.332 -2.976,-2.976 0,-1.641 1.332,-2.977 2.976,-2.977 1.645,0 2.977,1.336 2.977,2.977 z"
           style="fill:none;stroke:#000000;stroke-width:0.28346401;stroke-linecap:round;stroke-linejoin:round;stroke-miterlimit:4;stroke-dasharray:none;stroke-opacity:1"
           id="path426"
           inkscape:connector-curvature="0" /></g><g
         id="g428"
         transform="matrix(1,0,0,-1,0,850.39368)"><path
           d="m 96.766,176.809 c 0,1.64 -1.332,2.976 -2.977,2.976 -1.641,0 -2.977,-1.336 -2.977,-2.976 0,-1.645 1.336,-2.977 2.977,-2.977 1.645,0 2.977,1.332 2.977,2.977 z"
           style="fill:none;stroke:#000000;stroke-width:0.28346401;stroke-linecap:round;stroke-linejoin:round;stroke-miterlimit:4;stroke-dasharray:none;stroke-opacity:1"
           id="path430"
           inkscape:connector-curvature="0" /></g><g
         id="g432"
         transform="matrix(1,0,0,-1,0,850.39368)"><path
           d="m 743.062,176.809 c 0,1.64 -1.332,2.976 -2.976,2.976 -1.645,0 -2.977,-1.336 -2.977,-2.976 0,-1.645 1.332,-2.977 2.977,-2.977 1.644,0 2.976,1.332 2.976,2.977 z"
           style="fill:none;stroke:#000000;stroke-width:0.28346401;stroke-linecap:round;stroke-linejoin:round;stroke-miterlimit:4;stroke-dasharray:none;stroke-opacity:1"
           id="path434"
           inkscape:connector-curvature="0" /></g><g
         id="g436"
         transform="matrix(1,0,0,-1,0,850.39368)"><path
           d="m 312.199,69.09 c 0,1.644 -1.332,2.976 -2.976,2.976 -1.645,0 -2.977,-1.332 -2.977,-2.976 0,-1.641 1.332,-2.977 2.977,-2.977 1.644,0 2.976,1.336 2.976,2.977 z"
           style="fill:none;stroke:#000000;stroke-width:0.28346401;stroke-linecap:round;stroke-linejoin:round;stroke-miterlimit:4;stroke-dasharray:none;stroke-opacity:1"
           id="path438"
           inkscape:connector-curvature="0" /></g><g
         id="g440"
         transform="matrix(1,0,0,-1,0,850.39368)"><path
           d="m 527.633,69.09 c 0,1.644 -1.332,2.976 -2.977,2.976 -1.644,0 -2.976,-1.332 -2.976,-2.976 0,-1.641 1.332,-2.977 2.976,-2.977 1.645,0 2.977,1.336 2.977,2.977 z"
           style="fill:none;stroke:#000000;stroke-width:0.28346401;stroke-linecap:round;stroke-linejoin:round;stroke-miterlimit:4;stroke-dasharray:none;stroke-opacity:1"
           id="path442"
           inkscape:connector-curvature="0" /></g><g
         id="g444"
         transform="matrix(1,0,0,-1,0,850.39368)"><path
           d="m 527.633,189.562 c 0,1.645 -1.332,2.977 -2.977,2.977 -1.644,0 -2.976,-1.332 -2.976,-2.977 0,-1.644 1.332,-2.976 2.976,-2.976 1.645,0 2.977,1.332 2.977,2.976 z"
           style="fill:none;stroke:#000000;stroke-width:0.28346401;stroke-linecap:round;stroke-linejoin:round;stroke-miterlimit:4;stroke-dasharray:none;stroke-opacity:1"
           id="path446"
           inkscape:connector-curvature="0" /></g><g
         id="g448"
         transform="matrix(1,0,0,-1,0,850.39368)"><path
           d="m 312.199,189.562 c 0,1.645 -1.332,2.977 -2.976,2.977 -1.645,0 -2.977,-1.332 -2.977,-2.977 0,-1.644 1.332,-2.976 2.977,-2.976 1.644,0 2.976,1.332 2.976,2.976 z"
           style="fill:none;stroke:#000000;stroke-width:0.28346401;stroke-linecap:round;stroke-linejoin:round;stroke-miterlimit:4;stroke-dasharray:none;stroke-opacity:1"
           id="path450"
           inkscape:connector-curvature="0" /></g><path
         d="m 31.426,755.792 h 771.02 V 713.276 H 31.426 Z"
         style="fill:#000000;fill-opacity:1;fill-rule:nonzero;stroke:none"
         id="path452"
         inkscape:connector-curvature="0" /><path
         d="m 31.426,332.015 h 771.02 V 289.492 H 31.426 Z"
         style="fill:#000000;fill-opacity:1;fill-rule:nonzero;stroke:none"
         id="path454"
         inkscape:connector-curvature="0" /></g></g></svg>