G04 #@! TF.GenerationSoftware,KiCad,Pcbnew,(5.0.2-4-g3082e92af)*
G04 #@! TF.CreationDate,2019-03-04T22:38:36+01:00*
G04 #@! TF.ProjectId,ortho56,6f727468-6f35-4362-9e6b-696361645f70,rev?*
G04 #@! TF.SameCoordinates,Original*
G04 #@! TF.FileFunction,Legend,Top*
G04 #@! TF.FilePolarity,Positive*
%FSLAX46Y46*%
G04 Gerber Fmt 4.6, Leading zero omitted, Abs format (unit mm)*
G04 Created by KiCad (PCBNEW (5.0.2-4-g3082e92af)) date 2019 March 04, Monday 22:38:36*
%MOMM*%
%LPD*%
G01*
G04 APERTURE LIST*
%ADD10C,0.300000*%
%ADD11C,0.120000*%
%ADD12C,0.100000*%
%ADD13C,0.200000*%
%ADD14C,0.150000*%
%ADD15C,0.203200*%
G04 APERTURE END LIST*
D10*
X43546785Y-101592678D02*
X43403928Y-101521250D01*
X43261071Y-101378392D01*
X43046785Y-101164107D01*
X42903928Y-101092678D01*
X42761071Y-101092678D01*
X42832500Y-101449821D02*
X42689642Y-101378392D01*
X42546785Y-101235535D01*
X42475357Y-100949821D01*
X42475357Y-100449821D01*
X42546785Y-100164107D01*
X42689642Y-100021250D01*
X42832500Y-99949821D01*
X43118214Y-99949821D01*
X43261071Y-100021250D01*
X43403928Y-100164107D01*
X43475357Y-100449821D01*
X43475357Y-100949821D01*
X43403928Y-101235535D01*
X43261071Y-101378392D01*
X43118214Y-101449821D01*
X42832500Y-101449821D01*
X44403928Y-99949821D02*
X44689642Y-99949821D01*
X44832500Y-100021250D01*
X44975357Y-100164107D01*
X45046785Y-100449821D01*
X45046785Y-100949821D01*
X44975357Y-101235535D01*
X44832500Y-101378392D01*
X44689642Y-101449821D01*
X44403928Y-101449821D01*
X44261071Y-101378392D01*
X44118214Y-101235535D01*
X44046785Y-100949821D01*
X44046785Y-100449821D01*
X44118214Y-100164107D01*
X44261071Y-100021250D01*
X44403928Y-99949821D01*
X46403928Y-101449821D02*
X45689642Y-101449821D01*
X45689642Y-99949821D01*
X47618214Y-99949821D02*
X46903928Y-99949821D01*
X46832500Y-100664107D01*
X46903928Y-100592678D01*
X47046785Y-100521250D01*
X47403928Y-100521250D01*
X47546785Y-100592678D01*
X47618214Y-100664107D01*
X47689642Y-100806964D01*
X47689642Y-101164107D01*
X47618214Y-101306964D01*
X47546785Y-101378392D01*
X47403928Y-101449821D01*
X47046785Y-101449821D01*
X46903928Y-101378392D01*
X46832500Y-101306964D01*
X48975357Y-99949821D02*
X48689642Y-99949821D01*
X48546785Y-100021250D01*
X48475357Y-100092678D01*
X48332500Y-100306964D01*
X48261071Y-100592678D01*
X48261071Y-101164107D01*
X48332500Y-101306964D01*
X48403928Y-101378392D01*
X48546785Y-101449821D01*
X48832500Y-101449821D01*
X48975357Y-101378392D01*
X49046785Y-101306964D01*
X49118214Y-101164107D01*
X49118214Y-100806964D01*
X49046785Y-100664107D01*
X48975357Y-100592678D01*
X48832500Y-100521250D01*
X48546785Y-100521250D01*
X48403928Y-100592678D01*
X48332500Y-100664107D01*
X48261071Y-100806964D01*
X51832500Y-100735535D02*
X51761071Y-100664107D01*
X51618214Y-100592678D01*
X51475357Y-100592678D01*
X51332500Y-100664107D01*
X51261071Y-100735535D01*
X51189642Y-100878392D01*
X51189642Y-101021250D01*
X51261071Y-101164107D01*
X51332500Y-101235535D01*
X51475357Y-101306964D01*
X51618214Y-101306964D01*
X51761071Y-101235535D01*
X51832500Y-101164107D01*
X51832500Y-100592678D02*
X51832500Y-101164107D01*
X51903928Y-101235535D01*
X51975357Y-101235535D01*
X52118214Y-101164107D01*
X52189642Y-101021250D01*
X52189642Y-100664107D01*
X52046785Y-100449821D01*
X51832500Y-100306964D01*
X51546785Y-100235535D01*
X51261071Y-100306964D01*
X51046785Y-100449821D01*
X50903928Y-100664107D01*
X50832500Y-100949821D01*
X50903928Y-101235535D01*
X51046785Y-101449821D01*
X51261071Y-101592678D01*
X51546785Y-101664107D01*
X51832500Y-101592678D01*
X52046785Y-101449821D01*
X53403928Y-101378392D02*
X53261071Y-101449821D01*
X52975357Y-101449821D01*
X52832500Y-101378392D01*
X52761071Y-101235535D01*
X52761071Y-100664107D01*
X52832500Y-100521250D01*
X52975357Y-100449821D01*
X53261071Y-100449821D01*
X53403928Y-100521250D01*
X53475357Y-100664107D01*
X53475357Y-100806964D01*
X52761071Y-100949821D01*
X54046785Y-101378392D02*
X54189642Y-101449821D01*
X54475357Y-101449821D01*
X54618214Y-101378392D01*
X54689642Y-101235535D01*
X54689642Y-101164107D01*
X54618214Y-101021250D01*
X54475357Y-100949821D01*
X54261071Y-100949821D01*
X54118214Y-100878392D01*
X54046785Y-100735535D01*
X54046785Y-100664107D01*
X54118214Y-100521250D01*
X54261071Y-100449821D01*
X54475357Y-100449821D01*
X54618214Y-100521250D01*
X55189642Y-100449821D02*
X55475357Y-101449821D01*
X55761071Y-100735535D01*
X56046785Y-101449821D01*
X56332500Y-100449821D01*
X57546785Y-101449821D02*
X57546785Y-100664107D01*
X57475357Y-100521250D01*
X57332500Y-100449821D01*
X57046785Y-100449821D01*
X56903928Y-100521250D01*
X57546785Y-101378392D02*
X57403928Y-101449821D01*
X57046785Y-101449821D01*
X56903928Y-101378392D01*
X56832500Y-101235535D01*
X56832500Y-101092678D01*
X56903928Y-100949821D01*
X57046785Y-100878392D01*
X57403928Y-100878392D01*
X57546785Y-100806964D01*
X58261071Y-101449821D02*
X58261071Y-100449821D01*
X58261071Y-99949821D02*
X58189642Y-100021250D01*
X58261071Y-100092678D01*
X58332500Y-100021250D01*
X58261071Y-99949821D01*
X58261071Y-100092678D01*
X60046785Y-100092678D02*
X60118214Y-100021250D01*
X60261071Y-99949821D01*
X60618214Y-99949821D01*
X60761071Y-100021250D01*
X60832500Y-100092678D01*
X60903928Y-100235535D01*
X60903928Y-100378392D01*
X60832500Y-100592678D01*
X59975357Y-101449821D01*
X60903928Y-101449821D01*
X61832500Y-99949821D02*
X61975357Y-99949821D01*
X62118214Y-100021250D01*
X62189642Y-100092678D01*
X62261071Y-100235535D01*
X62332500Y-100521250D01*
X62332500Y-100878392D01*
X62261071Y-101164107D01*
X62189642Y-101306964D01*
X62118214Y-101378392D01*
X61975357Y-101449821D01*
X61832500Y-101449821D01*
X61689642Y-101378392D01*
X61618214Y-101306964D01*
X61546785Y-101164107D01*
X61475357Y-100878392D01*
X61475357Y-100521250D01*
X61546785Y-100235535D01*
X61618214Y-100092678D01*
X61689642Y-100021250D01*
X61832500Y-99949821D01*
X63761071Y-101449821D02*
X62903928Y-101449821D01*
X63332500Y-101449821D02*
X63332500Y-99949821D01*
X63189642Y-100164107D01*
X63046785Y-100306964D01*
X62903928Y-100378392D01*
X64475357Y-101449821D02*
X64761071Y-101449821D01*
X64903928Y-101378392D01*
X64975357Y-101306964D01*
X65118214Y-101092678D01*
X65189642Y-100806964D01*
X65189642Y-100235535D01*
X65118214Y-100092678D01*
X65046785Y-100021250D01*
X64903928Y-99949821D01*
X64618214Y-99949821D01*
X64475357Y-100021250D01*
X64403928Y-100092678D01*
X64332500Y-100235535D01*
X64332500Y-100592678D01*
X64403928Y-100735535D01*
X64475357Y-100806964D01*
X64618214Y-100878392D01*
X64903928Y-100878392D01*
X65046785Y-100806964D01*
X65118214Y-100735535D01*
X65189642Y-100592678D01*
D11*
G04 #@! TO.C,D56*
X167302623Y-26371250D02*
X166302623Y-26371250D01*
D12*
G36*
X167302623Y-27171250D02*
X166302623Y-27171250D01*
X166802623Y-26471250D01*
X167302623Y-27171250D01*
G37*
X167302623Y-27171250D02*
X166302623Y-27171250D01*
X166802623Y-26471250D01*
X167302623Y-27171250D01*
D13*
G04 #@! TO.C,U1*
X16592500Y-36621250D02*
X16592500Y-39161250D01*
X14052500Y-39161250D02*
X16592500Y-39161250D01*
X14052500Y-21381250D02*
X14052500Y-39161250D01*
X16592500Y-21381250D02*
X14052500Y-21381250D01*
X19132500Y-36621250D02*
X19132500Y-39161250D01*
X16592500Y-36621250D02*
X19132500Y-36621250D01*
X47072500Y-21381250D02*
X16592500Y-21381250D01*
X47072500Y-39161250D02*
X47072500Y-21381250D01*
X16592500Y-39161250D02*
X47072500Y-39161250D01*
D11*
G04 #@! TO.C,D55*
X186332500Y-26371250D02*
X185332500Y-26371250D01*
D12*
G36*
X186332500Y-27171250D02*
X185332500Y-27171250D01*
X185832500Y-26471250D01*
X186332500Y-27171250D01*
G37*
X186332500Y-27171250D02*
X185332500Y-27171250D01*
X185832500Y-26471250D01*
X186332500Y-27171250D01*
D11*
G04 #@! TO.C,D54*
X205332500Y-26371250D02*
X204332500Y-26371250D01*
D12*
G36*
X205332500Y-27171250D02*
X204332500Y-27171250D01*
X204832500Y-26471250D01*
X205332500Y-27171250D01*
G37*
X205332500Y-27171250D02*
X204332500Y-27171250D01*
X204832500Y-26471250D01*
X205332500Y-27171250D01*
D11*
G04 #@! TO.C,D53*
X224332500Y-26371250D02*
X223332500Y-26371250D01*
D12*
G36*
X224332500Y-27171250D02*
X223332500Y-27171250D01*
X223832500Y-26471250D01*
X224332500Y-27171250D01*
G37*
X224332500Y-27171250D02*
X223332500Y-27171250D01*
X223832500Y-26471250D01*
X224332500Y-27171250D01*
D11*
G04 #@! TO.C,D52*
X243302623Y-26371250D02*
X242302623Y-26371250D01*
D12*
G36*
X243302623Y-27171250D02*
X242302623Y-27171250D01*
X242802623Y-26471250D01*
X243302623Y-27171250D01*
G37*
X243302623Y-27171250D02*
X242302623Y-27171250D01*
X242802623Y-26471250D01*
X243302623Y-27171250D01*
D11*
G04 #@! TO.C,D51*
X262332500Y-26371250D02*
X261332500Y-26371250D01*
D12*
G36*
X262332500Y-27171250D02*
X261332500Y-27171250D01*
X261832500Y-26471250D01*
X262332500Y-27171250D01*
G37*
X262332500Y-27171250D02*
X261332500Y-27171250D01*
X261832500Y-26471250D01*
X262332500Y-27171250D01*
D11*
G04 #@! TO.C,D50*
X281332500Y-26371250D02*
X280332500Y-26371250D01*
D12*
G36*
X281332500Y-27171250D02*
X280332500Y-27171250D01*
X280832500Y-26471250D01*
X281332500Y-27171250D01*
G37*
X281332500Y-27171250D02*
X280332500Y-27171250D01*
X280832500Y-26471250D01*
X281332500Y-27171250D01*
D11*
G04 #@! TO.C,D49*
X167332500Y-45371250D02*
X166332500Y-45371250D01*
D12*
G36*
X167332500Y-46171250D02*
X166332500Y-46171250D01*
X166832500Y-45471250D01*
X167332500Y-46171250D01*
G37*
X167332500Y-46171250D02*
X166332500Y-46171250D01*
X166832500Y-45471250D01*
X167332500Y-46171250D01*
D11*
G04 #@! TO.C,D48*
X186332500Y-47371250D02*
X185332500Y-47371250D01*
D12*
G36*
X186332500Y-48171250D02*
X185332500Y-48171250D01*
X185832500Y-47471250D01*
X186332500Y-48171250D01*
G37*
X186332500Y-48171250D02*
X185332500Y-48171250D01*
X185832500Y-47471250D01*
X186332500Y-48171250D01*
D11*
G04 #@! TO.C,D47*
X205332500Y-45371250D02*
X204332500Y-45371250D01*
D12*
G36*
X205332500Y-46171250D02*
X204332500Y-46171250D01*
X204832500Y-45471250D01*
X205332500Y-46171250D01*
G37*
X205332500Y-46171250D02*
X204332500Y-46171250D01*
X204832500Y-45471250D01*
X205332500Y-46171250D01*
D11*
G04 #@! TO.C,D46*
X224332500Y-45371250D02*
X223332500Y-45371250D01*
D12*
G36*
X224332500Y-46171250D02*
X223332500Y-46171250D01*
X223832500Y-45471250D01*
X224332500Y-46171250D01*
G37*
X224332500Y-46171250D02*
X223332500Y-46171250D01*
X223832500Y-45471250D01*
X224332500Y-46171250D01*
D11*
G04 #@! TO.C,D45*
X243332500Y-45371250D02*
X242332500Y-45371250D01*
D12*
G36*
X243332500Y-46171250D02*
X242332500Y-46171250D01*
X242832500Y-45471250D01*
X243332500Y-46171250D01*
G37*
X243332500Y-46171250D02*
X242332500Y-46171250D01*
X242832500Y-45471250D01*
X243332500Y-46171250D01*
D11*
G04 #@! TO.C,D44*
X262302623Y-46871250D02*
X261302623Y-46871250D01*
D12*
G36*
X262302623Y-47671250D02*
X261302623Y-47671250D01*
X261802623Y-46971250D01*
X262302623Y-47671250D01*
G37*
X262302623Y-47671250D02*
X261302623Y-47671250D01*
X261802623Y-46971250D01*
X262302623Y-47671250D01*
D11*
G04 #@! TO.C,D43*
X281302623Y-45371250D02*
X280302623Y-45371250D01*
D12*
G36*
X281302623Y-46171250D02*
X280302623Y-46171250D01*
X280802623Y-45471250D01*
X281302623Y-46171250D01*
G37*
X281302623Y-46171250D02*
X280302623Y-46171250D01*
X280802623Y-45471250D01*
X281302623Y-46171250D01*
D11*
G04 #@! TO.C,D42*
X167302623Y-65871250D02*
X166302623Y-65871250D01*
D12*
G36*
X167302623Y-66671250D02*
X166302623Y-66671250D01*
X166802623Y-65971250D01*
X167302623Y-66671250D01*
G37*
X167302623Y-66671250D02*
X166302623Y-66671250D01*
X166802623Y-65971250D01*
X167302623Y-66671250D01*
D11*
G04 #@! TO.C,D41*
X186332500Y-65871250D02*
X185332500Y-65871250D01*
D12*
G36*
X186332500Y-66671250D02*
X185332500Y-66671250D01*
X185832500Y-65971250D01*
X186332500Y-66671250D01*
G37*
X186332500Y-66671250D02*
X185332500Y-66671250D01*
X185832500Y-65971250D01*
X186332500Y-66671250D01*
D11*
G04 #@! TO.C,D40*
X205332500Y-65871250D02*
X204332500Y-65871250D01*
D12*
G36*
X205332500Y-66671250D02*
X204332500Y-66671250D01*
X204832500Y-65971250D01*
X205332500Y-66671250D01*
G37*
X205332500Y-66671250D02*
X204332500Y-66671250D01*
X204832500Y-65971250D01*
X205332500Y-66671250D01*
D11*
G04 #@! TO.C,D39*
X224332500Y-65871250D02*
X223332500Y-65871250D01*
D12*
G36*
X224332500Y-66671250D02*
X223332500Y-66671250D01*
X223832500Y-65971250D01*
X224332500Y-66671250D01*
G37*
X224332500Y-66671250D02*
X223332500Y-66671250D01*
X223832500Y-65971250D01*
X224332500Y-66671250D01*
D11*
G04 #@! TO.C,D38*
X243302623Y-65871250D02*
X242302623Y-65871250D01*
D12*
G36*
X243302623Y-66671250D02*
X242302623Y-66671250D01*
X242802623Y-65971250D01*
X243302623Y-66671250D01*
G37*
X243302623Y-66671250D02*
X242302623Y-66671250D01*
X242802623Y-65971250D01*
X243302623Y-66671250D01*
D11*
G04 #@! TO.C,D37*
X262332500Y-65871250D02*
X261332500Y-65871250D01*
D12*
G36*
X262332500Y-66671250D02*
X261332500Y-66671250D01*
X261832500Y-65971250D01*
X262332500Y-66671250D01*
G37*
X262332500Y-66671250D02*
X261332500Y-66671250D01*
X261832500Y-65971250D01*
X262332500Y-66671250D01*
D11*
G04 #@! TO.C,D36*
X281302623Y-65801597D02*
X280302623Y-65801597D01*
D12*
G36*
X281302623Y-66601597D02*
X280302623Y-66601597D01*
X280802623Y-65901597D01*
X281302623Y-66601597D01*
G37*
X281302623Y-66601597D02*
X280302623Y-66601597D01*
X280802623Y-65901597D01*
X281302623Y-66601597D01*
D11*
G04 #@! TO.C,D35*
X167332500Y-87871250D02*
X166332500Y-87871250D01*
D12*
G36*
X167332500Y-88671250D02*
X166332500Y-88671250D01*
X166832500Y-87971250D01*
X167332500Y-88671250D01*
G37*
X167332500Y-88671250D02*
X166332500Y-88671250D01*
X166832500Y-87971250D01*
X167332500Y-88671250D01*
D11*
G04 #@! TO.C,D34*
X186332500Y-90371250D02*
X185332500Y-90371250D01*
D12*
G36*
X186332500Y-91171250D02*
X185332500Y-91171250D01*
X185832500Y-90471250D01*
X186332500Y-91171250D01*
G37*
X186332500Y-91171250D02*
X185332500Y-91171250D01*
X185832500Y-90471250D01*
X186332500Y-91171250D01*
D11*
G04 #@! TO.C,D33*
X205332500Y-87871250D02*
X204332500Y-87871250D01*
D12*
G36*
X205332500Y-88671250D02*
X204332500Y-88671250D01*
X204832500Y-87971250D01*
X205332500Y-88671250D01*
G37*
X205332500Y-88671250D02*
X204332500Y-88671250D01*
X204832500Y-87971250D01*
X205332500Y-88671250D01*
D11*
G04 #@! TO.C,D32*
X224332500Y-83371250D02*
X223332500Y-83371250D01*
D12*
G36*
X224332500Y-84171250D02*
X223332500Y-84171250D01*
X223832500Y-83471250D01*
X224332500Y-84171250D01*
G37*
X224332500Y-84171250D02*
X223332500Y-84171250D01*
X223832500Y-83471250D01*
X224332500Y-84171250D01*
D11*
G04 #@! TO.C,D31*
X243332500Y-83371250D02*
X242332500Y-83371250D01*
D12*
G36*
X243332500Y-84171250D02*
X242332500Y-84171250D01*
X242832500Y-83471250D01*
X243332500Y-84171250D01*
G37*
X243332500Y-84171250D02*
X242332500Y-84171250D01*
X242832500Y-83471250D01*
X243332500Y-84171250D01*
D11*
G04 #@! TO.C,D30*
X262332500Y-84871250D02*
X261332500Y-84871250D01*
D12*
G36*
X262332500Y-85671250D02*
X261332500Y-85671250D01*
X261832500Y-84971250D01*
X262332500Y-85671250D01*
G37*
X262332500Y-85671250D02*
X261332500Y-85671250D01*
X261832500Y-84971250D01*
X262332500Y-85671250D01*
D11*
G04 #@! TO.C,D29*
X281332500Y-83501597D02*
X280332500Y-83501597D01*
D12*
G36*
X281332500Y-84301597D02*
X280332500Y-84301597D01*
X280832500Y-83601597D01*
X281332500Y-84301597D01*
G37*
X281332500Y-84301597D02*
X280332500Y-84301597D01*
X280832500Y-83601597D01*
X281332500Y-84301597D01*
D11*
G04 #@! TO.C,D28*
X148332500Y-87871250D02*
X147332500Y-87871250D01*
D12*
G36*
X148332500Y-88671250D02*
X147332500Y-88671250D01*
X147832500Y-87971250D01*
X148332500Y-88671250D01*
G37*
X148332500Y-88671250D02*
X147332500Y-88671250D01*
X147832500Y-87971250D01*
X148332500Y-88671250D01*
D11*
G04 #@! TO.C,D27*
X129332500Y-87871250D02*
X128332500Y-87871250D01*
D12*
G36*
X129332500Y-88671250D02*
X128332500Y-88671250D01*
X128832500Y-87971250D01*
X129332500Y-88671250D01*
G37*
X129332500Y-88671250D02*
X128332500Y-88671250D01*
X128832500Y-87971250D01*
X129332500Y-88671250D01*
D11*
G04 #@! TO.C,D26*
X110332500Y-90371250D02*
X109332500Y-90371250D01*
D12*
G36*
X110332500Y-91171250D02*
X109332500Y-91171250D01*
X109832500Y-90471250D01*
X110332500Y-91171250D01*
G37*
X110332500Y-91171250D02*
X109332500Y-91171250D01*
X109832500Y-90471250D01*
X110332500Y-91171250D01*
D11*
G04 #@! TO.C,D25*
X91332500Y-83871250D02*
X90332500Y-83871250D01*
D12*
G36*
X91332500Y-84671250D02*
X90332500Y-84671250D01*
X90832500Y-83971250D01*
X91332500Y-84671250D01*
G37*
X91332500Y-84671250D02*
X90332500Y-84671250D01*
X90832500Y-83971250D01*
X91332500Y-84671250D01*
D11*
G04 #@! TO.C,D24*
X72332500Y-83371250D02*
X71332500Y-83371250D01*
D12*
G36*
X72332500Y-84171250D02*
X71332500Y-84171250D01*
X71832500Y-83471250D01*
X72332500Y-84171250D01*
G37*
X72332500Y-84171250D02*
X71332500Y-84171250D01*
X71832500Y-83471250D01*
X72332500Y-84171250D01*
D11*
G04 #@! TO.C,D23*
X53332500Y-83371250D02*
X52332500Y-83371250D01*
D12*
G36*
X53332500Y-84171250D02*
X52332500Y-84171250D01*
X52832500Y-83471250D01*
X53332500Y-84171250D01*
G37*
X53332500Y-84171250D02*
X52332500Y-84171250D01*
X52832500Y-83471250D01*
X53332500Y-84171250D01*
D11*
G04 #@! TO.C,D22*
X34332500Y-84871250D02*
X33332500Y-84871250D01*
D12*
G36*
X34332500Y-85671250D02*
X33332500Y-85671250D01*
X33832500Y-84971250D01*
X34332500Y-85671250D01*
G37*
X34332500Y-85671250D02*
X33332500Y-85671250D01*
X33832500Y-84971250D01*
X34332500Y-85671250D01*
D11*
G04 #@! TO.C,D21*
X148332500Y-65871250D02*
X147332500Y-65871250D01*
D12*
G36*
X148332500Y-66671250D02*
X147332500Y-66671250D01*
X147832500Y-65971250D01*
X148332500Y-66671250D01*
G37*
X148332500Y-66671250D02*
X147332500Y-66671250D01*
X147832500Y-65971250D01*
X148332500Y-66671250D01*
D11*
G04 #@! TO.C,D20*
X129332500Y-65871250D02*
X128332500Y-65871250D01*
D12*
G36*
X129332500Y-66671250D02*
X128332500Y-66671250D01*
X128832500Y-65971250D01*
X129332500Y-66671250D01*
G37*
X129332500Y-66671250D02*
X128332500Y-66671250D01*
X128832500Y-65971250D01*
X129332500Y-66671250D01*
D11*
G04 #@! TO.C,D19*
X110332500Y-65871250D02*
X109332500Y-65871250D01*
D12*
G36*
X110332500Y-66671250D02*
X109332500Y-66671250D01*
X109832500Y-65971250D01*
X110332500Y-66671250D01*
G37*
X110332500Y-66671250D02*
X109332500Y-66671250D01*
X109832500Y-65971250D01*
X110332500Y-66671250D01*
D11*
G04 #@! TO.C,D18*
X91332500Y-65871250D02*
X90332500Y-65871250D01*
D12*
G36*
X91332500Y-66671250D02*
X90332500Y-66671250D01*
X90832500Y-65971250D01*
X91332500Y-66671250D01*
G37*
X91332500Y-66671250D02*
X90332500Y-66671250D01*
X90832500Y-65971250D01*
X91332500Y-66671250D01*
D11*
G04 #@! TO.C,D17*
X72332500Y-65871250D02*
X71332500Y-65871250D01*
D12*
G36*
X72332500Y-66671250D02*
X71332500Y-66671250D01*
X71832500Y-65971250D01*
X72332500Y-66671250D01*
G37*
X72332500Y-66671250D02*
X71332500Y-66671250D01*
X71832500Y-65971250D01*
X72332500Y-66671250D01*
D11*
G04 #@! TO.C,D16*
X53332500Y-65871250D02*
X52332500Y-65871250D01*
D12*
G36*
X53332500Y-66671250D02*
X52332500Y-66671250D01*
X52832500Y-65971250D01*
X53332500Y-66671250D01*
G37*
X53332500Y-66671250D02*
X52332500Y-66671250D01*
X52832500Y-65971250D01*
X53332500Y-66671250D01*
D11*
G04 #@! TO.C,D15*
X34332500Y-65871250D02*
X33332500Y-65871250D01*
D12*
G36*
X34332500Y-66671250D02*
X33332500Y-66671250D01*
X33832500Y-65971250D01*
X34332500Y-66671250D01*
G37*
X34332500Y-66671250D02*
X33332500Y-66671250D01*
X33832500Y-65971250D01*
X34332500Y-66671250D01*
D11*
G04 #@! TO.C,D14*
X148332500Y-45371250D02*
X147332500Y-45371250D01*
D12*
G36*
X148332500Y-46171250D02*
X147332500Y-46171250D01*
X147832500Y-45471250D01*
X148332500Y-46171250D01*
G37*
X148332500Y-46171250D02*
X147332500Y-46171250D01*
X147832500Y-45471250D01*
X148332500Y-46171250D01*
D11*
G04 #@! TO.C,D13*
X129332500Y-45371250D02*
X128332500Y-45371250D01*
D12*
G36*
X129332500Y-46171250D02*
X128332500Y-46171250D01*
X128832500Y-45471250D01*
X129332500Y-46171250D01*
G37*
X129332500Y-46171250D02*
X128332500Y-46171250D01*
X128832500Y-45471250D01*
X129332500Y-46171250D01*
D11*
G04 #@! TO.C,D12*
X110332500Y-47871250D02*
X109332500Y-47871250D01*
D12*
G36*
X110332500Y-48671250D02*
X109332500Y-48671250D01*
X109832500Y-47971250D01*
X110332500Y-48671250D01*
G37*
X110332500Y-48671250D02*
X109332500Y-48671250D01*
X109832500Y-47971250D01*
X110332500Y-48671250D01*
D11*
G04 #@! TO.C,D11*
X91582500Y-45371250D02*
X90582500Y-45371250D01*
D12*
G36*
X91582500Y-46171250D02*
X90582500Y-46171250D01*
X91082500Y-45471250D01*
X91582500Y-46171250D01*
G37*
X91582500Y-46171250D02*
X90582500Y-46171250D01*
X91082500Y-45471250D01*
X91582500Y-46171250D01*
D11*
G04 #@! TO.C,D10*
X72332500Y-45371250D02*
X71332500Y-45371250D01*
D12*
G36*
X72332500Y-46171250D02*
X71332500Y-46171250D01*
X71832500Y-45471250D01*
X72332500Y-46171250D01*
G37*
X72332500Y-46171250D02*
X71332500Y-46171250D01*
X71832500Y-45471250D01*
X72332500Y-46171250D01*
D11*
G04 #@! TO.C,D9*
X53362377Y-47801597D02*
X52362377Y-47801597D01*
D12*
G36*
X53362377Y-48601597D02*
X52362377Y-48601597D01*
X52862377Y-47901597D01*
X53362377Y-48601597D01*
G37*
X53362377Y-48601597D02*
X52362377Y-48601597D01*
X52862377Y-47901597D01*
X53362377Y-48601597D01*
D11*
G04 #@! TO.C,D8*
X34332500Y-45371250D02*
X33332500Y-45371250D01*
D12*
G36*
X34332500Y-46171250D02*
X33332500Y-46171250D01*
X33832500Y-45471250D01*
X34332500Y-46171250D01*
G37*
X34332500Y-46171250D02*
X33332500Y-46171250D01*
X33832500Y-45471250D01*
X34332500Y-46171250D01*
D11*
G04 #@! TO.C,D7*
X148332500Y-26371250D02*
X147332500Y-26371250D01*
D12*
G36*
X148332500Y-27171250D02*
X147332500Y-27171250D01*
X147832500Y-26471250D01*
X148332500Y-27171250D01*
G37*
X148332500Y-27171250D02*
X147332500Y-27171250D01*
X147832500Y-26471250D01*
X148332500Y-27171250D01*
D11*
G04 #@! TO.C,D6*
X129332500Y-26371250D02*
X128332500Y-26371250D01*
D12*
G36*
X129332500Y-27171250D02*
X128332500Y-27171250D01*
X128832500Y-26471250D01*
X129332500Y-27171250D01*
G37*
X129332500Y-27171250D02*
X128332500Y-27171250D01*
X128832500Y-26471250D01*
X129332500Y-27171250D01*
D11*
G04 #@! TO.C,D5*
X110332500Y-26501597D02*
X109332500Y-26501597D01*
D12*
G36*
X110332500Y-27301597D02*
X109332500Y-27301597D01*
X109832500Y-26601597D01*
X110332500Y-27301597D01*
G37*
X110332500Y-27301597D02*
X109332500Y-27301597D01*
X109832500Y-26601597D01*
X110332500Y-27301597D01*
D11*
G04 #@! TO.C,D4*
X91332500Y-26371250D02*
X90332500Y-26371250D01*
D12*
G36*
X91332500Y-27171250D02*
X90332500Y-27171250D01*
X90832500Y-26471250D01*
X91332500Y-27171250D01*
G37*
X91332500Y-27171250D02*
X90332500Y-27171250D01*
X90832500Y-26471250D01*
X91332500Y-27171250D01*
D11*
G04 #@! TO.C,D3*
X72332500Y-26371250D02*
X71332500Y-26371250D01*
D12*
G36*
X72332500Y-27171250D02*
X71332500Y-27171250D01*
X71832500Y-26471250D01*
X72332500Y-27171250D01*
G37*
X72332500Y-27171250D02*
X71332500Y-27171250D01*
X71832500Y-26471250D01*
X72332500Y-27171250D01*
D11*
G04 #@! TO.C,D2*
X53332500Y-26371250D02*
X52332500Y-26371250D01*
D12*
G36*
X53332500Y-27171250D02*
X52332500Y-27171250D01*
X52832500Y-26471250D01*
X53332500Y-27171250D01*
G37*
X53332500Y-27171250D02*
X52332500Y-27171250D01*
X52832500Y-26471250D01*
X53332500Y-27171250D01*
D11*
G04 #@! TO.C,D1*
X33332500Y-31371250D02*
X32332500Y-31371250D01*
D12*
G36*
X33332500Y-32171250D02*
X32332500Y-32171250D01*
X32832500Y-31471250D01*
X33332500Y-32171250D01*
G37*
X33332500Y-32171250D02*
X32332500Y-32171250D01*
X32832500Y-31471250D01*
X33332500Y-32171250D01*
G04 #@! TO.C,H6*
D14*
X262070595Y-73223630D02*
X262070595Y-72223630D01*
X262070595Y-72699821D02*
X262642023Y-72699821D01*
X262642023Y-73223630D02*
X262642023Y-72223630D01*
X263546785Y-72223630D02*
X263356309Y-72223630D01*
X263261071Y-72271250D01*
X263213452Y-72318869D01*
X263118214Y-72461726D01*
X263070595Y-72652202D01*
X263070595Y-73033154D01*
X263118214Y-73128392D01*
X263165833Y-73176011D01*
X263261071Y-73223630D01*
X263451547Y-73223630D01*
X263546785Y-73176011D01*
X263594404Y-73128392D01*
X263642023Y-73033154D01*
X263642023Y-72795059D01*
X263594404Y-72699821D01*
X263546785Y-72652202D01*
X263451547Y-72604583D01*
X263261071Y-72604583D01*
X263165833Y-72652202D01*
X263118214Y-72699821D01*
X263070595Y-72795059D01*
G04 #@! TO.C,H7*
X262070595Y-35223630D02*
X262070595Y-34223630D01*
X262070595Y-34699821D02*
X262642023Y-34699821D01*
X262642023Y-35223630D02*
X262642023Y-34223630D01*
X263022976Y-34223630D02*
X263689642Y-34223630D01*
X263261071Y-35223630D01*
G04 #@! TO.C,H8*
X34070595Y-73223630D02*
X34070595Y-72223630D01*
X34070595Y-72699821D02*
X34642023Y-72699821D01*
X34642023Y-73223630D02*
X34642023Y-72223630D01*
X35261071Y-72652202D02*
X35165833Y-72604583D01*
X35118214Y-72556964D01*
X35070595Y-72461726D01*
X35070595Y-72414107D01*
X35118214Y-72318869D01*
X35165833Y-72271250D01*
X35261071Y-72223630D01*
X35451547Y-72223630D01*
X35546785Y-72271250D01*
X35594404Y-72318869D01*
X35642023Y-72414107D01*
X35642023Y-72461726D01*
X35594404Y-72556964D01*
X35546785Y-72604583D01*
X35451547Y-72652202D01*
X35261071Y-72652202D01*
X35165833Y-72699821D01*
X35118214Y-72747440D01*
X35070595Y-72842678D01*
X35070595Y-73033154D01*
X35118214Y-73128392D01*
X35165833Y-73176011D01*
X35261071Y-73223630D01*
X35451547Y-73223630D01*
X35546785Y-73176011D01*
X35594404Y-73128392D01*
X35642023Y-73033154D01*
X35642023Y-72842678D01*
X35594404Y-72747440D01*
X35546785Y-72699821D01*
X35451547Y-72652202D01*
G04 #@! TO.C,H4*
X53070595Y-35223630D02*
X53070595Y-34223630D01*
X53070595Y-34699821D02*
X53642023Y-34699821D01*
X53642023Y-35223630D02*
X53642023Y-34223630D01*
X54546785Y-34556964D02*
X54546785Y-35223630D01*
X54308690Y-34176011D02*
X54070595Y-34890297D01*
X54689642Y-34890297D01*
G04 #@! TO.C,H3*
X186070595Y-35223630D02*
X186070595Y-34223630D01*
X186070595Y-34699821D02*
X186642023Y-34699821D01*
X186642023Y-35223630D02*
X186642023Y-34223630D01*
X187022976Y-34223630D02*
X187642023Y-34223630D01*
X187308690Y-34604583D01*
X187451547Y-34604583D01*
X187546785Y-34652202D01*
X187594404Y-34699821D01*
X187642023Y-34795059D01*
X187642023Y-35033154D01*
X187594404Y-35128392D01*
X187546785Y-35176011D01*
X187451547Y-35223630D01*
X187165833Y-35223630D01*
X187070595Y-35176011D01*
X187022976Y-35128392D01*
G04 #@! TO.C,H2*
X186070595Y-77723630D02*
X186070595Y-76723630D01*
X186070595Y-77199821D02*
X186642023Y-77199821D01*
X186642023Y-77723630D02*
X186642023Y-76723630D01*
X187070595Y-76818869D02*
X187118214Y-76771250D01*
X187213452Y-76723630D01*
X187451547Y-76723630D01*
X187546785Y-76771250D01*
X187594404Y-76818869D01*
X187642023Y-76914107D01*
X187642023Y-77009345D01*
X187594404Y-77152202D01*
X187022976Y-77723630D01*
X187642023Y-77723630D01*
G04 #@! TO.C,H1*
X110070595Y-77723630D02*
X110070595Y-76723630D01*
X110070595Y-77199821D02*
X110642023Y-77199821D01*
X110642023Y-77723630D02*
X110642023Y-76723630D01*
X111642023Y-77723630D02*
X111070595Y-77723630D01*
X111356309Y-77723630D02*
X111356309Y-76723630D01*
X111261071Y-76866488D01*
X111165833Y-76961726D01*
X111070595Y-77009345D01*
G04 #@! TO.C,H5*
X110070595Y-35223630D02*
X110070595Y-34223630D01*
X110070595Y-34699821D02*
X110642023Y-34699821D01*
X110642023Y-35223630D02*
X110642023Y-34223630D01*
X111594404Y-34223630D02*
X111118214Y-34223630D01*
X111070595Y-34699821D01*
X111118214Y-34652202D01*
X111213452Y-34604583D01*
X111451547Y-34604583D01*
X111546785Y-34652202D01*
X111594404Y-34699821D01*
X111642023Y-34795059D01*
X111642023Y-35033154D01*
X111594404Y-35128392D01*
X111546785Y-35176011D01*
X111451547Y-35223630D01*
X111213452Y-35223630D01*
X111118214Y-35176011D01*
X111070595Y-35128392D01*
G04 #@! TO.C,SW1*
D15*
X23300500Y-33960297D02*
X23518214Y-34020773D01*
X23881071Y-34020773D01*
X24026214Y-33960297D01*
X24098785Y-33899821D01*
X24171357Y-33778869D01*
X24171357Y-33657916D01*
X24098785Y-33536964D01*
X24026214Y-33476488D01*
X23881071Y-33416011D01*
X23590785Y-33355535D01*
X23445642Y-33295059D01*
X23373071Y-33234583D01*
X23300500Y-33113630D01*
X23300500Y-32992678D01*
X23373071Y-32871726D01*
X23445642Y-32811250D01*
X23590785Y-32750773D01*
X23953642Y-32750773D01*
X24171357Y-32811250D01*
X24679357Y-32750773D02*
X25042214Y-34020773D01*
X25332500Y-33113630D01*
X25622785Y-34020773D01*
X25985642Y-32750773D01*
X27364500Y-34020773D02*
X26493642Y-34020773D01*
X26929071Y-34020773D02*
X26929071Y-32750773D01*
X26783928Y-32932202D01*
X26638785Y-33053154D01*
X26493642Y-33113630D01*
G04 #@! TO.C,SW2*
X42300500Y-33960297D02*
X42518214Y-34020773D01*
X42881071Y-34020773D01*
X43026214Y-33960297D01*
X43098785Y-33899821D01*
X43171357Y-33778869D01*
X43171357Y-33657916D01*
X43098785Y-33536964D01*
X43026214Y-33476488D01*
X42881071Y-33416011D01*
X42590785Y-33355535D01*
X42445642Y-33295059D01*
X42373071Y-33234583D01*
X42300500Y-33113630D01*
X42300500Y-32992678D01*
X42373071Y-32871726D01*
X42445642Y-32811250D01*
X42590785Y-32750773D01*
X42953642Y-32750773D01*
X43171357Y-32811250D01*
X43679357Y-32750773D02*
X44042214Y-34020773D01*
X44332500Y-33113630D01*
X44622785Y-34020773D01*
X44985642Y-32750773D01*
X45493642Y-32871726D02*
X45566214Y-32811250D01*
X45711357Y-32750773D01*
X46074214Y-32750773D01*
X46219357Y-32811250D01*
X46291928Y-32871726D01*
X46364500Y-32992678D01*
X46364500Y-33113630D01*
X46291928Y-33295059D01*
X45421071Y-34020773D01*
X46364500Y-34020773D01*
G04 #@! TO.C,D56*
D14*
X168664527Y-27342678D02*
X167864527Y-27342678D01*
X167864527Y-27152202D01*
X167902623Y-27037916D01*
X167978813Y-26961726D01*
X168055003Y-26923630D01*
X168207384Y-26885535D01*
X168321670Y-26885535D01*
X168474051Y-26923630D01*
X168550242Y-26961726D01*
X168626432Y-27037916D01*
X168664527Y-27152202D01*
X168664527Y-27342678D01*
X167864527Y-26161726D02*
X167864527Y-26542678D01*
X168245480Y-26580773D01*
X168207384Y-26542678D01*
X168169289Y-26466488D01*
X168169289Y-26276011D01*
X168207384Y-26199821D01*
X168245480Y-26161726D01*
X168321670Y-26123630D01*
X168512146Y-26123630D01*
X168588337Y-26161726D01*
X168626432Y-26199821D01*
X168664527Y-26276011D01*
X168664527Y-26466488D01*
X168626432Y-26542678D01*
X168588337Y-26580773D01*
X167864527Y-25437916D02*
X167864527Y-25590297D01*
X167902623Y-25666488D01*
X167940718Y-25704583D01*
X168055003Y-25780773D01*
X168207384Y-25818869D01*
X168512146Y-25818869D01*
X168588337Y-25780773D01*
X168626432Y-25742678D01*
X168664527Y-25666488D01*
X168664527Y-25514107D01*
X168626432Y-25437916D01*
X168588337Y-25399821D01*
X168512146Y-25361726D01*
X168321670Y-25361726D01*
X168245480Y-25399821D01*
X168207384Y-25437916D01*
X168169289Y-25514107D01*
X168169289Y-25666488D01*
X168207384Y-25742678D01*
X168245480Y-25780773D01*
X168321670Y-25818869D01*
G04 #@! TO.C,U1*
X23364404Y-19998345D02*
X22983452Y-20265011D01*
X23364404Y-20455488D02*
X22564404Y-20455488D01*
X22564404Y-20150726D01*
X22602500Y-20074535D01*
X22640595Y-20036440D01*
X22716785Y-19998345D01*
X22831071Y-19998345D01*
X22907261Y-20036440D01*
X22945357Y-20074535D01*
X22983452Y-20150726D01*
X22983452Y-20455488D01*
X23326309Y-19693583D02*
X23364404Y-19579297D01*
X23364404Y-19388821D01*
X23326309Y-19312630D01*
X23288214Y-19274535D01*
X23212023Y-19236440D01*
X23135833Y-19236440D01*
X23059642Y-19274535D01*
X23021547Y-19312630D01*
X22983452Y-19388821D01*
X22945357Y-19541202D01*
X22907261Y-19617392D01*
X22869166Y-19655488D01*
X22792976Y-19693583D01*
X22716785Y-19693583D01*
X22640595Y-19655488D01*
X22602500Y-19617392D01*
X22564404Y-19541202D01*
X22564404Y-19350726D01*
X22602500Y-19236440D01*
X22564404Y-19007869D02*
X22564404Y-18550726D01*
X23364404Y-18779297D02*
X22564404Y-18779297D01*
X17424404Y-44333598D02*
X17424404Y-43876455D01*
X18224404Y-44105026D02*
X17424404Y-44105026D01*
X17424404Y-43685979D02*
X18224404Y-43152645D01*
X17424404Y-43152645D02*
X18224404Y-43685979D01*
X17424404Y-42695502D02*
X17424404Y-42619312D01*
X17462500Y-42543122D01*
X17500595Y-42505026D01*
X17576785Y-42466931D01*
X17729166Y-42428836D01*
X17919642Y-42428836D01*
X18072023Y-42466931D01*
X18148214Y-42505026D01*
X18186309Y-42543122D01*
X18224404Y-42619312D01*
X18224404Y-42695502D01*
X18186309Y-42771693D01*
X18148214Y-42809788D01*
X18072023Y-42847883D01*
X17919642Y-42885979D01*
X17729166Y-42885979D01*
X17576785Y-42847883D01*
X17500595Y-42809788D01*
X17462500Y-42771693D01*
X17424404Y-42695502D01*
X17386309Y-41514550D02*
X18414880Y-42200264D01*
X18224404Y-41247883D02*
X17424404Y-41247883D01*
X17424404Y-41057407D01*
X17462500Y-40943122D01*
X17538690Y-40866931D01*
X17614880Y-40828836D01*
X17767261Y-40790741D01*
X17881547Y-40790741D01*
X18033928Y-40828836D01*
X18110119Y-40866931D01*
X18186309Y-40943122D01*
X18224404Y-41057407D01*
X18224404Y-41247883D01*
X17424404Y-40524074D02*
X17424404Y-40028836D01*
X17729166Y-40295502D01*
X17729166Y-40181217D01*
X17767261Y-40105026D01*
X17805357Y-40066931D01*
X17881547Y-40028836D01*
X18072023Y-40028836D01*
X18148214Y-40066931D01*
X18186309Y-40105026D01*
X18224404Y-40181217D01*
X18224404Y-40409788D01*
X18186309Y-40485979D01*
X18148214Y-40524074D01*
X20764404Y-41322726D02*
X19964404Y-41322726D01*
X19964404Y-41132250D01*
X20002500Y-41017964D01*
X20078690Y-40941773D01*
X20154880Y-40903678D01*
X20307261Y-40865583D01*
X20421547Y-40865583D01*
X20573928Y-40903678D01*
X20650119Y-40941773D01*
X20726309Y-41017964D01*
X20764404Y-41132250D01*
X20764404Y-41322726D01*
X20040595Y-40560821D02*
X20002500Y-40522726D01*
X19964404Y-40446535D01*
X19964404Y-40256059D01*
X20002500Y-40179869D01*
X20040595Y-40141773D01*
X20116785Y-40103678D01*
X20192976Y-40103678D01*
X20307261Y-40141773D01*
X20764404Y-40598916D01*
X20764404Y-40103678D01*
X30924404Y-41322726D02*
X30124404Y-41322726D01*
X30124404Y-41132250D01*
X30162500Y-41017964D01*
X30238690Y-40941773D01*
X30314880Y-40903678D01*
X30467261Y-40865583D01*
X30581547Y-40865583D01*
X30733928Y-40903678D01*
X30810119Y-40941773D01*
X30886309Y-41017964D01*
X30924404Y-41132250D01*
X30924404Y-41322726D01*
X30124404Y-40370345D02*
X30124404Y-40294154D01*
X30162500Y-40217964D01*
X30200595Y-40179869D01*
X30276785Y-40141773D01*
X30429166Y-40103678D01*
X30619642Y-40103678D01*
X30772023Y-40141773D01*
X30848214Y-40179869D01*
X30886309Y-40217964D01*
X30924404Y-40294154D01*
X30924404Y-40370345D01*
X30886309Y-40446535D01*
X30848214Y-40484630D01*
X30772023Y-40522726D01*
X30619642Y-40560821D01*
X30429166Y-40560821D01*
X30276785Y-40522726D01*
X30200595Y-40484630D01*
X30162500Y-40446535D01*
X30124404Y-40370345D01*
X28384404Y-41322726D02*
X27584404Y-41322726D01*
X27584404Y-41132250D01*
X27622500Y-41017964D01*
X27698690Y-40941773D01*
X27774880Y-40903678D01*
X27927261Y-40865583D01*
X28041547Y-40865583D01*
X28193928Y-40903678D01*
X28270119Y-40941773D01*
X28346309Y-41017964D01*
X28384404Y-41132250D01*
X28384404Y-41322726D01*
X28384404Y-40103678D02*
X28384404Y-40560821D01*
X28384404Y-40332250D02*
X27584404Y-40332250D01*
X27698690Y-40408440D01*
X27774880Y-40484630D01*
X27812976Y-40560821D01*
X25082500Y-41691773D02*
X25044404Y-41767964D01*
X25044404Y-41882250D01*
X25082500Y-41996535D01*
X25158690Y-42072726D01*
X25234880Y-42110821D01*
X25387261Y-42148916D01*
X25501547Y-42148916D01*
X25653928Y-42110821D01*
X25730119Y-42072726D01*
X25806309Y-41996535D01*
X25844404Y-41882250D01*
X25844404Y-41806059D01*
X25806309Y-41691773D01*
X25768214Y-41653678D01*
X25501547Y-41653678D01*
X25501547Y-41806059D01*
X25844404Y-41310821D02*
X25044404Y-41310821D01*
X25844404Y-40853678D01*
X25044404Y-40853678D01*
X25844404Y-40472726D02*
X25044404Y-40472726D01*
X25044404Y-40282250D01*
X25082500Y-40167964D01*
X25158690Y-40091773D01*
X25234880Y-40053678D01*
X25387261Y-40015583D01*
X25501547Y-40015583D01*
X25653928Y-40053678D01*
X25730119Y-40091773D01*
X25806309Y-40167964D01*
X25844404Y-40282250D01*
X25844404Y-40472726D01*
X22542500Y-41691773D02*
X22504404Y-41767964D01*
X22504404Y-41882250D01*
X22542500Y-41996535D01*
X22618690Y-42072726D01*
X22694880Y-42110821D01*
X22847261Y-42148916D01*
X22961547Y-42148916D01*
X23113928Y-42110821D01*
X23190119Y-42072726D01*
X23266309Y-41996535D01*
X23304404Y-41882250D01*
X23304404Y-41806059D01*
X23266309Y-41691773D01*
X23228214Y-41653678D01*
X22961547Y-41653678D01*
X22961547Y-41806059D01*
X23304404Y-41310821D02*
X22504404Y-41310821D01*
X23304404Y-40853678D01*
X22504404Y-40853678D01*
X23304404Y-40472726D02*
X22504404Y-40472726D01*
X22504404Y-40282250D01*
X22542500Y-40167964D01*
X22618690Y-40091773D01*
X22694880Y-40053678D01*
X22847261Y-40015583D01*
X22961547Y-40015583D01*
X23113928Y-40053678D01*
X23190119Y-40091773D01*
X23266309Y-40167964D01*
X23304404Y-40282250D01*
X23304404Y-40472726D01*
X33464404Y-41322726D02*
X32664404Y-41322726D01*
X32664404Y-41132250D01*
X32702500Y-41017964D01*
X32778690Y-40941773D01*
X32854880Y-40903678D01*
X33007261Y-40865583D01*
X33121547Y-40865583D01*
X33273928Y-40903678D01*
X33350119Y-40941773D01*
X33426309Y-41017964D01*
X33464404Y-41132250D01*
X33464404Y-41322726D01*
X32931071Y-40179869D02*
X33464404Y-40179869D01*
X32626309Y-40370345D02*
X33197738Y-40560821D01*
X33197738Y-40065583D01*
X35928214Y-40865583D02*
X35966309Y-40903678D01*
X36004404Y-41017964D01*
X36004404Y-41094154D01*
X35966309Y-41208440D01*
X35890119Y-41284630D01*
X35813928Y-41322726D01*
X35661547Y-41360821D01*
X35547261Y-41360821D01*
X35394880Y-41322726D01*
X35318690Y-41284630D01*
X35242500Y-41208440D01*
X35204404Y-41094154D01*
X35204404Y-41017964D01*
X35242500Y-40903678D01*
X35280595Y-40865583D01*
X35204404Y-40179869D02*
X35204404Y-40332250D01*
X35242500Y-40408440D01*
X35280595Y-40446535D01*
X35394880Y-40522726D01*
X35547261Y-40560821D01*
X35852023Y-40560821D01*
X35928214Y-40522726D01*
X35966309Y-40484630D01*
X36004404Y-40408440D01*
X36004404Y-40256059D01*
X35966309Y-40179869D01*
X35928214Y-40141773D01*
X35852023Y-40103678D01*
X35661547Y-40103678D01*
X35585357Y-40141773D01*
X35547261Y-40179869D01*
X35509166Y-40256059D01*
X35509166Y-40408440D01*
X35547261Y-40484630D01*
X35585357Y-40522726D01*
X35661547Y-40560821D01*
X38544404Y-41322726D02*
X37744404Y-41322726D01*
X37744404Y-41132250D01*
X37782500Y-41017964D01*
X37858690Y-40941773D01*
X37934880Y-40903678D01*
X38087261Y-40865583D01*
X38201547Y-40865583D01*
X38353928Y-40903678D01*
X38430119Y-40941773D01*
X38506309Y-41017964D01*
X38544404Y-41132250D01*
X38544404Y-41322726D01*
X37744404Y-40598916D02*
X37744404Y-40065583D01*
X38544404Y-40408440D01*
X40665357Y-41284630D02*
X40665357Y-41017964D01*
X41084404Y-40903678D02*
X41084404Y-41284630D01*
X40284404Y-41284630D01*
X40284404Y-40903678D01*
X40284404Y-40217964D02*
X40284404Y-40370345D01*
X40322500Y-40446535D01*
X40360595Y-40484630D01*
X40474880Y-40560821D01*
X40627261Y-40598916D01*
X40932023Y-40598916D01*
X41008214Y-40560821D01*
X41046309Y-40522726D01*
X41084404Y-40446535D01*
X41084404Y-40294154D01*
X41046309Y-40217964D01*
X41008214Y-40179869D01*
X40932023Y-40141773D01*
X40741547Y-40141773D01*
X40665357Y-40179869D01*
X40627261Y-40217964D01*
X40589166Y-40294154D01*
X40589166Y-40446535D01*
X40627261Y-40522726D01*
X40665357Y-40560821D01*
X40741547Y-40598916D01*
X43205357Y-41056059D02*
X43243452Y-40941773D01*
X43281547Y-40903678D01*
X43357738Y-40865583D01*
X43472023Y-40865583D01*
X43548214Y-40903678D01*
X43586309Y-40941773D01*
X43624404Y-41017964D01*
X43624404Y-41322726D01*
X42824404Y-41322726D01*
X42824404Y-41056059D01*
X42862500Y-40979869D01*
X42900595Y-40941773D01*
X42976785Y-40903678D01*
X43052976Y-40903678D01*
X43129166Y-40941773D01*
X43167261Y-40979869D01*
X43205357Y-41056059D01*
X43205357Y-41322726D01*
X43091071Y-40179869D02*
X43624404Y-40179869D01*
X42786309Y-40370345D02*
X43357738Y-40560821D01*
X43357738Y-40065583D01*
X45745357Y-41056059D02*
X45783452Y-40941773D01*
X45821547Y-40903678D01*
X45897738Y-40865583D01*
X46012023Y-40865583D01*
X46088214Y-40903678D01*
X46126309Y-40941773D01*
X46164404Y-41017964D01*
X46164404Y-41322726D01*
X45364404Y-41322726D01*
X45364404Y-41056059D01*
X45402500Y-40979869D01*
X45440595Y-40941773D01*
X45516785Y-40903678D01*
X45592976Y-40903678D01*
X45669166Y-40941773D01*
X45707261Y-40979869D01*
X45745357Y-41056059D01*
X45745357Y-41322726D01*
X45364404Y-40141773D02*
X45364404Y-40522726D01*
X45745357Y-40560821D01*
X45707261Y-40522726D01*
X45669166Y-40446535D01*
X45669166Y-40256059D01*
X45707261Y-40179869D01*
X45745357Y-40141773D01*
X45821547Y-40103678D01*
X46012023Y-40103678D01*
X46088214Y-40141773D01*
X46126309Y-40179869D01*
X46164404Y-40256059D01*
X46164404Y-40446535D01*
X46126309Y-40522726D01*
X46088214Y-40560821D01*
X45745357Y-20134059D02*
X45783452Y-20019773D01*
X45821547Y-19981678D01*
X45897738Y-19943583D01*
X46012023Y-19943583D01*
X46088214Y-19981678D01*
X46126309Y-20019773D01*
X46164404Y-20095964D01*
X46164404Y-20400726D01*
X45364404Y-20400726D01*
X45364404Y-20134059D01*
X45402500Y-20057869D01*
X45440595Y-20019773D01*
X45516785Y-19981678D01*
X45592976Y-19981678D01*
X45669166Y-20019773D01*
X45707261Y-20057869D01*
X45745357Y-20134059D01*
X45745357Y-20400726D01*
X45364404Y-19257869D02*
X45364404Y-19410250D01*
X45402500Y-19486440D01*
X45440595Y-19524535D01*
X45554880Y-19600726D01*
X45707261Y-19638821D01*
X46012023Y-19638821D01*
X46088214Y-19600726D01*
X46126309Y-19562630D01*
X46164404Y-19486440D01*
X46164404Y-19334059D01*
X46126309Y-19257869D01*
X46088214Y-19219773D01*
X46012023Y-19181678D01*
X45821547Y-19181678D01*
X45745357Y-19219773D01*
X45707261Y-19257869D01*
X45669166Y-19334059D01*
X45669166Y-19486440D01*
X45707261Y-19562630D01*
X45745357Y-19600726D01*
X45821547Y-19638821D01*
X40665357Y-20134059D02*
X40703452Y-20019773D01*
X40741547Y-19981678D01*
X40817738Y-19943583D01*
X40932023Y-19943583D01*
X41008214Y-19981678D01*
X41046309Y-20019773D01*
X41084404Y-20095964D01*
X41084404Y-20400726D01*
X40284404Y-20400726D01*
X40284404Y-20134059D01*
X40322500Y-20057869D01*
X40360595Y-20019773D01*
X40436785Y-19981678D01*
X40512976Y-19981678D01*
X40589166Y-20019773D01*
X40627261Y-20057869D01*
X40665357Y-20134059D01*
X40665357Y-20400726D01*
X40284404Y-19676916D02*
X40284404Y-19181678D01*
X40589166Y-19448345D01*
X40589166Y-19334059D01*
X40627261Y-19257869D01*
X40665357Y-19219773D01*
X40741547Y-19181678D01*
X40932023Y-19181678D01*
X41008214Y-19219773D01*
X41046309Y-19257869D01*
X41084404Y-19334059D01*
X41084404Y-19562630D01*
X41046309Y-19638821D01*
X41008214Y-19676916D01*
X38125357Y-20134059D02*
X38163452Y-20019773D01*
X38201547Y-19981678D01*
X38277738Y-19943583D01*
X38392023Y-19943583D01*
X38468214Y-19981678D01*
X38506309Y-20019773D01*
X38544404Y-20095964D01*
X38544404Y-20400726D01*
X37744404Y-20400726D01*
X37744404Y-20134059D01*
X37782500Y-20057869D01*
X37820595Y-20019773D01*
X37896785Y-19981678D01*
X37972976Y-19981678D01*
X38049166Y-20019773D01*
X38087261Y-20057869D01*
X38125357Y-20134059D01*
X38125357Y-20400726D01*
X38544404Y-19181678D02*
X38544404Y-19638821D01*
X38544404Y-19410250D02*
X37744404Y-19410250D01*
X37858690Y-19486440D01*
X37934880Y-19562630D01*
X37972976Y-19638821D01*
X27965357Y-20076916D02*
X27965357Y-20343583D01*
X28384404Y-20343583D02*
X27584404Y-20343583D01*
X27584404Y-19962630D01*
X27851071Y-19315011D02*
X28384404Y-19315011D01*
X27546309Y-19505488D02*
X28117738Y-19695964D01*
X28117738Y-19200726D01*
X25044404Y-20626916D02*
X25844404Y-20360250D01*
X25044404Y-20093583D01*
X25768214Y-19369773D02*
X25806309Y-19407869D01*
X25844404Y-19522154D01*
X25844404Y-19598345D01*
X25806309Y-19712630D01*
X25730119Y-19788821D01*
X25653928Y-19826916D01*
X25501547Y-19865011D01*
X25387261Y-19865011D01*
X25234880Y-19826916D01*
X25158690Y-19788821D01*
X25082500Y-19712630D01*
X25044404Y-19598345D01*
X25044404Y-19522154D01*
X25082500Y-19407869D01*
X25120595Y-19369773D01*
X25768214Y-18569773D02*
X25806309Y-18607869D01*
X25844404Y-18722154D01*
X25844404Y-18798345D01*
X25806309Y-18912630D01*
X25730119Y-18988821D01*
X25653928Y-19026916D01*
X25501547Y-19065011D01*
X25387261Y-19065011D01*
X25234880Y-19026916D01*
X25158690Y-18988821D01*
X25082500Y-18912630D01*
X25044404Y-18798345D01*
X25044404Y-18722154D01*
X25082500Y-18607869D01*
X25120595Y-18569773D01*
X20002500Y-20169773D02*
X19964404Y-20245964D01*
X19964404Y-20360250D01*
X20002500Y-20474535D01*
X20078690Y-20550726D01*
X20154880Y-20588821D01*
X20307261Y-20626916D01*
X20421547Y-20626916D01*
X20573928Y-20588821D01*
X20650119Y-20550726D01*
X20726309Y-20474535D01*
X20764404Y-20360250D01*
X20764404Y-20284059D01*
X20726309Y-20169773D01*
X20688214Y-20131678D01*
X20421547Y-20131678D01*
X20421547Y-20284059D01*
X20764404Y-19788821D02*
X19964404Y-19788821D01*
X20764404Y-19331678D01*
X19964404Y-19331678D01*
X20764404Y-18950726D02*
X19964404Y-18950726D01*
X19964404Y-18760250D01*
X20002500Y-18645964D01*
X20078690Y-18569773D01*
X20154880Y-18531678D01*
X20307261Y-18493583D01*
X20421547Y-18493583D01*
X20573928Y-18531678D01*
X20650119Y-18569773D01*
X20726309Y-18645964D01*
X20764404Y-18760250D01*
X20764404Y-18950726D01*
X18224404Y-20112630D02*
X17843452Y-20379297D01*
X18224404Y-20569773D02*
X17424404Y-20569773D01*
X17424404Y-20265011D01*
X17462500Y-20188821D01*
X17500595Y-20150726D01*
X17576785Y-20112630D01*
X17691071Y-20112630D01*
X17767261Y-20150726D01*
X17805357Y-20188821D01*
X17843452Y-20265011D01*
X17843452Y-20569773D01*
X17995833Y-19807869D02*
X17995833Y-19426916D01*
X18224404Y-19884059D02*
X17424404Y-19617392D01*
X18224404Y-19350726D01*
X17424404Y-19160250D02*
X18224404Y-18969773D01*
X17652976Y-18817392D01*
X18224404Y-18665011D01*
X17424404Y-18474535D01*
X30505357Y-20076916D02*
X30505357Y-20343583D01*
X30924404Y-20343583D02*
X30124404Y-20343583D01*
X30124404Y-19962630D01*
X30124404Y-19276916D02*
X30124404Y-19657869D01*
X30505357Y-19695964D01*
X30467261Y-19657869D01*
X30429166Y-19581678D01*
X30429166Y-19391202D01*
X30467261Y-19315011D01*
X30505357Y-19276916D01*
X30581547Y-19238821D01*
X30772023Y-19238821D01*
X30848214Y-19276916D01*
X30886309Y-19315011D01*
X30924404Y-19391202D01*
X30924404Y-19581678D01*
X30886309Y-19657869D01*
X30848214Y-19695964D01*
X33045357Y-20076916D02*
X33045357Y-20343583D01*
X33464404Y-20343583D02*
X32664404Y-20343583D01*
X32664404Y-19962630D01*
X32664404Y-19315011D02*
X32664404Y-19467392D01*
X32702500Y-19543583D01*
X32740595Y-19581678D01*
X32854880Y-19657869D01*
X33007261Y-19695964D01*
X33312023Y-19695964D01*
X33388214Y-19657869D01*
X33426309Y-19619773D01*
X33464404Y-19543583D01*
X33464404Y-19391202D01*
X33426309Y-19315011D01*
X33388214Y-19276916D01*
X33312023Y-19238821D01*
X33121547Y-19238821D01*
X33045357Y-19276916D01*
X33007261Y-19315011D01*
X32969166Y-19391202D01*
X32969166Y-19543583D01*
X33007261Y-19619773D01*
X33045357Y-19657869D01*
X33121547Y-19695964D01*
X35585357Y-20076916D02*
X35585357Y-20343583D01*
X36004404Y-20343583D02*
X35204404Y-20343583D01*
X35204404Y-19962630D01*
X35204404Y-19734059D02*
X35204404Y-19200726D01*
X36004404Y-19543583D01*
X43205357Y-20134059D02*
X43243452Y-20019773D01*
X43281547Y-19981678D01*
X43357738Y-19943583D01*
X43472023Y-19943583D01*
X43548214Y-19981678D01*
X43586309Y-20019773D01*
X43624404Y-20095964D01*
X43624404Y-20400726D01*
X42824404Y-20400726D01*
X42824404Y-20134059D01*
X42862500Y-20057869D01*
X42900595Y-20019773D01*
X42976785Y-19981678D01*
X43052976Y-19981678D01*
X43129166Y-20019773D01*
X43167261Y-20057869D01*
X43205357Y-20134059D01*
X43205357Y-20400726D01*
X42900595Y-19638821D02*
X42862500Y-19600726D01*
X42824404Y-19524535D01*
X42824404Y-19334059D01*
X42862500Y-19257869D01*
X42900595Y-19219773D01*
X42976785Y-19181678D01*
X43052976Y-19181678D01*
X43167261Y-19219773D01*
X43624404Y-19676916D01*
X43624404Y-19181678D01*
G04 #@! TO.C,SW56*
X156522976Y-38550011D02*
X156665833Y-38597630D01*
X156903928Y-38597630D01*
X156999166Y-38550011D01*
X157046785Y-38502392D01*
X157094404Y-38407154D01*
X157094404Y-38311916D01*
X157046785Y-38216678D01*
X156999166Y-38169059D01*
X156903928Y-38121440D01*
X156713452Y-38073821D01*
X156618214Y-38026202D01*
X156570595Y-37978583D01*
X156522976Y-37883345D01*
X156522976Y-37788107D01*
X156570595Y-37692869D01*
X156618214Y-37645250D01*
X156713452Y-37597630D01*
X156951547Y-37597630D01*
X157094404Y-37645250D01*
X157427738Y-37597630D02*
X157665833Y-38597630D01*
X157856309Y-37883345D01*
X158046785Y-38597630D01*
X158284880Y-37597630D01*
X159142023Y-37597630D02*
X158665833Y-37597630D01*
X158618214Y-38073821D01*
X158665833Y-38026202D01*
X158761071Y-37978583D01*
X158999166Y-37978583D01*
X159094404Y-38026202D01*
X159142023Y-38073821D01*
X159189642Y-38169059D01*
X159189642Y-38407154D01*
X159142023Y-38502392D01*
X159094404Y-38550011D01*
X158999166Y-38597630D01*
X158761071Y-38597630D01*
X158665833Y-38550011D01*
X158618214Y-38502392D01*
X160046785Y-37597630D02*
X159856309Y-37597630D01*
X159761071Y-37645250D01*
X159713452Y-37692869D01*
X159618214Y-37835726D01*
X159570595Y-38026202D01*
X159570595Y-38407154D01*
X159618214Y-38502392D01*
X159665833Y-38550011D01*
X159761071Y-38597630D01*
X159951547Y-38597630D01*
X160046785Y-38550011D01*
X160094404Y-38502392D01*
X160142023Y-38407154D01*
X160142023Y-38169059D01*
X160094404Y-38073821D01*
X160046785Y-38026202D01*
X159951547Y-37978583D01*
X159761071Y-37978583D01*
X159665833Y-38026202D01*
X159618214Y-38073821D01*
X159570595Y-38169059D01*
G04 #@! TO.C,SW55*
X175522976Y-38550011D02*
X175665833Y-38597630D01*
X175903928Y-38597630D01*
X175999166Y-38550011D01*
X176046785Y-38502392D01*
X176094404Y-38407154D01*
X176094404Y-38311916D01*
X176046785Y-38216678D01*
X175999166Y-38169059D01*
X175903928Y-38121440D01*
X175713452Y-38073821D01*
X175618214Y-38026202D01*
X175570595Y-37978583D01*
X175522976Y-37883345D01*
X175522976Y-37788107D01*
X175570595Y-37692869D01*
X175618214Y-37645250D01*
X175713452Y-37597630D01*
X175951547Y-37597630D01*
X176094404Y-37645250D01*
X176427738Y-37597630D02*
X176665833Y-38597630D01*
X176856309Y-37883345D01*
X177046785Y-38597630D01*
X177284880Y-37597630D01*
X178142023Y-37597630D02*
X177665833Y-37597630D01*
X177618214Y-38073821D01*
X177665833Y-38026202D01*
X177761071Y-37978583D01*
X177999166Y-37978583D01*
X178094404Y-38026202D01*
X178142023Y-38073821D01*
X178189642Y-38169059D01*
X178189642Y-38407154D01*
X178142023Y-38502392D01*
X178094404Y-38550011D01*
X177999166Y-38597630D01*
X177761071Y-38597630D01*
X177665833Y-38550011D01*
X177618214Y-38502392D01*
X179094404Y-37597630D02*
X178618214Y-37597630D01*
X178570595Y-38073821D01*
X178618214Y-38026202D01*
X178713452Y-37978583D01*
X178951547Y-37978583D01*
X179046785Y-38026202D01*
X179094404Y-38073821D01*
X179142023Y-38169059D01*
X179142023Y-38407154D01*
X179094404Y-38502392D01*
X179046785Y-38550011D01*
X178951547Y-38597630D01*
X178713452Y-38597630D01*
X178618214Y-38550011D01*
X178570595Y-38502392D01*
G04 #@! TO.C,SW54*
X194482976Y-38630011D02*
X194625833Y-38677630D01*
X194863928Y-38677630D01*
X194959166Y-38630011D01*
X195006785Y-38582392D01*
X195054404Y-38487154D01*
X195054404Y-38391916D01*
X195006785Y-38296678D01*
X194959166Y-38249059D01*
X194863928Y-38201440D01*
X194673452Y-38153821D01*
X194578214Y-38106202D01*
X194530595Y-38058583D01*
X194482976Y-37963345D01*
X194482976Y-37868107D01*
X194530595Y-37772869D01*
X194578214Y-37725250D01*
X194673452Y-37677630D01*
X194911547Y-37677630D01*
X195054404Y-37725250D01*
X195387738Y-37677630D02*
X195625833Y-38677630D01*
X195816309Y-37963345D01*
X196006785Y-38677630D01*
X196244880Y-37677630D01*
X197102023Y-37677630D02*
X196625833Y-37677630D01*
X196578214Y-38153821D01*
X196625833Y-38106202D01*
X196721071Y-38058583D01*
X196959166Y-38058583D01*
X197054404Y-38106202D01*
X197102023Y-38153821D01*
X197149642Y-38249059D01*
X197149642Y-38487154D01*
X197102023Y-38582392D01*
X197054404Y-38630011D01*
X196959166Y-38677630D01*
X196721071Y-38677630D01*
X196625833Y-38630011D01*
X196578214Y-38582392D01*
X198006785Y-38010964D02*
X198006785Y-38677630D01*
X197768690Y-37630011D02*
X197530595Y-38344297D01*
X198149642Y-38344297D01*
G04 #@! TO.C,SW53*
X213522976Y-38550011D02*
X213665833Y-38597630D01*
X213903928Y-38597630D01*
X213999166Y-38550011D01*
X214046785Y-38502392D01*
X214094404Y-38407154D01*
X214094404Y-38311916D01*
X214046785Y-38216678D01*
X213999166Y-38169059D01*
X213903928Y-38121440D01*
X213713452Y-38073821D01*
X213618214Y-38026202D01*
X213570595Y-37978583D01*
X213522976Y-37883345D01*
X213522976Y-37788107D01*
X213570595Y-37692869D01*
X213618214Y-37645250D01*
X213713452Y-37597630D01*
X213951547Y-37597630D01*
X214094404Y-37645250D01*
X214427738Y-37597630D02*
X214665833Y-38597630D01*
X214856309Y-37883345D01*
X215046785Y-38597630D01*
X215284880Y-37597630D01*
X216142023Y-37597630D02*
X215665833Y-37597630D01*
X215618214Y-38073821D01*
X215665833Y-38026202D01*
X215761071Y-37978583D01*
X215999166Y-37978583D01*
X216094404Y-38026202D01*
X216142023Y-38073821D01*
X216189642Y-38169059D01*
X216189642Y-38407154D01*
X216142023Y-38502392D01*
X216094404Y-38550011D01*
X215999166Y-38597630D01*
X215761071Y-38597630D01*
X215665833Y-38550011D01*
X215618214Y-38502392D01*
X216522976Y-37597630D02*
X217142023Y-37597630D01*
X216808690Y-37978583D01*
X216951547Y-37978583D01*
X217046785Y-38026202D01*
X217094404Y-38073821D01*
X217142023Y-38169059D01*
X217142023Y-38407154D01*
X217094404Y-38502392D01*
X217046785Y-38550011D01*
X216951547Y-38597630D01*
X216665833Y-38597630D01*
X216570595Y-38550011D01*
X216522976Y-38502392D01*
G04 #@! TO.C,SW52*
X232522976Y-38550011D02*
X232665833Y-38597630D01*
X232903928Y-38597630D01*
X232999166Y-38550011D01*
X233046785Y-38502392D01*
X233094404Y-38407154D01*
X233094404Y-38311916D01*
X233046785Y-38216678D01*
X232999166Y-38169059D01*
X232903928Y-38121440D01*
X232713452Y-38073821D01*
X232618214Y-38026202D01*
X232570595Y-37978583D01*
X232522976Y-37883345D01*
X232522976Y-37788107D01*
X232570595Y-37692869D01*
X232618214Y-37645250D01*
X232713452Y-37597630D01*
X232951547Y-37597630D01*
X233094404Y-37645250D01*
X233427738Y-37597630D02*
X233665833Y-38597630D01*
X233856309Y-37883345D01*
X234046785Y-38597630D01*
X234284880Y-37597630D01*
X235142023Y-37597630D02*
X234665833Y-37597630D01*
X234618214Y-38073821D01*
X234665833Y-38026202D01*
X234761071Y-37978583D01*
X234999166Y-37978583D01*
X235094404Y-38026202D01*
X235142023Y-38073821D01*
X235189642Y-38169059D01*
X235189642Y-38407154D01*
X235142023Y-38502392D01*
X235094404Y-38550011D01*
X234999166Y-38597630D01*
X234761071Y-38597630D01*
X234665833Y-38550011D01*
X234618214Y-38502392D01*
X235570595Y-37692869D02*
X235618214Y-37645250D01*
X235713452Y-37597630D01*
X235951547Y-37597630D01*
X236046785Y-37645250D01*
X236094404Y-37692869D01*
X236142023Y-37788107D01*
X236142023Y-37883345D01*
X236094404Y-38026202D01*
X235522976Y-38597630D01*
X236142023Y-38597630D01*
G04 #@! TO.C,SW51*
X251522976Y-38550011D02*
X251665833Y-38597630D01*
X251903928Y-38597630D01*
X251999166Y-38550011D01*
X252046785Y-38502392D01*
X252094404Y-38407154D01*
X252094404Y-38311916D01*
X252046785Y-38216678D01*
X251999166Y-38169059D01*
X251903928Y-38121440D01*
X251713452Y-38073821D01*
X251618214Y-38026202D01*
X251570595Y-37978583D01*
X251522976Y-37883345D01*
X251522976Y-37788107D01*
X251570595Y-37692869D01*
X251618214Y-37645250D01*
X251713452Y-37597630D01*
X251951547Y-37597630D01*
X252094404Y-37645250D01*
X252427738Y-37597630D02*
X252665833Y-38597630D01*
X252856309Y-37883345D01*
X253046785Y-38597630D01*
X253284880Y-37597630D01*
X254142023Y-37597630D02*
X253665833Y-37597630D01*
X253618214Y-38073821D01*
X253665833Y-38026202D01*
X253761071Y-37978583D01*
X253999166Y-37978583D01*
X254094404Y-38026202D01*
X254142023Y-38073821D01*
X254189642Y-38169059D01*
X254189642Y-38407154D01*
X254142023Y-38502392D01*
X254094404Y-38550011D01*
X253999166Y-38597630D01*
X253761071Y-38597630D01*
X253665833Y-38550011D01*
X253618214Y-38502392D01*
X255142023Y-38597630D02*
X254570595Y-38597630D01*
X254856309Y-38597630D02*
X254856309Y-37597630D01*
X254761071Y-37740488D01*
X254665833Y-37835726D01*
X254570595Y-37883345D01*
G04 #@! TO.C,SW50*
X270522976Y-38550011D02*
X270665833Y-38597630D01*
X270903928Y-38597630D01*
X270999166Y-38550011D01*
X271046785Y-38502392D01*
X271094404Y-38407154D01*
X271094404Y-38311916D01*
X271046785Y-38216678D01*
X270999166Y-38169059D01*
X270903928Y-38121440D01*
X270713452Y-38073821D01*
X270618214Y-38026202D01*
X270570595Y-37978583D01*
X270522976Y-37883345D01*
X270522976Y-37788107D01*
X270570595Y-37692869D01*
X270618214Y-37645250D01*
X270713452Y-37597630D01*
X270951547Y-37597630D01*
X271094404Y-37645250D01*
X271427738Y-37597630D02*
X271665833Y-38597630D01*
X271856309Y-37883345D01*
X272046785Y-38597630D01*
X272284880Y-37597630D01*
X273142023Y-37597630D02*
X272665833Y-37597630D01*
X272618214Y-38073821D01*
X272665833Y-38026202D01*
X272761071Y-37978583D01*
X272999166Y-37978583D01*
X273094404Y-38026202D01*
X273142023Y-38073821D01*
X273189642Y-38169059D01*
X273189642Y-38407154D01*
X273142023Y-38502392D01*
X273094404Y-38550011D01*
X272999166Y-38597630D01*
X272761071Y-38597630D01*
X272665833Y-38550011D01*
X272618214Y-38502392D01*
X273808690Y-37597630D02*
X273903928Y-37597630D01*
X273999166Y-37645250D01*
X274046785Y-37692869D01*
X274094404Y-37788107D01*
X274142023Y-37978583D01*
X274142023Y-38216678D01*
X274094404Y-38407154D01*
X274046785Y-38502392D01*
X273999166Y-38550011D01*
X273903928Y-38597630D01*
X273808690Y-38597630D01*
X273713452Y-38550011D01*
X273665833Y-38502392D01*
X273618214Y-38407154D01*
X273570595Y-38216678D01*
X273570595Y-37978583D01*
X273618214Y-37788107D01*
X273665833Y-37692869D01*
X273713452Y-37645250D01*
X273808690Y-37597630D01*
G04 #@! TO.C,SW49*
X156602976Y-57550011D02*
X156745833Y-57597630D01*
X156983928Y-57597630D01*
X157079166Y-57550011D01*
X157126785Y-57502392D01*
X157174404Y-57407154D01*
X157174404Y-57311916D01*
X157126785Y-57216678D01*
X157079166Y-57169059D01*
X156983928Y-57121440D01*
X156793452Y-57073821D01*
X156698214Y-57026202D01*
X156650595Y-56978583D01*
X156602976Y-56883345D01*
X156602976Y-56788107D01*
X156650595Y-56692869D01*
X156698214Y-56645250D01*
X156793452Y-56597630D01*
X157031547Y-56597630D01*
X157174404Y-56645250D01*
X157507738Y-56597630D02*
X157745833Y-57597630D01*
X157936309Y-56883345D01*
X158126785Y-57597630D01*
X158364880Y-56597630D01*
X159174404Y-56930964D02*
X159174404Y-57597630D01*
X158936309Y-56550011D02*
X158698214Y-57264297D01*
X159317261Y-57264297D01*
X159745833Y-57597630D02*
X159936309Y-57597630D01*
X160031547Y-57550011D01*
X160079166Y-57502392D01*
X160174404Y-57359535D01*
X160222023Y-57169059D01*
X160222023Y-56788107D01*
X160174404Y-56692869D01*
X160126785Y-56645250D01*
X160031547Y-56597630D01*
X159841071Y-56597630D01*
X159745833Y-56645250D01*
X159698214Y-56692869D01*
X159650595Y-56788107D01*
X159650595Y-57026202D01*
X159698214Y-57121440D01*
X159745833Y-57169059D01*
X159841071Y-57216678D01*
X160031547Y-57216678D01*
X160126785Y-57169059D01*
X160174404Y-57121440D01*
X160222023Y-57026202D01*
G04 #@! TO.C,SW48*
X175522976Y-57550011D02*
X175665833Y-57597630D01*
X175903928Y-57597630D01*
X175999166Y-57550011D01*
X176046785Y-57502392D01*
X176094404Y-57407154D01*
X176094404Y-57311916D01*
X176046785Y-57216678D01*
X175999166Y-57169059D01*
X175903928Y-57121440D01*
X175713452Y-57073821D01*
X175618214Y-57026202D01*
X175570595Y-56978583D01*
X175522976Y-56883345D01*
X175522976Y-56788107D01*
X175570595Y-56692869D01*
X175618214Y-56645250D01*
X175713452Y-56597630D01*
X175951547Y-56597630D01*
X176094404Y-56645250D01*
X176427738Y-56597630D02*
X176665833Y-57597630D01*
X176856309Y-56883345D01*
X177046785Y-57597630D01*
X177284880Y-56597630D01*
X178094404Y-56930964D02*
X178094404Y-57597630D01*
X177856309Y-56550011D02*
X177618214Y-57264297D01*
X178237261Y-57264297D01*
X178761071Y-57026202D02*
X178665833Y-56978583D01*
X178618214Y-56930964D01*
X178570595Y-56835726D01*
X178570595Y-56788107D01*
X178618214Y-56692869D01*
X178665833Y-56645250D01*
X178761071Y-56597630D01*
X178951547Y-56597630D01*
X179046785Y-56645250D01*
X179094404Y-56692869D01*
X179142023Y-56788107D01*
X179142023Y-56835726D01*
X179094404Y-56930964D01*
X179046785Y-56978583D01*
X178951547Y-57026202D01*
X178761071Y-57026202D01*
X178665833Y-57073821D01*
X178618214Y-57121440D01*
X178570595Y-57216678D01*
X178570595Y-57407154D01*
X178618214Y-57502392D01*
X178665833Y-57550011D01*
X178761071Y-57597630D01*
X178951547Y-57597630D01*
X179046785Y-57550011D01*
X179094404Y-57502392D01*
X179142023Y-57407154D01*
X179142023Y-57216678D01*
X179094404Y-57121440D01*
X179046785Y-57073821D01*
X178951547Y-57026202D01*
G04 #@! TO.C,SW47*
X194522976Y-57550011D02*
X194665833Y-57597630D01*
X194903928Y-57597630D01*
X194999166Y-57550011D01*
X195046785Y-57502392D01*
X195094404Y-57407154D01*
X195094404Y-57311916D01*
X195046785Y-57216678D01*
X194999166Y-57169059D01*
X194903928Y-57121440D01*
X194713452Y-57073821D01*
X194618214Y-57026202D01*
X194570595Y-56978583D01*
X194522976Y-56883345D01*
X194522976Y-56788107D01*
X194570595Y-56692869D01*
X194618214Y-56645250D01*
X194713452Y-56597630D01*
X194951547Y-56597630D01*
X195094404Y-56645250D01*
X195427738Y-56597630D02*
X195665833Y-57597630D01*
X195856309Y-56883345D01*
X196046785Y-57597630D01*
X196284880Y-56597630D01*
X197094404Y-56930964D02*
X197094404Y-57597630D01*
X196856309Y-56550011D02*
X196618214Y-57264297D01*
X197237261Y-57264297D01*
X197522976Y-56597630D02*
X198189642Y-56597630D01*
X197761071Y-57597630D01*
G04 #@! TO.C,SW46*
X213522976Y-57550011D02*
X213665833Y-57597630D01*
X213903928Y-57597630D01*
X213999166Y-57550011D01*
X214046785Y-57502392D01*
X214094404Y-57407154D01*
X214094404Y-57311916D01*
X214046785Y-57216678D01*
X213999166Y-57169059D01*
X213903928Y-57121440D01*
X213713452Y-57073821D01*
X213618214Y-57026202D01*
X213570595Y-56978583D01*
X213522976Y-56883345D01*
X213522976Y-56788107D01*
X213570595Y-56692869D01*
X213618214Y-56645250D01*
X213713452Y-56597630D01*
X213951547Y-56597630D01*
X214094404Y-56645250D01*
X214427738Y-56597630D02*
X214665833Y-57597630D01*
X214856309Y-56883345D01*
X215046785Y-57597630D01*
X215284880Y-56597630D01*
X216094404Y-56930964D02*
X216094404Y-57597630D01*
X215856309Y-56550011D02*
X215618214Y-57264297D01*
X216237261Y-57264297D01*
X217046785Y-56597630D02*
X216856309Y-56597630D01*
X216761071Y-56645250D01*
X216713452Y-56692869D01*
X216618214Y-56835726D01*
X216570595Y-57026202D01*
X216570595Y-57407154D01*
X216618214Y-57502392D01*
X216665833Y-57550011D01*
X216761071Y-57597630D01*
X216951547Y-57597630D01*
X217046785Y-57550011D01*
X217094404Y-57502392D01*
X217142023Y-57407154D01*
X217142023Y-57169059D01*
X217094404Y-57073821D01*
X217046785Y-57026202D01*
X216951547Y-56978583D01*
X216761071Y-56978583D01*
X216665833Y-57026202D01*
X216618214Y-57073821D01*
X216570595Y-57169059D01*
G04 #@! TO.C,SW45*
X232522976Y-57550011D02*
X232665833Y-57597630D01*
X232903928Y-57597630D01*
X232999166Y-57550011D01*
X233046785Y-57502392D01*
X233094404Y-57407154D01*
X233094404Y-57311916D01*
X233046785Y-57216678D01*
X232999166Y-57169059D01*
X232903928Y-57121440D01*
X232713452Y-57073821D01*
X232618214Y-57026202D01*
X232570595Y-56978583D01*
X232522976Y-56883345D01*
X232522976Y-56788107D01*
X232570595Y-56692869D01*
X232618214Y-56645250D01*
X232713452Y-56597630D01*
X232951547Y-56597630D01*
X233094404Y-56645250D01*
X233427738Y-56597630D02*
X233665833Y-57597630D01*
X233856309Y-56883345D01*
X234046785Y-57597630D01*
X234284880Y-56597630D01*
X235094404Y-56930964D02*
X235094404Y-57597630D01*
X234856309Y-56550011D02*
X234618214Y-57264297D01*
X235237261Y-57264297D01*
X236094404Y-56597630D02*
X235618214Y-56597630D01*
X235570595Y-57073821D01*
X235618214Y-57026202D01*
X235713452Y-56978583D01*
X235951547Y-56978583D01*
X236046785Y-57026202D01*
X236094404Y-57073821D01*
X236142023Y-57169059D01*
X236142023Y-57407154D01*
X236094404Y-57502392D01*
X236046785Y-57550011D01*
X235951547Y-57597630D01*
X235713452Y-57597630D01*
X235618214Y-57550011D01*
X235570595Y-57502392D01*
G04 #@! TO.C,SW44*
X251522976Y-57550011D02*
X251665833Y-57597630D01*
X251903928Y-57597630D01*
X251999166Y-57550011D01*
X252046785Y-57502392D01*
X252094404Y-57407154D01*
X252094404Y-57311916D01*
X252046785Y-57216678D01*
X251999166Y-57169059D01*
X251903928Y-57121440D01*
X251713452Y-57073821D01*
X251618214Y-57026202D01*
X251570595Y-56978583D01*
X251522976Y-56883345D01*
X251522976Y-56788107D01*
X251570595Y-56692869D01*
X251618214Y-56645250D01*
X251713452Y-56597630D01*
X251951547Y-56597630D01*
X252094404Y-56645250D01*
X252427738Y-56597630D02*
X252665833Y-57597630D01*
X252856309Y-56883345D01*
X253046785Y-57597630D01*
X253284880Y-56597630D01*
X254094404Y-56930964D02*
X254094404Y-57597630D01*
X253856309Y-56550011D02*
X253618214Y-57264297D01*
X254237261Y-57264297D01*
X255046785Y-56930964D02*
X255046785Y-57597630D01*
X254808690Y-56550011D02*
X254570595Y-57264297D01*
X255189642Y-57264297D01*
G04 #@! TO.C,SW43*
X270522976Y-57550011D02*
X270665833Y-57597630D01*
X270903928Y-57597630D01*
X270999166Y-57550011D01*
X271046785Y-57502392D01*
X271094404Y-57407154D01*
X271094404Y-57311916D01*
X271046785Y-57216678D01*
X270999166Y-57169059D01*
X270903928Y-57121440D01*
X270713452Y-57073821D01*
X270618214Y-57026202D01*
X270570595Y-56978583D01*
X270522976Y-56883345D01*
X270522976Y-56788107D01*
X270570595Y-56692869D01*
X270618214Y-56645250D01*
X270713452Y-56597630D01*
X270951547Y-56597630D01*
X271094404Y-56645250D01*
X271427738Y-56597630D02*
X271665833Y-57597630D01*
X271856309Y-56883345D01*
X272046785Y-57597630D01*
X272284880Y-56597630D01*
X273094404Y-56930964D02*
X273094404Y-57597630D01*
X272856309Y-56550011D02*
X272618214Y-57264297D01*
X273237261Y-57264297D01*
X273522976Y-56597630D02*
X274142023Y-56597630D01*
X273808690Y-56978583D01*
X273951547Y-56978583D01*
X274046785Y-57026202D01*
X274094404Y-57073821D01*
X274142023Y-57169059D01*
X274142023Y-57407154D01*
X274094404Y-57502392D01*
X274046785Y-57550011D01*
X273951547Y-57597630D01*
X273665833Y-57597630D01*
X273570595Y-57550011D01*
X273522976Y-57502392D01*
G04 #@! TO.C,SW42*
X156522976Y-76550011D02*
X156665833Y-76597630D01*
X156903928Y-76597630D01*
X156999166Y-76550011D01*
X157046785Y-76502392D01*
X157094404Y-76407154D01*
X157094404Y-76311916D01*
X157046785Y-76216678D01*
X156999166Y-76169059D01*
X156903928Y-76121440D01*
X156713452Y-76073821D01*
X156618214Y-76026202D01*
X156570595Y-75978583D01*
X156522976Y-75883345D01*
X156522976Y-75788107D01*
X156570595Y-75692869D01*
X156618214Y-75645250D01*
X156713452Y-75597630D01*
X156951547Y-75597630D01*
X157094404Y-75645250D01*
X157427738Y-75597630D02*
X157665833Y-76597630D01*
X157856309Y-75883345D01*
X158046785Y-76597630D01*
X158284880Y-75597630D01*
X159094404Y-75930964D02*
X159094404Y-76597630D01*
X158856309Y-75550011D02*
X158618214Y-76264297D01*
X159237261Y-76264297D01*
X159570595Y-75692869D02*
X159618214Y-75645250D01*
X159713452Y-75597630D01*
X159951547Y-75597630D01*
X160046785Y-75645250D01*
X160094404Y-75692869D01*
X160142023Y-75788107D01*
X160142023Y-75883345D01*
X160094404Y-76026202D01*
X159522976Y-76597630D01*
X160142023Y-76597630D01*
G04 #@! TO.C,SW41*
X175522976Y-76550011D02*
X175665833Y-76597630D01*
X175903928Y-76597630D01*
X175999166Y-76550011D01*
X176046785Y-76502392D01*
X176094404Y-76407154D01*
X176094404Y-76311916D01*
X176046785Y-76216678D01*
X175999166Y-76169059D01*
X175903928Y-76121440D01*
X175713452Y-76073821D01*
X175618214Y-76026202D01*
X175570595Y-75978583D01*
X175522976Y-75883345D01*
X175522976Y-75788107D01*
X175570595Y-75692869D01*
X175618214Y-75645250D01*
X175713452Y-75597630D01*
X175951547Y-75597630D01*
X176094404Y-75645250D01*
X176427738Y-75597630D02*
X176665833Y-76597630D01*
X176856309Y-75883345D01*
X177046785Y-76597630D01*
X177284880Y-75597630D01*
X178094404Y-75930964D02*
X178094404Y-76597630D01*
X177856309Y-75550011D02*
X177618214Y-76264297D01*
X178237261Y-76264297D01*
X179142023Y-76597630D02*
X178570595Y-76597630D01*
X178856309Y-76597630D02*
X178856309Y-75597630D01*
X178761071Y-75740488D01*
X178665833Y-75835726D01*
X178570595Y-75883345D01*
G04 #@! TO.C,SW40*
X194522976Y-76550011D02*
X194665833Y-76597630D01*
X194903928Y-76597630D01*
X194999166Y-76550011D01*
X195046785Y-76502392D01*
X195094404Y-76407154D01*
X195094404Y-76311916D01*
X195046785Y-76216678D01*
X194999166Y-76169059D01*
X194903928Y-76121440D01*
X194713452Y-76073821D01*
X194618214Y-76026202D01*
X194570595Y-75978583D01*
X194522976Y-75883345D01*
X194522976Y-75788107D01*
X194570595Y-75692869D01*
X194618214Y-75645250D01*
X194713452Y-75597630D01*
X194951547Y-75597630D01*
X195094404Y-75645250D01*
X195427738Y-75597630D02*
X195665833Y-76597630D01*
X195856309Y-75883345D01*
X196046785Y-76597630D01*
X196284880Y-75597630D01*
X197094404Y-75930964D02*
X197094404Y-76597630D01*
X196856309Y-75550011D02*
X196618214Y-76264297D01*
X197237261Y-76264297D01*
X197808690Y-75597630D02*
X197903928Y-75597630D01*
X197999166Y-75645250D01*
X198046785Y-75692869D01*
X198094404Y-75788107D01*
X198142023Y-75978583D01*
X198142023Y-76216678D01*
X198094404Y-76407154D01*
X198046785Y-76502392D01*
X197999166Y-76550011D01*
X197903928Y-76597630D01*
X197808690Y-76597630D01*
X197713452Y-76550011D01*
X197665833Y-76502392D01*
X197618214Y-76407154D01*
X197570595Y-76216678D01*
X197570595Y-75978583D01*
X197618214Y-75788107D01*
X197665833Y-75692869D01*
X197713452Y-75645250D01*
X197808690Y-75597630D01*
G04 #@! TO.C,SW39*
X213522976Y-76550011D02*
X213665833Y-76597630D01*
X213903928Y-76597630D01*
X213999166Y-76550011D01*
X214046785Y-76502392D01*
X214094404Y-76407154D01*
X214094404Y-76311916D01*
X214046785Y-76216678D01*
X213999166Y-76169059D01*
X213903928Y-76121440D01*
X213713452Y-76073821D01*
X213618214Y-76026202D01*
X213570595Y-75978583D01*
X213522976Y-75883345D01*
X213522976Y-75788107D01*
X213570595Y-75692869D01*
X213618214Y-75645250D01*
X213713452Y-75597630D01*
X213951547Y-75597630D01*
X214094404Y-75645250D01*
X214427738Y-75597630D02*
X214665833Y-76597630D01*
X214856309Y-75883345D01*
X215046785Y-76597630D01*
X215284880Y-75597630D01*
X215570595Y-75597630D02*
X216189642Y-75597630D01*
X215856309Y-75978583D01*
X215999166Y-75978583D01*
X216094404Y-76026202D01*
X216142023Y-76073821D01*
X216189642Y-76169059D01*
X216189642Y-76407154D01*
X216142023Y-76502392D01*
X216094404Y-76550011D01*
X215999166Y-76597630D01*
X215713452Y-76597630D01*
X215618214Y-76550011D01*
X215570595Y-76502392D01*
X216665833Y-76597630D02*
X216856309Y-76597630D01*
X216951547Y-76550011D01*
X216999166Y-76502392D01*
X217094404Y-76359535D01*
X217142023Y-76169059D01*
X217142023Y-75788107D01*
X217094404Y-75692869D01*
X217046785Y-75645250D01*
X216951547Y-75597630D01*
X216761071Y-75597630D01*
X216665833Y-75645250D01*
X216618214Y-75692869D01*
X216570595Y-75788107D01*
X216570595Y-76026202D01*
X216618214Y-76121440D01*
X216665833Y-76169059D01*
X216761071Y-76216678D01*
X216951547Y-76216678D01*
X217046785Y-76169059D01*
X217094404Y-76121440D01*
X217142023Y-76026202D01*
G04 #@! TO.C,SW38*
X232522976Y-76550011D02*
X232665833Y-76597630D01*
X232903928Y-76597630D01*
X232999166Y-76550011D01*
X233046785Y-76502392D01*
X233094404Y-76407154D01*
X233094404Y-76311916D01*
X233046785Y-76216678D01*
X232999166Y-76169059D01*
X232903928Y-76121440D01*
X232713452Y-76073821D01*
X232618214Y-76026202D01*
X232570595Y-75978583D01*
X232522976Y-75883345D01*
X232522976Y-75788107D01*
X232570595Y-75692869D01*
X232618214Y-75645250D01*
X232713452Y-75597630D01*
X232951547Y-75597630D01*
X233094404Y-75645250D01*
X233427738Y-75597630D02*
X233665833Y-76597630D01*
X233856309Y-75883345D01*
X234046785Y-76597630D01*
X234284880Y-75597630D01*
X234570595Y-75597630D02*
X235189642Y-75597630D01*
X234856309Y-75978583D01*
X234999166Y-75978583D01*
X235094404Y-76026202D01*
X235142023Y-76073821D01*
X235189642Y-76169059D01*
X235189642Y-76407154D01*
X235142023Y-76502392D01*
X235094404Y-76550011D01*
X234999166Y-76597630D01*
X234713452Y-76597630D01*
X234618214Y-76550011D01*
X234570595Y-76502392D01*
X235761071Y-76026202D02*
X235665833Y-75978583D01*
X235618214Y-75930964D01*
X235570595Y-75835726D01*
X235570595Y-75788107D01*
X235618214Y-75692869D01*
X235665833Y-75645250D01*
X235761071Y-75597630D01*
X235951547Y-75597630D01*
X236046785Y-75645250D01*
X236094404Y-75692869D01*
X236142023Y-75788107D01*
X236142023Y-75835726D01*
X236094404Y-75930964D01*
X236046785Y-75978583D01*
X235951547Y-76026202D01*
X235761071Y-76026202D01*
X235665833Y-76073821D01*
X235618214Y-76121440D01*
X235570595Y-76216678D01*
X235570595Y-76407154D01*
X235618214Y-76502392D01*
X235665833Y-76550011D01*
X235761071Y-76597630D01*
X235951547Y-76597630D01*
X236046785Y-76550011D01*
X236094404Y-76502392D01*
X236142023Y-76407154D01*
X236142023Y-76216678D01*
X236094404Y-76121440D01*
X236046785Y-76073821D01*
X235951547Y-76026202D01*
G04 #@! TO.C,SW37*
X251522976Y-76550011D02*
X251665833Y-76597630D01*
X251903928Y-76597630D01*
X251999166Y-76550011D01*
X252046785Y-76502392D01*
X252094404Y-76407154D01*
X252094404Y-76311916D01*
X252046785Y-76216678D01*
X251999166Y-76169059D01*
X251903928Y-76121440D01*
X251713452Y-76073821D01*
X251618214Y-76026202D01*
X251570595Y-75978583D01*
X251522976Y-75883345D01*
X251522976Y-75788107D01*
X251570595Y-75692869D01*
X251618214Y-75645250D01*
X251713452Y-75597630D01*
X251951547Y-75597630D01*
X252094404Y-75645250D01*
X252427738Y-75597630D02*
X252665833Y-76597630D01*
X252856309Y-75883345D01*
X253046785Y-76597630D01*
X253284880Y-75597630D01*
X253570595Y-75597630D02*
X254189642Y-75597630D01*
X253856309Y-75978583D01*
X253999166Y-75978583D01*
X254094404Y-76026202D01*
X254142023Y-76073821D01*
X254189642Y-76169059D01*
X254189642Y-76407154D01*
X254142023Y-76502392D01*
X254094404Y-76550011D01*
X253999166Y-76597630D01*
X253713452Y-76597630D01*
X253618214Y-76550011D01*
X253570595Y-76502392D01*
X254522976Y-75597630D02*
X255189642Y-75597630D01*
X254761071Y-76597630D01*
G04 #@! TO.C,SW36*
X270522976Y-76550011D02*
X270665833Y-76597630D01*
X270903928Y-76597630D01*
X270999166Y-76550011D01*
X271046785Y-76502392D01*
X271094404Y-76407154D01*
X271094404Y-76311916D01*
X271046785Y-76216678D01*
X270999166Y-76169059D01*
X270903928Y-76121440D01*
X270713452Y-76073821D01*
X270618214Y-76026202D01*
X270570595Y-75978583D01*
X270522976Y-75883345D01*
X270522976Y-75788107D01*
X270570595Y-75692869D01*
X270618214Y-75645250D01*
X270713452Y-75597630D01*
X270951547Y-75597630D01*
X271094404Y-75645250D01*
X271427738Y-75597630D02*
X271665833Y-76597630D01*
X271856309Y-75883345D01*
X272046785Y-76597630D01*
X272284880Y-75597630D01*
X272570595Y-75597630D02*
X273189642Y-75597630D01*
X272856309Y-75978583D01*
X272999166Y-75978583D01*
X273094404Y-76026202D01*
X273142023Y-76073821D01*
X273189642Y-76169059D01*
X273189642Y-76407154D01*
X273142023Y-76502392D01*
X273094404Y-76550011D01*
X272999166Y-76597630D01*
X272713452Y-76597630D01*
X272618214Y-76550011D01*
X272570595Y-76502392D01*
X274046785Y-75597630D02*
X273856309Y-75597630D01*
X273761071Y-75645250D01*
X273713452Y-75692869D01*
X273618214Y-75835726D01*
X273570595Y-76026202D01*
X273570595Y-76407154D01*
X273618214Y-76502392D01*
X273665833Y-76550011D01*
X273761071Y-76597630D01*
X273951547Y-76597630D01*
X274046785Y-76550011D01*
X274094404Y-76502392D01*
X274142023Y-76407154D01*
X274142023Y-76169059D01*
X274094404Y-76073821D01*
X274046785Y-76026202D01*
X273951547Y-75978583D01*
X273761071Y-75978583D01*
X273665833Y-76026202D01*
X273618214Y-76073821D01*
X273570595Y-76169059D01*
G04 #@! TO.C,SW35*
X156522976Y-100300011D02*
X156665833Y-100347630D01*
X156903928Y-100347630D01*
X156999166Y-100300011D01*
X157046785Y-100252392D01*
X157094404Y-100157154D01*
X157094404Y-100061916D01*
X157046785Y-99966678D01*
X156999166Y-99919059D01*
X156903928Y-99871440D01*
X156713452Y-99823821D01*
X156618214Y-99776202D01*
X156570595Y-99728583D01*
X156522976Y-99633345D01*
X156522976Y-99538107D01*
X156570595Y-99442869D01*
X156618214Y-99395250D01*
X156713452Y-99347630D01*
X156951547Y-99347630D01*
X157094404Y-99395250D01*
X157427738Y-99347630D02*
X157665833Y-100347630D01*
X157856309Y-99633345D01*
X158046785Y-100347630D01*
X158284880Y-99347630D01*
X158570595Y-99347630D02*
X159189642Y-99347630D01*
X158856309Y-99728583D01*
X158999166Y-99728583D01*
X159094404Y-99776202D01*
X159142023Y-99823821D01*
X159189642Y-99919059D01*
X159189642Y-100157154D01*
X159142023Y-100252392D01*
X159094404Y-100300011D01*
X158999166Y-100347630D01*
X158713452Y-100347630D01*
X158618214Y-100300011D01*
X158570595Y-100252392D01*
X160094404Y-99347630D02*
X159618214Y-99347630D01*
X159570595Y-99823821D01*
X159618214Y-99776202D01*
X159713452Y-99728583D01*
X159951547Y-99728583D01*
X160046785Y-99776202D01*
X160094404Y-99823821D01*
X160142023Y-99919059D01*
X160142023Y-100157154D01*
X160094404Y-100252392D01*
X160046785Y-100300011D01*
X159951547Y-100347630D01*
X159713452Y-100347630D01*
X159618214Y-100300011D01*
X159570595Y-100252392D01*
G04 #@! TO.C,SW34*
X175522976Y-100300011D02*
X175665833Y-100347630D01*
X175903928Y-100347630D01*
X175999166Y-100300011D01*
X176046785Y-100252392D01*
X176094404Y-100157154D01*
X176094404Y-100061916D01*
X176046785Y-99966678D01*
X175999166Y-99919059D01*
X175903928Y-99871440D01*
X175713452Y-99823821D01*
X175618214Y-99776202D01*
X175570595Y-99728583D01*
X175522976Y-99633345D01*
X175522976Y-99538107D01*
X175570595Y-99442869D01*
X175618214Y-99395250D01*
X175713452Y-99347630D01*
X175951547Y-99347630D01*
X176094404Y-99395250D01*
X176427738Y-99347630D02*
X176665833Y-100347630D01*
X176856309Y-99633345D01*
X177046785Y-100347630D01*
X177284880Y-99347630D01*
X177570595Y-99347630D02*
X178189642Y-99347630D01*
X177856309Y-99728583D01*
X177999166Y-99728583D01*
X178094404Y-99776202D01*
X178142023Y-99823821D01*
X178189642Y-99919059D01*
X178189642Y-100157154D01*
X178142023Y-100252392D01*
X178094404Y-100300011D01*
X177999166Y-100347630D01*
X177713452Y-100347630D01*
X177618214Y-100300011D01*
X177570595Y-100252392D01*
X179046785Y-99680964D02*
X179046785Y-100347630D01*
X178808690Y-99300011D02*
X178570595Y-100014297D01*
X179189642Y-100014297D01*
G04 #@! TO.C,SW33*
X194522976Y-100300011D02*
X194665833Y-100347630D01*
X194903928Y-100347630D01*
X194999166Y-100300011D01*
X195046785Y-100252392D01*
X195094404Y-100157154D01*
X195094404Y-100061916D01*
X195046785Y-99966678D01*
X194999166Y-99919059D01*
X194903928Y-99871440D01*
X194713452Y-99823821D01*
X194618214Y-99776202D01*
X194570595Y-99728583D01*
X194522976Y-99633345D01*
X194522976Y-99538107D01*
X194570595Y-99442869D01*
X194618214Y-99395250D01*
X194713452Y-99347630D01*
X194951547Y-99347630D01*
X195094404Y-99395250D01*
X195427738Y-99347630D02*
X195665833Y-100347630D01*
X195856309Y-99633345D01*
X196046785Y-100347630D01*
X196284880Y-99347630D01*
X196570595Y-99347630D02*
X197189642Y-99347630D01*
X196856309Y-99728583D01*
X196999166Y-99728583D01*
X197094404Y-99776202D01*
X197142023Y-99823821D01*
X197189642Y-99919059D01*
X197189642Y-100157154D01*
X197142023Y-100252392D01*
X197094404Y-100300011D01*
X196999166Y-100347630D01*
X196713452Y-100347630D01*
X196618214Y-100300011D01*
X196570595Y-100252392D01*
X197522976Y-99347630D02*
X198142023Y-99347630D01*
X197808690Y-99728583D01*
X197951547Y-99728583D01*
X198046785Y-99776202D01*
X198094404Y-99823821D01*
X198142023Y-99919059D01*
X198142023Y-100157154D01*
X198094404Y-100252392D01*
X198046785Y-100300011D01*
X197951547Y-100347630D01*
X197665833Y-100347630D01*
X197570595Y-100300011D01*
X197522976Y-100252392D01*
G04 #@! TO.C,SW32*
X213522976Y-95550011D02*
X213665833Y-95597630D01*
X213903928Y-95597630D01*
X213999166Y-95550011D01*
X214046785Y-95502392D01*
X214094404Y-95407154D01*
X214094404Y-95311916D01*
X214046785Y-95216678D01*
X213999166Y-95169059D01*
X213903928Y-95121440D01*
X213713452Y-95073821D01*
X213618214Y-95026202D01*
X213570595Y-94978583D01*
X213522976Y-94883345D01*
X213522976Y-94788107D01*
X213570595Y-94692869D01*
X213618214Y-94645250D01*
X213713452Y-94597630D01*
X213951547Y-94597630D01*
X214094404Y-94645250D01*
X214427738Y-94597630D02*
X214665833Y-95597630D01*
X214856309Y-94883345D01*
X215046785Y-95597630D01*
X215284880Y-94597630D01*
X215570595Y-94597630D02*
X216189642Y-94597630D01*
X215856309Y-94978583D01*
X215999166Y-94978583D01*
X216094404Y-95026202D01*
X216142023Y-95073821D01*
X216189642Y-95169059D01*
X216189642Y-95407154D01*
X216142023Y-95502392D01*
X216094404Y-95550011D01*
X215999166Y-95597630D01*
X215713452Y-95597630D01*
X215618214Y-95550011D01*
X215570595Y-95502392D01*
X216570595Y-94692869D02*
X216618214Y-94645250D01*
X216713452Y-94597630D01*
X216951547Y-94597630D01*
X217046785Y-94645250D01*
X217094404Y-94692869D01*
X217142023Y-94788107D01*
X217142023Y-94883345D01*
X217094404Y-95026202D01*
X216522976Y-95597630D01*
X217142023Y-95597630D01*
G04 #@! TO.C,SW31*
X232522976Y-95550011D02*
X232665833Y-95597630D01*
X232903928Y-95597630D01*
X232999166Y-95550011D01*
X233046785Y-95502392D01*
X233094404Y-95407154D01*
X233094404Y-95311916D01*
X233046785Y-95216678D01*
X232999166Y-95169059D01*
X232903928Y-95121440D01*
X232713452Y-95073821D01*
X232618214Y-95026202D01*
X232570595Y-94978583D01*
X232522976Y-94883345D01*
X232522976Y-94788107D01*
X232570595Y-94692869D01*
X232618214Y-94645250D01*
X232713452Y-94597630D01*
X232951547Y-94597630D01*
X233094404Y-94645250D01*
X233427738Y-94597630D02*
X233665833Y-95597630D01*
X233856309Y-94883345D01*
X234046785Y-95597630D01*
X234284880Y-94597630D01*
X234570595Y-94597630D02*
X235189642Y-94597630D01*
X234856309Y-94978583D01*
X234999166Y-94978583D01*
X235094404Y-95026202D01*
X235142023Y-95073821D01*
X235189642Y-95169059D01*
X235189642Y-95407154D01*
X235142023Y-95502392D01*
X235094404Y-95550011D01*
X234999166Y-95597630D01*
X234713452Y-95597630D01*
X234618214Y-95550011D01*
X234570595Y-95502392D01*
X236142023Y-95597630D02*
X235570595Y-95597630D01*
X235856309Y-95597630D02*
X235856309Y-94597630D01*
X235761071Y-94740488D01*
X235665833Y-94835726D01*
X235570595Y-94883345D01*
G04 #@! TO.C,SW30*
X251522976Y-95550011D02*
X251665833Y-95597630D01*
X251903928Y-95597630D01*
X251999166Y-95550011D01*
X252046785Y-95502392D01*
X252094404Y-95407154D01*
X252094404Y-95311916D01*
X252046785Y-95216678D01*
X251999166Y-95169059D01*
X251903928Y-95121440D01*
X251713452Y-95073821D01*
X251618214Y-95026202D01*
X251570595Y-94978583D01*
X251522976Y-94883345D01*
X251522976Y-94788107D01*
X251570595Y-94692869D01*
X251618214Y-94645250D01*
X251713452Y-94597630D01*
X251951547Y-94597630D01*
X252094404Y-94645250D01*
X252427738Y-94597630D02*
X252665833Y-95597630D01*
X252856309Y-94883345D01*
X253046785Y-95597630D01*
X253284880Y-94597630D01*
X253570595Y-94597630D02*
X254189642Y-94597630D01*
X253856309Y-94978583D01*
X253999166Y-94978583D01*
X254094404Y-95026202D01*
X254142023Y-95073821D01*
X254189642Y-95169059D01*
X254189642Y-95407154D01*
X254142023Y-95502392D01*
X254094404Y-95550011D01*
X253999166Y-95597630D01*
X253713452Y-95597630D01*
X253618214Y-95550011D01*
X253570595Y-95502392D01*
X254808690Y-94597630D02*
X254903928Y-94597630D01*
X254999166Y-94645250D01*
X255046785Y-94692869D01*
X255094404Y-94788107D01*
X255142023Y-94978583D01*
X255142023Y-95216678D01*
X255094404Y-95407154D01*
X255046785Y-95502392D01*
X254999166Y-95550011D01*
X254903928Y-95597630D01*
X254808690Y-95597630D01*
X254713452Y-95550011D01*
X254665833Y-95502392D01*
X254618214Y-95407154D01*
X254570595Y-95216678D01*
X254570595Y-94978583D01*
X254618214Y-94788107D01*
X254665833Y-94692869D01*
X254713452Y-94645250D01*
X254808690Y-94597630D01*
G04 #@! TO.C,SW29*
X270522976Y-95550011D02*
X270665833Y-95597630D01*
X270903928Y-95597630D01*
X270999166Y-95550011D01*
X271046785Y-95502392D01*
X271094404Y-95407154D01*
X271094404Y-95311916D01*
X271046785Y-95216678D01*
X270999166Y-95169059D01*
X270903928Y-95121440D01*
X270713452Y-95073821D01*
X270618214Y-95026202D01*
X270570595Y-94978583D01*
X270522976Y-94883345D01*
X270522976Y-94788107D01*
X270570595Y-94692869D01*
X270618214Y-94645250D01*
X270713452Y-94597630D01*
X270951547Y-94597630D01*
X271094404Y-94645250D01*
X271427738Y-94597630D02*
X271665833Y-95597630D01*
X271856309Y-94883345D01*
X272046785Y-95597630D01*
X272284880Y-94597630D01*
X272618214Y-94692869D02*
X272665833Y-94645250D01*
X272761071Y-94597630D01*
X272999166Y-94597630D01*
X273094404Y-94645250D01*
X273142023Y-94692869D01*
X273189642Y-94788107D01*
X273189642Y-94883345D01*
X273142023Y-95026202D01*
X272570595Y-95597630D01*
X273189642Y-95597630D01*
X273665833Y-95597630D02*
X273856309Y-95597630D01*
X273951547Y-95550011D01*
X273999166Y-95502392D01*
X274094404Y-95359535D01*
X274142023Y-95169059D01*
X274142023Y-94788107D01*
X274094404Y-94692869D01*
X274046785Y-94645250D01*
X273951547Y-94597630D01*
X273761071Y-94597630D01*
X273665833Y-94645250D01*
X273618214Y-94692869D01*
X273570595Y-94788107D01*
X273570595Y-95026202D01*
X273618214Y-95121440D01*
X273665833Y-95169059D01*
X273761071Y-95216678D01*
X273951547Y-95216678D01*
X274046785Y-95169059D01*
X274094404Y-95121440D01*
X274142023Y-95026202D01*
G04 #@! TO.C,SW28*
X137522976Y-100300011D02*
X137665833Y-100347630D01*
X137903928Y-100347630D01*
X137999166Y-100300011D01*
X138046785Y-100252392D01*
X138094404Y-100157154D01*
X138094404Y-100061916D01*
X138046785Y-99966678D01*
X137999166Y-99919059D01*
X137903928Y-99871440D01*
X137713452Y-99823821D01*
X137618214Y-99776202D01*
X137570595Y-99728583D01*
X137522976Y-99633345D01*
X137522976Y-99538107D01*
X137570595Y-99442869D01*
X137618214Y-99395250D01*
X137713452Y-99347630D01*
X137951547Y-99347630D01*
X138094404Y-99395250D01*
X138427738Y-99347630D02*
X138665833Y-100347630D01*
X138856309Y-99633345D01*
X139046785Y-100347630D01*
X139284880Y-99347630D01*
X139618214Y-99442869D02*
X139665833Y-99395250D01*
X139761071Y-99347630D01*
X139999166Y-99347630D01*
X140094404Y-99395250D01*
X140142023Y-99442869D01*
X140189642Y-99538107D01*
X140189642Y-99633345D01*
X140142023Y-99776202D01*
X139570595Y-100347630D01*
X140189642Y-100347630D01*
X140761071Y-99776202D02*
X140665833Y-99728583D01*
X140618214Y-99680964D01*
X140570595Y-99585726D01*
X140570595Y-99538107D01*
X140618214Y-99442869D01*
X140665833Y-99395250D01*
X140761071Y-99347630D01*
X140951547Y-99347630D01*
X141046785Y-99395250D01*
X141094404Y-99442869D01*
X141142023Y-99538107D01*
X141142023Y-99585726D01*
X141094404Y-99680964D01*
X141046785Y-99728583D01*
X140951547Y-99776202D01*
X140761071Y-99776202D01*
X140665833Y-99823821D01*
X140618214Y-99871440D01*
X140570595Y-99966678D01*
X140570595Y-100157154D01*
X140618214Y-100252392D01*
X140665833Y-100300011D01*
X140761071Y-100347630D01*
X140951547Y-100347630D01*
X141046785Y-100300011D01*
X141094404Y-100252392D01*
X141142023Y-100157154D01*
X141142023Y-99966678D01*
X141094404Y-99871440D01*
X141046785Y-99823821D01*
X140951547Y-99776202D01*
G04 #@! TO.C,SW27*
X118522976Y-100300011D02*
X118665833Y-100347630D01*
X118903928Y-100347630D01*
X118999166Y-100300011D01*
X119046785Y-100252392D01*
X119094404Y-100157154D01*
X119094404Y-100061916D01*
X119046785Y-99966678D01*
X118999166Y-99919059D01*
X118903928Y-99871440D01*
X118713452Y-99823821D01*
X118618214Y-99776202D01*
X118570595Y-99728583D01*
X118522976Y-99633345D01*
X118522976Y-99538107D01*
X118570595Y-99442869D01*
X118618214Y-99395250D01*
X118713452Y-99347630D01*
X118951547Y-99347630D01*
X119094404Y-99395250D01*
X119427738Y-99347630D02*
X119665833Y-100347630D01*
X119856309Y-99633345D01*
X120046785Y-100347630D01*
X120284880Y-99347630D01*
X120618214Y-99442869D02*
X120665833Y-99395250D01*
X120761071Y-99347630D01*
X120999166Y-99347630D01*
X121094404Y-99395250D01*
X121142023Y-99442869D01*
X121189642Y-99538107D01*
X121189642Y-99633345D01*
X121142023Y-99776202D01*
X120570595Y-100347630D01*
X121189642Y-100347630D01*
X121522976Y-99347630D02*
X122189642Y-99347630D01*
X121761071Y-100347630D01*
G04 #@! TO.C,SW26*
X99522976Y-100300011D02*
X99665833Y-100347630D01*
X99903928Y-100347630D01*
X99999166Y-100300011D01*
X100046785Y-100252392D01*
X100094404Y-100157154D01*
X100094404Y-100061916D01*
X100046785Y-99966678D01*
X99999166Y-99919059D01*
X99903928Y-99871440D01*
X99713452Y-99823821D01*
X99618214Y-99776202D01*
X99570595Y-99728583D01*
X99522976Y-99633345D01*
X99522976Y-99538107D01*
X99570595Y-99442869D01*
X99618214Y-99395250D01*
X99713452Y-99347630D01*
X99951547Y-99347630D01*
X100094404Y-99395250D01*
X100427738Y-99347630D02*
X100665833Y-100347630D01*
X100856309Y-99633345D01*
X101046785Y-100347630D01*
X101284880Y-99347630D01*
X101618214Y-99442869D02*
X101665833Y-99395250D01*
X101761071Y-99347630D01*
X101999166Y-99347630D01*
X102094404Y-99395250D01*
X102142023Y-99442869D01*
X102189642Y-99538107D01*
X102189642Y-99633345D01*
X102142023Y-99776202D01*
X101570595Y-100347630D01*
X102189642Y-100347630D01*
X103046785Y-99347630D02*
X102856309Y-99347630D01*
X102761071Y-99395250D01*
X102713452Y-99442869D01*
X102618214Y-99585726D01*
X102570595Y-99776202D01*
X102570595Y-100157154D01*
X102618214Y-100252392D01*
X102665833Y-100300011D01*
X102761071Y-100347630D01*
X102951547Y-100347630D01*
X103046785Y-100300011D01*
X103094404Y-100252392D01*
X103142023Y-100157154D01*
X103142023Y-99919059D01*
X103094404Y-99823821D01*
X103046785Y-99776202D01*
X102951547Y-99728583D01*
X102761071Y-99728583D01*
X102665833Y-99776202D01*
X102618214Y-99823821D01*
X102570595Y-99919059D01*
G04 #@! TO.C,SW25*
X80522976Y-95550011D02*
X80665833Y-95597630D01*
X80903928Y-95597630D01*
X80999166Y-95550011D01*
X81046785Y-95502392D01*
X81094404Y-95407154D01*
X81094404Y-95311916D01*
X81046785Y-95216678D01*
X80999166Y-95169059D01*
X80903928Y-95121440D01*
X80713452Y-95073821D01*
X80618214Y-95026202D01*
X80570595Y-94978583D01*
X80522976Y-94883345D01*
X80522976Y-94788107D01*
X80570595Y-94692869D01*
X80618214Y-94645250D01*
X80713452Y-94597630D01*
X80951547Y-94597630D01*
X81094404Y-94645250D01*
X81427738Y-94597630D02*
X81665833Y-95597630D01*
X81856309Y-94883345D01*
X82046785Y-95597630D01*
X82284880Y-94597630D01*
X82618214Y-94692869D02*
X82665833Y-94645250D01*
X82761071Y-94597630D01*
X82999166Y-94597630D01*
X83094404Y-94645250D01*
X83142023Y-94692869D01*
X83189642Y-94788107D01*
X83189642Y-94883345D01*
X83142023Y-95026202D01*
X82570595Y-95597630D01*
X83189642Y-95597630D01*
X84094404Y-94597630D02*
X83618214Y-94597630D01*
X83570595Y-95073821D01*
X83618214Y-95026202D01*
X83713452Y-94978583D01*
X83951547Y-94978583D01*
X84046785Y-95026202D01*
X84094404Y-95073821D01*
X84142023Y-95169059D01*
X84142023Y-95407154D01*
X84094404Y-95502392D01*
X84046785Y-95550011D01*
X83951547Y-95597630D01*
X83713452Y-95597630D01*
X83618214Y-95550011D01*
X83570595Y-95502392D01*
G04 #@! TO.C,SW24*
X61522976Y-95550011D02*
X61665833Y-95597630D01*
X61903928Y-95597630D01*
X61999166Y-95550011D01*
X62046785Y-95502392D01*
X62094404Y-95407154D01*
X62094404Y-95311916D01*
X62046785Y-95216678D01*
X61999166Y-95169059D01*
X61903928Y-95121440D01*
X61713452Y-95073821D01*
X61618214Y-95026202D01*
X61570595Y-94978583D01*
X61522976Y-94883345D01*
X61522976Y-94788107D01*
X61570595Y-94692869D01*
X61618214Y-94645250D01*
X61713452Y-94597630D01*
X61951547Y-94597630D01*
X62094404Y-94645250D01*
X62427738Y-94597630D02*
X62665833Y-95597630D01*
X62856309Y-94883345D01*
X63046785Y-95597630D01*
X63284880Y-94597630D01*
X63618214Y-94692869D02*
X63665833Y-94645250D01*
X63761071Y-94597630D01*
X63999166Y-94597630D01*
X64094404Y-94645250D01*
X64142023Y-94692869D01*
X64189642Y-94788107D01*
X64189642Y-94883345D01*
X64142023Y-95026202D01*
X63570595Y-95597630D01*
X64189642Y-95597630D01*
X65046785Y-94930964D02*
X65046785Y-95597630D01*
X64808690Y-94550011D02*
X64570595Y-95264297D01*
X65189642Y-95264297D01*
G04 #@! TO.C,SW23*
X42522976Y-95550011D02*
X42665833Y-95597630D01*
X42903928Y-95597630D01*
X42999166Y-95550011D01*
X43046785Y-95502392D01*
X43094404Y-95407154D01*
X43094404Y-95311916D01*
X43046785Y-95216678D01*
X42999166Y-95169059D01*
X42903928Y-95121440D01*
X42713452Y-95073821D01*
X42618214Y-95026202D01*
X42570595Y-94978583D01*
X42522976Y-94883345D01*
X42522976Y-94788107D01*
X42570595Y-94692869D01*
X42618214Y-94645250D01*
X42713452Y-94597630D01*
X42951547Y-94597630D01*
X43094404Y-94645250D01*
X43427738Y-94597630D02*
X43665833Y-95597630D01*
X43856309Y-94883345D01*
X44046785Y-95597630D01*
X44284880Y-94597630D01*
X44618214Y-94692869D02*
X44665833Y-94645250D01*
X44761071Y-94597630D01*
X44999166Y-94597630D01*
X45094404Y-94645250D01*
X45142023Y-94692869D01*
X45189642Y-94788107D01*
X45189642Y-94883345D01*
X45142023Y-95026202D01*
X44570595Y-95597630D01*
X45189642Y-95597630D01*
X45522976Y-94597630D02*
X46142023Y-94597630D01*
X45808690Y-94978583D01*
X45951547Y-94978583D01*
X46046785Y-95026202D01*
X46094404Y-95073821D01*
X46142023Y-95169059D01*
X46142023Y-95407154D01*
X46094404Y-95502392D01*
X46046785Y-95550011D01*
X45951547Y-95597630D01*
X45665833Y-95597630D01*
X45570595Y-95550011D01*
X45522976Y-95502392D01*
G04 #@! TO.C,SW22*
X23522976Y-95550011D02*
X23665833Y-95597630D01*
X23903928Y-95597630D01*
X23999166Y-95550011D01*
X24046785Y-95502392D01*
X24094404Y-95407154D01*
X24094404Y-95311916D01*
X24046785Y-95216678D01*
X23999166Y-95169059D01*
X23903928Y-95121440D01*
X23713452Y-95073821D01*
X23618214Y-95026202D01*
X23570595Y-94978583D01*
X23522976Y-94883345D01*
X23522976Y-94788107D01*
X23570595Y-94692869D01*
X23618214Y-94645250D01*
X23713452Y-94597630D01*
X23951547Y-94597630D01*
X24094404Y-94645250D01*
X24427738Y-94597630D02*
X24665833Y-95597630D01*
X24856309Y-94883345D01*
X25046785Y-95597630D01*
X25284880Y-94597630D01*
X25618214Y-94692869D02*
X25665833Y-94645250D01*
X25761071Y-94597630D01*
X25999166Y-94597630D01*
X26094404Y-94645250D01*
X26142023Y-94692869D01*
X26189642Y-94788107D01*
X26189642Y-94883345D01*
X26142023Y-95026202D01*
X25570595Y-95597630D01*
X26189642Y-95597630D01*
X26570595Y-94692869D02*
X26618214Y-94645250D01*
X26713452Y-94597630D01*
X26951547Y-94597630D01*
X27046785Y-94645250D01*
X27094404Y-94692869D01*
X27142023Y-94788107D01*
X27142023Y-94883345D01*
X27094404Y-95026202D01*
X26522976Y-95597630D01*
X27142023Y-95597630D01*
G04 #@! TO.C,SW21*
X137522976Y-76550011D02*
X137665833Y-76597630D01*
X137903928Y-76597630D01*
X137999166Y-76550011D01*
X138046785Y-76502392D01*
X138094404Y-76407154D01*
X138094404Y-76311916D01*
X138046785Y-76216678D01*
X137999166Y-76169059D01*
X137903928Y-76121440D01*
X137713452Y-76073821D01*
X137618214Y-76026202D01*
X137570595Y-75978583D01*
X137522976Y-75883345D01*
X137522976Y-75788107D01*
X137570595Y-75692869D01*
X137618214Y-75645250D01*
X137713452Y-75597630D01*
X137951547Y-75597630D01*
X138094404Y-75645250D01*
X138427738Y-75597630D02*
X138665833Y-76597630D01*
X138856309Y-75883345D01*
X139046785Y-76597630D01*
X139284880Y-75597630D01*
X139618214Y-75692869D02*
X139665833Y-75645250D01*
X139761071Y-75597630D01*
X139999166Y-75597630D01*
X140094404Y-75645250D01*
X140142023Y-75692869D01*
X140189642Y-75788107D01*
X140189642Y-75883345D01*
X140142023Y-76026202D01*
X139570595Y-76597630D01*
X140189642Y-76597630D01*
X141142023Y-76597630D02*
X140570595Y-76597630D01*
X140856309Y-76597630D02*
X140856309Y-75597630D01*
X140761071Y-75740488D01*
X140665833Y-75835726D01*
X140570595Y-75883345D01*
G04 #@! TO.C,SW20*
X118522976Y-76550011D02*
X118665833Y-76597630D01*
X118903928Y-76597630D01*
X118999166Y-76550011D01*
X119046785Y-76502392D01*
X119094404Y-76407154D01*
X119094404Y-76311916D01*
X119046785Y-76216678D01*
X118999166Y-76169059D01*
X118903928Y-76121440D01*
X118713452Y-76073821D01*
X118618214Y-76026202D01*
X118570595Y-75978583D01*
X118522976Y-75883345D01*
X118522976Y-75788107D01*
X118570595Y-75692869D01*
X118618214Y-75645250D01*
X118713452Y-75597630D01*
X118951547Y-75597630D01*
X119094404Y-75645250D01*
X119427738Y-75597630D02*
X119665833Y-76597630D01*
X119856309Y-75883345D01*
X120046785Y-76597630D01*
X120284880Y-75597630D01*
X120618214Y-75692869D02*
X120665833Y-75645250D01*
X120761071Y-75597630D01*
X120999166Y-75597630D01*
X121094404Y-75645250D01*
X121142023Y-75692869D01*
X121189642Y-75788107D01*
X121189642Y-75883345D01*
X121142023Y-76026202D01*
X120570595Y-76597630D01*
X121189642Y-76597630D01*
X121808690Y-75597630D02*
X121903928Y-75597630D01*
X121999166Y-75645250D01*
X122046785Y-75692869D01*
X122094404Y-75788107D01*
X122142023Y-75978583D01*
X122142023Y-76216678D01*
X122094404Y-76407154D01*
X122046785Y-76502392D01*
X121999166Y-76550011D01*
X121903928Y-76597630D01*
X121808690Y-76597630D01*
X121713452Y-76550011D01*
X121665833Y-76502392D01*
X121618214Y-76407154D01*
X121570595Y-76216678D01*
X121570595Y-75978583D01*
X121618214Y-75788107D01*
X121665833Y-75692869D01*
X121713452Y-75645250D01*
X121808690Y-75597630D01*
G04 #@! TO.C,SW19*
X99522976Y-76550011D02*
X99665833Y-76597630D01*
X99903928Y-76597630D01*
X99999166Y-76550011D01*
X100046785Y-76502392D01*
X100094404Y-76407154D01*
X100094404Y-76311916D01*
X100046785Y-76216678D01*
X99999166Y-76169059D01*
X99903928Y-76121440D01*
X99713452Y-76073821D01*
X99618214Y-76026202D01*
X99570595Y-75978583D01*
X99522976Y-75883345D01*
X99522976Y-75788107D01*
X99570595Y-75692869D01*
X99618214Y-75645250D01*
X99713452Y-75597630D01*
X99951547Y-75597630D01*
X100094404Y-75645250D01*
X100427738Y-75597630D02*
X100665833Y-76597630D01*
X100856309Y-75883345D01*
X101046785Y-76597630D01*
X101284880Y-75597630D01*
X102189642Y-76597630D02*
X101618214Y-76597630D01*
X101903928Y-76597630D02*
X101903928Y-75597630D01*
X101808690Y-75740488D01*
X101713452Y-75835726D01*
X101618214Y-75883345D01*
X102665833Y-76597630D02*
X102856309Y-76597630D01*
X102951547Y-76550011D01*
X102999166Y-76502392D01*
X103094404Y-76359535D01*
X103142023Y-76169059D01*
X103142023Y-75788107D01*
X103094404Y-75692869D01*
X103046785Y-75645250D01*
X102951547Y-75597630D01*
X102761071Y-75597630D01*
X102665833Y-75645250D01*
X102618214Y-75692869D01*
X102570595Y-75788107D01*
X102570595Y-76026202D01*
X102618214Y-76121440D01*
X102665833Y-76169059D01*
X102761071Y-76216678D01*
X102951547Y-76216678D01*
X103046785Y-76169059D01*
X103094404Y-76121440D01*
X103142023Y-76026202D01*
G04 #@! TO.C,SW18*
X80522976Y-76550011D02*
X80665833Y-76597630D01*
X80903928Y-76597630D01*
X80999166Y-76550011D01*
X81046785Y-76502392D01*
X81094404Y-76407154D01*
X81094404Y-76311916D01*
X81046785Y-76216678D01*
X80999166Y-76169059D01*
X80903928Y-76121440D01*
X80713452Y-76073821D01*
X80618214Y-76026202D01*
X80570595Y-75978583D01*
X80522976Y-75883345D01*
X80522976Y-75788107D01*
X80570595Y-75692869D01*
X80618214Y-75645250D01*
X80713452Y-75597630D01*
X80951547Y-75597630D01*
X81094404Y-75645250D01*
X81427738Y-75597630D02*
X81665833Y-76597630D01*
X81856309Y-75883345D01*
X82046785Y-76597630D01*
X82284880Y-75597630D01*
X83189642Y-76597630D02*
X82618214Y-76597630D01*
X82903928Y-76597630D02*
X82903928Y-75597630D01*
X82808690Y-75740488D01*
X82713452Y-75835726D01*
X82618214Y-75883345D01*
X83761071Y-76026202D02*
X83665833Y-75978583D01*
X83618214Y-75930964D01*
X83570595Y-75835726D01*
X83570595Y-75788107D01*
X83618214Y-75692869D01*
X83665833Y-75645250D01*
X83761071Y-75597630D01*
X83951547Y-75597630D01*
X84046785Y-75645250D01*
X84094404Y-75692869D01*
X84142023Y-75788107D01*
X84142023Y-75835726D01*
X84094404Y-75930964D01*
X84046785Y-75978583D01*
X83951547Y-76026202D01*
X83761071Y-76026202D01*
X83665833Y-76073821D01*
X83618214Y-76121440D01*
X83570595Y-76216678D01*
X83570595Y-76407154D01*
X83618214Y-76502392D01*
X83665833Y-76550011D01*
X83761071Y-76597630D01*
X83951547Y-76597630D01*
X84046785Y-76550011D01*
X84094404Y-76502392D01*
X84142023Y-76407154D01*
X84142023Y-76216678D01*
X84094404Y-76121440D01*
X84046785Y-76073821D01*
X83951547Y-76026202D01*
G04 #@! TO.C,SW17*
X61522976Y-76550011D02*
X61665833Y-76597630D01*
X61903928Y-76597630D01*
X61999166Y-76550011D01*
X62046785Y-76502392D01*
X62094404Y-76407154D01*
X62094404Y-76311916D01*
X62046785Y-76216678D01*
X61999166Y-76169059D01*
X61903928Y-76121440D01*
X61713452Y-76073821D01*
X61618214Y-76026202D01*
X61570595Y-75978583D01*
X61522976Y-75883345D01*
X61522976Y-75788107D01*
X61570595Y-75692869D01*
X61618214Y-75645250D01*
X61713452Y-75597630D01*
X61951547Y-75597630D01*
X62094404Y-75645250D01*
X62427738Y-75597630D02*
X62665833Y-76597630D01*
X62856309Y-75883345D01*
X63046785Y-76597630D01*
X63284880Y-75597630D01*
X64189642Y-76597630D02*
X63618214Y-76597630D01*
X63903928Y-76597630D02*
X63903928Y-75597630D01*
X63808690Y-75740488D01*
X63713452Y-75835726D01*
X63618214Y-75883345D01*
X64522976Y-75597630D02*
X65189642Y-75597630D01*
X64761071Y-76597630D01*
G04 #@! TO.C,SW16*
X42522976Y-76550011D02*
X42665833Y-76597630D01*
X42903928Y-76597630D01*
X42999166Y-76550011D01*
X43046785Y-76502392D01*
X43094404Y-76407154D01*
X43094404Y-76311916D01*
X43046785Y-76216678D01*
X42999166Y-76169059D01*
X42903928Y-76121440D01*
X42713452Y-76073821D01*
X42618214Y-76026202D01*
X42570595Y-75978583D01*
X42522976Y-75883345D01*
X42522976Y-75788107D01*
X42570595Y-75692869D01*
X42618214Y-75645250D01*
X42713452Y-75597630D01*
X42951547Y-75597630D01*
X43094404Y-75645250D01*
X43427738Y-75597630D02*
X43665833Y-76597630D01*
X43856309Y-75883345D01*
X44046785Y-76597630D01*
X44284880Y-75597630D01*
X45189642Y-76597630D02*
X44618214Y-76597630D01*
X44903928Y-76597630D02*
X44903928Y-75597630D01*
X44808690Y-75740488D01*
X44713452Y-75835726D01*
X44618214Y-75883345D01*
X46046785Y-75597630D02*
X45856309Y-75597630D01*
X45761071Y-75645250D01*
X45713452Y-75692869D01*
X45618214Y-75835726D01*
X45570595Y-76026202D01*
X45570595Y-76407154D01*
X45618214Y-76502392D01*
X45665833Y-76550011D01*
X45761071Y-76597630D01*
X45951547Y-76597630D01*
X46046785Y-76550011D01*
X46094404Y-76502392D01*
X46142023Y-76407154D01*
X46142023Y-76169059D01*
X46094404Y-76073821D01*
X46046785Y-76026202D01*
X45951547Y-75978583D01*
X45761071Y-75978583D01*
X45665833Y-76026202D01*
X45618214Y-76073821D01*
X45570595Y-76169059D01*
G04 #@! TO.C,SW15*
X23522976Y-76550011D02*
X23665833Y-76597630D01*
X23903928Y-76597630D01*
X23999166Y-76550011D01*
X24046785Y-76502392D01*
X24094404Y-76407154D01*
X24094404Y-76311916D01*
X24046785Y-76216678D01*
X23999166Y-76169059D01*
X23903928Y-76121440D01*
X23713452Y-76073821D01*
X23618214Y-76026202D01*
X23570595Y-75978583D01*
X23522976Y-75883345D01*
X23522976Y-75788107D01*
X23570595Y-75692869D01*
X23618214Y-75645250D01*
X23713452Y-75597630D01*
X23951547Y-75597630D01*
X24094404Y-75645250D01*
X24427738Y-75597630D02*
X24665833Y-76597630D01*
X24856309Y-75883345D01*
X25046785Y-76597630D01*
X25284880Y-75597630D01*
X26189642Y-76597630D02*
X25618214Y-76597630D01*
X25903928Y-76597630D02*
X25903928Y-75597630D01*
X25808690Y-75740488D01*
X25713452Y-75835726D01*
X25618214Y-75883345D01*
X27094404Y-75597630D02*
X26618214Y-75597630D01*
X26570595Y-76073821D01*
X26618214Y-76026202D01*
X26713452Y-75978583D01*
X26951547Y-75978583D01*
X27046785Y-76026202D01*
X27094404Y-76073821D01*
X27142023Y-76169059D01*
X27142023Y-76407154D01*
X27094404Y-76502392D01*
X27046785Y-76550011D01*
X26951547Y-76597630D01*
X26713452Y-76597630D01*
X26618214Y-76550011D01*
X26570595Y-76502392D01*
G04 #@! TO.C,SW14*
X137522976Y-57550011D02*
X137665833Y-57597630D01*
X137903928Y-57597630D01*
X137999166Y-57550011D01*
X138046785Y-57502392D01*
X138094404Y-57407154D01*
X138094404Y-57311916D01*
X138046785Y-57216678D01*
X137999166Y-57169059D01*
X137903928Y-57121440D01*
X137713452Y-57073821D01*
X137618214Y-57026202D01*
X137570595Y-56978583D01*
X137522976Y-56883345D01*
X137522976Y-56788107D01*
X137570595Y-56692869D01*
X137618214Y-56645250D01*
X137713452Y-56597630D01*
X137951547Y-56597630D01*
X138094404Y-56645250D01*
X138427738Y-56597630D02*
X138665833Y-57597630D01*
X138856309Y-56883345D01*
X139046785Y-57597630D01*
X139284880Y-56597630D01*
X140189642Y-57597630D02*
X139618214Y-57597630D01*
X139903928Y-57597630D02*
X139903928Y-56597630D01*
X139808690Y-56740488D01*
X139713452Y-56835726D01*
X139618214Y-56883345D01*
X141046785Y-56930964D02*
X141046785Y-57597630D01*
X140808690Y-56550011D02*
X140570595Y-57264297D01*
X141189642Y-57264297D01*
G04 #@! TO.C,SW13*
X118522976Y-57550011D02*
X118665833Y-57597630D01*
X118903928Y-57597630D01*
X118999166Y-57550011D01*
X119046785Y-57502392D01*
X119094404Y-57407154D01*
X119094404Y-57311916D01*
X119046785Y-57216678D01*
X118999166Y-57169059D01*
X118903928Y-57121440D01*
X118713452Y-57073821D01*
X118618214Y-57026202D01*
X118570595Y-56978583D01*
X118522976Y-56883345D01*
X118522976Y-56788107D01*
X118570595Y-56692869D01*
X118618214Y-56645250D01*
X118713452Y-56597630D01*
X118951547Y-56597630D01*
X119094404Y-56645250D01*
X119427738Y-56597630D02*
X119665833Y-57597630D01*
X119856309Y-56883345D01*
X120046785Y-57597630D01*
X120284880Y-56597630D01*
X121189642Y-57597630D02*
X120618214Y-57597630D01*
X120903928Y-57597630D02*
X120903928Y-56597630D01*
X120808690Y-56740488D01*
X120713452Y-56835726D01*
X120618214Y-56883345D01*
X121522976Y-56597630D02*
X122142023Y-56597630D01*
X121808690Y-56978583D01*
X121951547Y-56978583D01*
X122046785Y-57026202D01*
X122094404Y-57073821D01*
X122142023Y-57169059D01*
X122142023Y-57407154D01*
X122094404Y-57502392D01*
X122046785Y-57550011D01*
X121951547Y-57597630D01*
X121665833Y-57597630D01*
X121570595Y-57550011D01*
X121522976Y-57502392D01*
G04 #@! TO.C,SW12*
X99522976Y-57550011D02*
X99665833Y-57597630D01*
X99903928Y-57597630D01*
X99999166Y-57550011D01*
X100046785Y-57502392D01*
X100094404Y-57407154D01*
X100094404Y-57311916D01*
X100046785Y-57216678D01*
X99999166Y-57169059D01*
X99903928Y-57121440D01*
X99713452Y-57073821D01*
X99618214Y-57026202D01*
X99570595Y-56978583D01*
X99522976Y-56883345D01*
X99522976Y-56788107D01*
X99570595Y-56692869D01*
X99618214Y-56645250D01*
X99713452Y-56597630D01*
X99951547Y-56597630D01*
X100094404Y-56645250D01*
X100427738Y-56597630D02*
X100665833Y-57597630D01*
X100856309Y-56883345D01*
X101046785Y-57597630D01*
X101284880Y-56597630D01*
X102189642Y-57597630D02*
X101618214Y-57597630D01*
X101903928Y-57597630D02*
X101903928Y-56597630D01*
X101808690Y-56740488D01*
X101713452Y-56835726D01*
X101618214Y-56883345D01*
X102570595Y-56692869D02*
X102618214Y-56645250D01*
X102713452Y-56597630D01*
X102951547Y-56597630D01*
X103046785Y-56645250D01*
X103094404Y-56692869D01*
X103142023Y-56788107D01*
X103142023Y-56883345D01*
X103094404Y-57026202D01*
X102522976Y-57597630D01*
X103142023Y-57597630D01*
G04 #@! TO.C,SW11*
X80522976Y-57550011D02*
X80665833Y-57597630D01*
X80903928Y-57597630D01*
X80999166Y-57550011D01*
X81046785Y-57502392D01*
X81094404Y-57407154D01*
X81094404Y-57311916D01*
X81046785Y-57216678D01*
X80999166Y-57169059D01*
X80903928Y-57121440D01*
X80713452Y-57073821D01*
X80618214Y-57026202D01*
X80570595Y-56978583D01*
X80522976Y-56883345D01*
X80522976Y-56788107D01*
X80570595Y-56692869D01*
X80618214Y-56645250D01*
X80713452Y-56597630D01*
X80951547Y-56597630D01*
X81094404Y-56645250D01*
X81427738Y-56597630D02*
X81665833Y-57597630D01*
X81856309Y-56883345D01*
X82046785Y-57597630D01*
X82284880Y-56597630D01*
X83189642Y-57597630D02*
X82618214Y-57597630D01*
X82903928Y-57597630D02*
X82903928Y-56597630D01*
X82808690Y-56740488D01*
X82713452Y-56835726D01*
X82618214Y-56883345D01*
X84142023Y-57597630D02*
X83570595Y-57597630D01*
X83856309Y-57597630D02*
X83856309Y-56597630D01*
X83761071Y-56740488D01*
X83665833Y-56835726D01*
X83570595Y-56883345D01*
G04 #@! TO.C,SW10*
X61522976Y-57550011D02*
X61665833Y-57597630D01*
X61903928Y-57597630D01*
X61999166Y-57550011D01*
X62046785Y-57502392D01*
X62094404Y-57407154D01*
X62094404Y-57311916D01*
X62046785Y-57216678D01*
X61999166Y-57169059D01*
X61903928Y-57121440D01*
X61713452Y-57073821D01*
X61618214Y-57026202D01*
X61570595Y-56978583D01*
X61522976Y-56883345D01*
X61522976Y-56788107D01*
X61570595Y-56692869D01*
X61618214Y-56645250D01*
X61713452Y-56597630D01*
X61951547Y-56597630D01*
X62094404Y-56645250D01*
X62427738Y-56597630D02*
X62665833Y-57597630D01*
X62856309Y-56883345D01*
X63046785Y-57597630D01*
X63284880Y-56597630D01*
X64189642Y-57597630D02*
X63618214Y-57597630D01*
X63903928Y-57597630D02*
X63903928Y-56597630D01*
X63808690Y-56740488D01*
X63713452Y-56835726D01*
X63618214Y-56883345D01*
X64808690Y-56597630D02*
X64903928Y-56597630D01*
X64999166Y-56645250D01*
X65046785Y-56692869D01*
X65094404Y-56788107D01*
X65142023Y-56978583D01*
X65142023Y-57216678D01*
X65094404Y-57407154D01*
X65046785Y-57502392D01*
X64999166Y-57550011D01*
X64903928Y-57597630D01*
X64808690Y-57597630D01*
X64713452Y-57550011D01*
X64665833Y-57502392D01*
X64618214Y-57407154D01*
X64570595Y-57216678D01*
X64570595Y-56978583D01*
X64618214Y-56788107D01*
X64665833Y-56692869D01*
X64713452Y-56645250D01*
X64808690Y-56597630D01*
G04 #@! TO.C,SW9*
X42999166Y-57550011D02*
X43142023Y-57597630D01*
X43380119Y-57597630D01*
X43475357Y-57550011D01*
X43522976Y-57502392D01*
X43570595Y-57407154D01*
X43570595Y-57311916D01*
X43522976Y-57216678D01*
X43475357Y-57169059D01*
X43380119Y-57121440D01*
X43189642Y-57073821D01*
X43094404Y-57026202D01*
X43046785Y-56978583D01*
X42999166Y-56883345D01*
X42999166Y-56788107D01*
X43046785Y-56692869D01*
X43094404Y-56645250D01*
X43189642Y-56597630D01*
X43427738Y-56597630D01*
X43570595Y-56645250D01*
X43903928Y-56597630D02*
X44142023Y-57597630D01*
X44332500Y-56883345D01*
X44522976Y-57597630D01*
X44761071Y-56597630D01*
X45189642Y-57597630D02*
X45380119Y-57597630D01*
X45475357Y-57550011D01*
X45522976Y-57502392D01*
X45618214Y-57359535D01*
X45665833Y-57169059D01*
X45665833Y-56788107D01*
X45618214Y-56692869D01*
X45570595Y-56645250D01*
X45475357Y-56597630D01*
X45284880Y-56597630D01*
X45189642Y-56645250D01*
X45142023Y-56692869D01*
X45094404Y-56788107D01*
X45094404Y-57026202D01*
X45142023Y-57121440D01*
X45189642Y-57169059D01*
X45284880Y-57216678D01*
X45475357Y-57216678D01*
X45570595Y-57169059D01*
X45618214Y-57121440D01*
X45665833Y-57026202D01*
G04 #@! TO.C,SW8*
X23999166Y-57550011D02*
X24142023Y-57597630D01*
X24380119Y-57597630D01*
X24475357Y-57550011D01*
X24522976Y-57502392D01*
X24570595Y-57407154D01*
X24570595Y-57311916D01*
X24522976Y-57216678D01*
X24475357Y-57169059D01*
X24380119Y-57121440D01*
X24189642Y-57073821D01*
X24094404Y-57026202D01*
X24046785Y-56978583D01*
X23999166Y-56883345D01*
X23999166Y-56788107D01*
X24046785Y-56692869D01*
X24094404Y-56645250D01*
X24189642Y-56597630D01*
X24427738Y-56597630D01*
X24570595Y-56645250D01*
X24903928Y-56597630D02*
X25142023Y-57597630D01*
X25332500Y-56883345D01*
X25522976Y-57597630D01*
X25761071Y-56597630D01*
X26284880Y-57026202D02*
X26189642Y-56978583D01*
X26142023Y-56930964D01*
X26094404Y-56835726D01*
X26094404Y-56788107D01*
X26142023Y-56692869D01*
X26189642Y-56645250D01*
X26284880Y-56597630D01*
X26475357Y-56597630D01*
X26570595Y-56645250D01*
X26618214Y-56692869D01*
X26665833Y-56788107D01*
X26665833Y-56835726D01*
X26618214Y-56930964D01*
X26570595Y-56978583D01*
X26475357Y-57026202D01*
X26284880Y-57026202D01*
X26189642Y-57073821D01*
X26142023Y-57121440D01*
X26094404Y-57216678D01*
X26094404Y-57407154D01*
X26142023Y-57502392D01*
X26189642Y-57550011D01*
X26284880Y-57597630D01*
X26475357Y-57597630D01*
X26570595Y-57550011D01*
X26618214Y-57502392D01*
X26665833Y-57407154D01*
X26665833Y-57216678D01*
X26618214Y-57121440D01*
X26570595Y-57073821D01*
X26475357Y-57026202D01*
G04 #@! TO.C,SW7*
X137999166Y-38550011D02*
X138142023Y-38597630D01*
X138380119Y-38597630D01*
X138475357Y-38550011D01*
X138522976Y-38502392D01*
X138570595Y-38407154D01*
X138570595Y-38311916D01*
X138522976Y-38216678D01*
X138475357Y-38169059D01*
X138380119Y-38121440D01*
X138189642Y-38073821D01*
X138094404Y-38026202D01*
X138046785Y-37978583D01*
X137999166Y-37883345D01*
X137999166Y-37788107D01*
X138046785Y-37692869D01*
X138094404Y-37645250D01*
X138189642Y-37597630D01*
X138427738Y-37597630D01*
X138570595Y-37645250D01*
X138903928Y-37597630D02*
X139142023Y-38597630D01*
X139332500Y-37883345D01*
X139522976Y-38597630D01*
X139761071Y-37597630D01*
X140046785Y-37597630D02*
X140713452Y-37597630D01*
X140284880Y-38597630D01*
G04 #@! TO.C,SW6*
X118999166Y-38550011D02*
X119142023Y-38597630D01*
X119380119Y-38597630D01*
X119475357Y-38550011D01*
X119522976Y-38502392D01*
X119570595Y-38407154D01*
X119570595Y-38311916D01*
X119522976Y-38216678D01*
X119475357Y-38169059D01*
X119380119Y-38121440D01*
X119189642Y-38073821D01*
X119094404Y-38026202D01*
X119046785Y-37978583D01*
X118999166Y-37883345D01*
X118999166Y-37788107D01*
X119046785Y-37692869D01*
X119094404Y-37645250D01*
X119189642Y-37597630D01*
X119427738Y-37597630D01*
X119570595Y-37645250D01*
X119903928Y-37597630D02*
X120142023Y-38597630D01*
X120332500Y-37883345D01*
X120522976Y-38597630D01*
X120761071Y-37597630D01*
X121570595Y-37597630D02*
X121380119Y-37597630D01*
X121284880Y-37645250D01*
X121237261Y-37692869D01*
X121142023Y-37835726D01*
X121094404Y-38026202D01*
X121094404Y-38407154D01*
X121142023Y-38502392D01*
X121189642Y-38550011D01*
X121284880Y-38597630D01*
X121475357Y-38597630D01*
X121570595Y-38550011D01*
X121618214Y-38502392D01*
X121665833Y-38407154D01*
X121665833Y-38169059D01*
X121618214Y-38073821D01*
X121570595Y-38026202D01*
X121475357Y-37978583D01*
X121284880Y-37978583D01*
X121189642Y-38026202D01*
X121142023Y-38073821D01*
X121094404Y-38169059D01*
G04 #@! TO.C,SW5*
X99999166Y-38550011D02*
X100142023Y-38597630D01*
X100380119Y-38597630D01*
X100475357Y-38550011D01*
X100522976Y-38502392D01*
X100570595Y-38407154D01*
X100570595Y-38311916D01*
X100522976Y-38216678D01*
X100475357Y-38169059D01*
X100380119Y-38121440D01*
X100189642Y-38073821D01*
X100094404Y-38026202D01*
X100046785Y-37978583D01*
X99999166Y-37883345D01*
X99999166Y-37788107D01*
X100046785Y-37692869D01*
X100094404Y-37645250D01*
X100189642Y-37597630D01*
X100427738Y-37597630D01*
X100570595Y-37645250D01*
X100903928Y-37597630D02*
X101142023Y-38597630D01*
X101332500Y-37883345D01*
X101522976Y-38597630D01*
X101761071Y-37597630D01*
X102618214Y-37597630D02*
X102142023Y-37597630D01*
X102094404Y-38073821D01*
X102142023Y-38026202D01*
X102237261Y-37978583D01*
X102475357Y-37978583D01*
X102570595Y-38026202D01*
X102618214Y-38073821D01*
X102665833Y-38169059D01*
X102665833Y-38407154D01*
X102618214Y-38502392D01*
X102570595Y-38550011D01*
X102475357Y-38597630D01*
X102237261Y-38597630D01*
X102142023Y-38550011D01*
X102094404Y-38502392D01*
G04 #@! TO.C,SW4*
X80999166Y-38550011D02*
X81142023Y-38597630D01*
X81380119Y-38597630D01*
X81475357Y-38550011D01*
X81522976Y-38502392D01*
X81570595Y-38407154D01*
X81570595Y-38311916D01*
X81522976Y-38216678D01*
X81475357Y-38169059D01*
X81380119Y-38121440D01*
X81189642Y-38073821D01*
X81094404Y-38026202D01*
X81046785Y-37978583D01*
X80999166Y-37883345D01*
X80999166Y-37788107D01*
X81046785Y-37692869D01*
X81094404Y-37645250D01*
X81189642Y-37597630D01*
X81427738Y-37597630D01*
X81570595Y-37645250D01*
X81903928Y-37597630D02*
X82142023Y-38597630D01*
X82332500Y-37883345D01*
X82522976Y-38597630D01*
X82761071Y-37597630D01*
X83570595Y-37930964D02*
X83570595Y-38597630D01*
X83332500Y-37550011D02*
X83094404Y-38264297D01*
X83713452Y-38264297D01*
G04 #@! TO.C,SW3*
X61999166Y-38550011D02*
X62142023Y-38597630D01*
X62380119Y-38597630D01*
X62475357Y-38550011D01*
X62522976Y-38502392D01*
X62570595Y-38407154D01*
X62570595Y-38311916D01*
X62522976Y-38216678D01*
X62475357Y-38169059D01*
X62380119Y-38121440D01*
X62189642Y-38073821D01*
X62094404Y-38026202D01*
X62046785Y-37978583D01*
X61999166Y-37883345D01*
X61999166Y-37788107D01*
X62046785Y-37692869D01*
X62094404Y-37645250D01*
X62189642Y-37597630D01*
X62427738Y-37597630D01*
X62570595Y-37645250D01*
X62903928Y-37597630D02*
X63142023Y-38597630D01*
X63332500Y-37883345D01*
X63522976Y-38597630D01*
X63761071Y-37597630D01*
X64046785Y-37597630D02*
X64665833Y-37597630D01*
X64332500Y-37978583D01*
X64475357Y-37978583D01*
X64570595Y-38026202D01*
X64618214Y-38073821D01*
X64665833Y-38169059D01*
X64665833Y-38407154D01*
X64618214Y-38502392D01*
X64570595Y-38550011D01*
X64475357Y-38597630D01*
X64189642Y-38597630D01*
X64094404Y-38550011D01*
X64046785Y-38502392D01*
G04 #@! TO.C,D55*
X187694404Y-27342678D02*
X186894404Y-27342678D01*
X186894404Y-27152202D01*
X186932500Y-27037916D01*
X187008690Y-26961726D01*
X187084880Y-26923630D01*
X187237261Y-26885535D01*
X187351547Y-26885535D01*
X187503928Y-26923630D01*
X187580119Y-26961726D01*
X187656309Y-27037916D01*
X187694404Y-27152202D01*
X187694404Y-27342678D01*
X186894404Y-26161726D02*
X186894404Y-26542678D01*
X187275357Y-26580773D01*
X187237261Y-26542678D01*
X187199166Y-26466488D01*
X187199166Y-26276011D01*
X187237261Y-26199821D01*
X187275357Y-26161726D01*
X187351547Y-26123630D01*
X187542023Y-26123630D01*
X187618214Y-26161726D01*
X187656309Y-26199821D01*
X187694404Y-26276011D01*
X187694404Y-26466488D01*
X187656309Y-26542678D01*
X187618214Y-26580773D01*
X186894404Y-25399821D02*
X186894404Y-25780773D01*
X187275357Y-25818869D01*
X187237261Y-25780773D01*
X187199166Y-25704583D01*
X187199166Y-25514107D01*
X187237261Y-25437916D01*
X187275357Y-25399821D01*
X187351547Y-25361726D01*
X187542023Y-25361726D01*
X187618214Y-25399821D01*
X187656309Y-25437916D01*
X187694404Y-25514107D01*
X187694404Y-25704583D01*
X187656309Y-25780773D01*
X187618214Y-25818869D01*
G04 #@! TO.C,D54*
X206694404Y-27342678D02*
X205894404Y-27342678D01*
X205894404Y-27152202D01*
X205932500Y-27037916D01*
X206008690Y-26961726D01*
X206084880Y-26923630D01*
X206237261Y-26885535D01*
X206351547Y-26885535D01*
X206503928Y-26923630D01*
X206580119Y-26961726D01*
X206656309Y-27037916D01*
X206694404Y-27152202D01*
X206694404Y-27342678D01*
X205894404Y-26161726D02*
X205894404Y-26542678D01*
X206275357Y-26580773D01*
X206237261Y-26542678D01*
X206199166Y-26466488D01*
X206199166Y-26276011D01*
X206237261Y-26199821D01*
X206275357Y-26161726D01*
X206351547Y-26123630D01*
X206542023Y-26123630D01*
X206618214Y-26161726D01*
X206656309Y-26199821D01*
X206694404Y-26276011D01*
X206694404Y-26466488D01*
X206656309Y-26542678D01*
X206618214Y-26580773D01*
X206161071Y-25437916D02*
X206694404Y-25437916D01*
X205856309Y-25628392D02*
X206427738Y-25818869D01*
X206427738Y-25323630D01*
G04 #@! TO.C,D53*
X225694404Y-27342678D02*
X224894404Y-27342678D01*
X224894404Y-27152202D01*
X224932500Y-27037916D01*
X225008690Y-26961726D01*
X225084880Y-26923630D01*
X225237261Y-26885535D01*
X225351547Y-26885535D01*
X225503928Y-26923630D01*
X225580119Y-26961726D01*
X225656309Y-27037916D01*
X225694404Y-27152202D01*
X225694404Y-27342678D01*
X224894404Y-26161726D02*
X224894404Y-26542678D01*
X225275357Y-26580773D01*
X225237261Y-26542678D01*
X225199166Y-26466488D01*
X225199166Y-26276011D01*
X225237261Y-26199821D01*
X225275357Y-26161726D01*
X225351547Y-26123630D01*
X225542023Y-26123630D01*
X225618214Y-26161726D01*
X225656309Y-26199821D01*
X225694404Y-26276011D01*
X225694404Y-26466488D01*
X225656309Y-26542678D01*
X225618214Y-26580773D01*
X224894404Y-25856964D02*
X224894404Y-25361726D01*
X225199166Y-25628392D01*
X225199166Y-25514107D01*
X225237261Y-25437916D01*
X225275357Y-25399821D01*
X225351547Y-25361726D01*
X225542023Y-25361726D01*
X225618214Y-25399821D01*
X225656309Y-25437916D01*
X225694404Y-25514107D01*
X225694404Y-25742678D01*
X225656309Y-25818869D01*
X225618214Y-25856964D01*
G04 #@! TO.C,D52*
X244664527Y-27342678D02*
X243864527Y-27342678D01*
X243864527Y-27152202D01*
X243902623Y-27037916D01*
X243978813Y-26961726D01*
X244055003Y-26923630D01*
X244207384Y-26885535D01*
X244321670Y-26885535D01*
X244474051Y-26923630D01*
X244550242Y-26961726D01*
X244626432Y-27037916D01*
X244664527Y-27152202D01*
X244664527Y-27342678D01*
X243864527Y-26161726D02*
X243864527Y-26542678D01*
X244245480Y-26580773D01*
X244207384Y-26542678D01*
X244169289Y-26466488D01*
X244169289Y-26276011D01*
X244207384Y-26199821D01*
X244245480Y-26161726D01*
X244321670Y-26123630D01*
X244512146Y-26123630D01*
X244588337Y-26161726D01*
X244626432Y-26199821D01*
X244664527Y-26276011D01*
X244664527Y-26466488D01*
X244626432Y-26542678D01*
X244588337Y-26580773D01*
X243940718Y-25818869D02*
X243902623Y-25780773D01*
X243864527Y-25704583D01*
X243864527Y-25514107D01*
X243902623Y-25437916D01*
X243940718Y-25399821D01*
X244016908Y-25361726D01*
X244093099Y-25361726D01*
X244207384Y-25399821D01*
X244664527Y-25856964D01*
X244664527Y-25361726D01*
G04 #@! TO.C,D51*
X263694404Y-27342678D02*
X262894404Y-27342678D01*
X262894404Y-27152202D01*
X262932500Y-27037916D01*
X263008690Y-26961726D01*
X263084880Y-26923630D01*
X263237261Y-26885535D01*
X263351547Y-26885535D01*
X263503928Y-26923630D01*
X263580119Y-26961726D01*
X263656309Y-27037916D01*
X263694404Y-27152202D01*
X263694404Y-27342678D01*
X262894404Y-26161726D02*
X262894404Y-26542678D01*
X263275357Y-26580773D01*
X263237261Y-26542678D01*
X263199166Y-26466488D01*
X263199166Y-26276011D01*
X263237261Y-26199821D01*
X263275357Y-26161726D01*
X263351547Y-26123630D01*
X263542023Y-26123630D01*
X263618214Y-26161726D01*
X263656309Y-26199821D01*
X263694404Y-26276011D01*
X263694404Y-26466488D01*
X263656309Y-26542678D01*
X263618214Y-26580773D01*
X263694404Y-25361726D02*
X263694404Y-25818869D01*
X263694404Y-25590297D02*
X262894404Y-25590297D01*
X263008690Y-25666488D01*
X263084880Y-25742678D01*
X263122976Y-25818869D01*
G04 #@! TO.C,D50*
X282694404Y-27342678D02*
X281894404Y-27342678D01*
X281894404Y-27152202D01*
X281932500Y-27037916D01*
X282008690Y-26961726D01*
X282084880Y-26923630D01*
X282237261Y-26885535D01*
X282351547Y-26885535D01*
X282503928Y-26923630D01*
X282580119Y-26961726D01*
X282656309Y-27037916D01*
X282694404Y-27152202D01*
X282694404Y-27342678D01*
X281894404Y-26161726D02*
X281894404Y-26542678D01*
X282275357Y-26580773D01*
X282237261Y-26542678D01*
X282199166Y-26466488D01*
X282199166Y-26276011D01*
X282237261Y-26199821D01*
X282275357Y-26161726D01*
X282351547Y-26123630D01*
X282542023Y-26123630D01*
X282618214Y-26161726D01*
X282656309Y-26199821D01*
X282694404Y-26276011D01*
X282694404Y-26466488D01*
X282656309Y-26542678D01*
X282618214Y-26580773D01*
X281894404Y-25628392D02*
X281894404Y-25552202D01*
X281932500Y-25476011D01*
X281970595Y-25437916D01*
X282046785Y-25399821D01*
X282199166Y-25361726D01*
X282389642Y-25361726D01*
X282542023Y-25399821D01*
X282618214Y-25437916D01*
X282656309Y-25476011D01*
X282694404Y-25552202D01*
X282694404Y-25628392D01*
X282656309Y-25704583D01*
X282618214Y-25742678D01*
X282542023Y-25780773D01*
X282389642Y-25818869D01*
X282199166Y-25818869D01*
X282046785Y-25780773D01*
X281970595Y-25742678D01*
X281932500Y-25704583D01*
X281894404Y-25628392D01*
G04 #@! TO.C,D49*
X168694404Y-46342678D02*
X167894404Y-46342678D01*
X167894404Y-46152202D01*
X167932500Y-46037916D01*
X168008690Y-45961726D01*
X168084880Y-45923630D01*
X168237261Y-45885535D01*
X168351547Y-45885535D01*
X168503928Y-45923630D01*
X168580119Y-45961726D01*
X168656309Y-46037916D01*
X168694404Y-46152202D01*
X168694404Y-46342678D01*
X168161071Y-45199821D02*
X168694404Y-45199821D01*
X167856309Y-45390297D02*
X168427738Y-45580773D01*
X168427738Y-45085535D01*
X168694404Y-44742678D02*
X168694404Y-44590297D01*
X168656309Y-44514107D01*
X168618214Y-44476011D01*
X168503928Y-44399821D01*
X168351547Y-44361726D01*
X168046785Y-44361726D01*
X167970595Y-44399821D01*
X167932500Y-44437916D01*
X167894404Y-44514107D01*
X167894404Y-44666488D01*
X167932500Y-44742678D01*
X167970595Y-44780773D01*
X168046785Y-44818869D01*
X168237261Y-44818869D01*
X168313452Y-44780773D01*
X168351547Y-44742678D01*
X168389642Y-44666488D01*
X168389642Y-44514107D01*
X168351547Y-44437916D01*
X168313452Y-44399821D01*
X168237261Y-44361726D01*
G04 #@! TO.C,D48*
X187694404Y-48342678D02*
X186894404Y-48342678D01*
X186894404Y-48152202D01*
X186932500Y-48037916D01*
X187008690Y-47961726D01*
X187084880Y-47923630D01*
X187237261Y-47885535D01*
X187351547Y-47885535D01*
X187503928Y-47923630D01*
X187580119Y-47961726D01*
X187656309Y-48037916D01*
X187694404Y-48152202D01*
X187694404Y-48342678D01*
X187161071Y-47199821D02*
X187694404Y-47199821D01*
X186856309Y-47390297D02*
X187427738Y-47580773D01*
X187427738Y-47085535D01*
X187237261Y-46666488D02*
X187199166Y-46742678D01*
X187161071Y-46780773D01*
X187084880Y-46818869D01*
X187046785Y-46818869D01*
X186970595Y-46780773D01*
X186932500Y-46742678D01*
X186894404Y-46666488D01*
X186894404Y-46514107D01*
X186932500Y-46437916D01*
X186970595Y-46399821D01*
X187046785Y-46361726D01*
X187084880Y-46361726D01*
X187161071Y-46399821D01*
X187199166Y-46437916D01*
X187237261Y-46514107D01*
X187237261Y-46666488D01*
X187275357Y-46742678D01*
X187313452Y-46780773D01*
X187389642Y-46818869D01*
X187542023Y-46818869D01*
X187618214Y-46780773D01*
X187656309Y-46742678D01*
X187694404Y-46666488D01*
X187694404Y-46514107D01*
X187656309Y-46437916D01*
X187618214Y-46399821D01*
X187542023Y-46361726D01*
X187389642Y-46361726D01*
X187313452Y-46399821D01*
X187275357Y-46437916D01*
X187237261Y-46514107D01*
G04 #@! TO.C,D47*
X206694404Y-46342678D02*
X205894404Y-46342678D01*
X205894404Y-46152202D01*
X205932500Y-46037916D01*
X206008690Y-45961726D01*
X206084880Y-45923630D01*
X206237261Y-45885535D01*
X206351547Y-45885535D01*
X206503928Y-45923630D01*
X206580119Y-45961726D01*
X206656309Y-46037916D01*
X206694404Y-46152202D01*
X206694404Y-46342678D01*
X206161071Y-45199821D02*
X206694404Y-45199821D01*
X205856309Y-45390297D02*
X206427738Y-45580773D01*
X206427738Y-45085535D01*
X205894404Y-44856964D02*
X205894404Y-44323630D01*
X206694404Y-44666488D01*
G04 #@! TO.C,D46*
X225694404Y-46342678D02*
X224894404Y-46342678D01*
X224894404Y-46152202D01*
X224932500Y-46037916D01*
X225008690Y-45961726D01*
X225084880Y-45923630D01*
X225237261Y-45885535D01*
X225351547Y-45885535D01*
X225503928Y-45923630D01*
X225580119Y-45961726D01*
X225656309Y-46037916D01*
X225694404Y-46152202D01*
X225694404Y-46342678D01*
X225161071Y-45199821D02*
X225694404Y-45199821D01*
X224856309Y-45390297D02*
X225427738Y-45580773D01*
X225427738Y-45085535D01*
X224894404Y-44437916D02*
X224894404Y-44590297D01*
X224932500Y-44666488D01*
X224970595Y-44704583D01*
X225084880Y-44780773D01*
X225237261Y-44818869D01*
X225542023Y-44818869D01*
X225618214Y-44780773D01*
X225656309Y-44742678D01*
X225694404Y-44666488D01*
X225694404Y-44514107D01*
X225656309Y-44437916D01*
X225618214Y-44399821D01*
X225542023Y-44361726D01*
X225351547Y-44361726D01*
X225275357Y-44399821D01*
X225237261Y-44437916D01*
X225199166Y-44514107D01*
X225199166Y-44666488D01*
X225237261Y-44742678D01*
X225275357Y-44780773D01*
X225351547Y-44818869D01*
G04 #@! TO.C,D45*
X244694404Y-46342678D02*
X243894404Y-46342678D01*
X243894404Y-46152202D01*
X243932500Y-46037916D01*
X244008690Y-45961726D01*
X244084880Y-45923630D01*
X244237261Y-45885535D01*
X244351547Y-45885535D01*
X244503928Y-45923630D01*
X244580119Y-45961726D01*
X244656309Y-46037916D01*
X244694404Y-46152202D01*
X244694404Y-46342678D01*
X244161071Y-45199821D02*
X244694404Y-45199821D01*
X243856309Y-45390297D02*
X244427738Y-45580773D01*
X244427738Y-45085535D01*
X243894404Y-44399821D02*
X243894404Y-44780773D01*
X244275357Y-44818869D01*
X244237261Y-44780773D01*
X244199166Y-44704583D01*
X244199166Y-44514107D01*
X244237261Y-44437916D01*
X244275357Y-44399821D01*
X244351547Y-44361726D01*
X244542023Y-44361726D01*
X244618214Y-44399821D01*
X244656309Y-44437916D01*
X244694404Y-44514107D01*
X244694404Y-44704583D01*
X244656309Y-44780773D01*
X244618214Y-44818869D01*
G04 #@! TO.C,D44*
X263664527Y-47842678D02*
X262864527Y-47842678D01*
X262864527Y-47652202D01*
X262902623Y-47537916D01*
X262978813Y-47461726D01*
X263055003Y-47423630D01*
X263207384Y-47385535D01*
X263321670Y-47385535D01*
X263474051Y-47423630D01*
X263550242Y-47461726D01*
X263626432Y-47537916D01*
X263664527Y-47652202D01*
X263664527Y-47842678D01*
X263131194Y-46699821D02*
X263664527Y-46699821D01*
X262826432Y-46890297D02*
X263397861Y-47080773D01*
X263397861Y-46585535D01*
X263131194Y-45937916D02*
X263664527Y-45937916D01*
X262826432Y-46128392D02*
X263397861Y-46318869D01*
X263397861Y-45823630D01*
G04 #@! TO.C,D43*
X282664527Y-46342678D02*
X281864527Y-46342678D01*
X281864527Y-46152202D01*
X281902623Y-46037916D01*
X281978813Y-45961726D01*
X282055003Y-45923630D01*
X282207384Y-45885535D01*
X282321670Y-45885535D01*
X282474051Y-45923630D01*
X282550242Y-45961726D01*
X282626432Y-46037916D01*
X282664527Y-46152202D01*
X282664527Y-46342678D01*
X282131194Y-45199821D02*
X282664527Y-45199821D01*
X281826432Y-45390297D02*
X282397861Y-45580773D01*
X282397861Y-45085535D01*
X281864527Y-44856964D02*
X281864527Y-44361726D01*
X282169289Y-44628392D01*
X282169289Y-44514107D01*
X282207384Y-44437916D01*
X282245480Y-44399821D01*
X282321670Y-44361726D01*
X282512146Y-44361726D01*
X282588337Y-44399821D01*
X282626432Y-44437916D01*
X282664527Y-44514107D01*
X282664527Y-44742678D01*
X282626432Y-44818869D01*
X282588337Y-44856964D01*
G04 #@! TO.C,D42*
X168664527Y-66842678D02*
X167864527Y-66842678D01*
X167864527Y-66652202D01*
X167902623Y-66537916D01*
X167978813Y-66461726D01*
X168055003Y-66423630D01*
X168207384Y-66385535D01*
X168321670Y-66385535D01*
X168474051Y-66423630D01*
X168550242Y-66461726D01*
X168626432Y-66537916D01*
X168664527Y-66652202D01*
X168664527Y-66842678D01*
X168131194Y-65699821D02*
X168664527Y-65699821D01*
X167826432Y-65890297D02*
X168397861Y-66080773D01*
X168397861Y-65585535D01*
X167940718Y-65318869D02*
X167902623Y-65280773D01*
X167864527Y-65204583D01*
X167864527Y-65014107D01*
X167902623Y-64937916D01*
X167940718Y-64899821D01*
X168016908Y-64861726D01*
X168093099Y-64861726D01*
X168207384Y-64899821D01*
X168664527Y-65356964D01*
X168664527Y-64861726D01*
G04 #@! TO.C,D41*
X187694404Y-66842678D02*
X186894404Y-66842678D01*
X186894404Y-66652202D01*
X186932500Y-66537916D01*
X187008690Y-66461726D01*
X187084880Y-66423630D01*
X187237261Y-66385535D01*
X187351547Y-66385535D01*
X187503928Y-66423630D01*
X187580119Y-66461726D01*
X187656309Y-66537916D01*
X187694404Y-66652202D01*
X187694404Y-66842678D01*
X187161071Y-65699821D02*
X187694404Y-65699821D01*
X186856309Y-65890297D02*
X187427738Y-66080773D01*
X187427738Y-65585535D01*
X187694404Y-64861726D02*
X187694404Y-65318869D01*
X187694404Y-65090297D02*
X186894404Y-65090297D01*
X187008690Y-65166488D01*
X187084880Y-65242678D01*
X187122976Y-65318869D01*
G04 #@! TO.C,D40*
X206694404Y-66842678D02*
X205894404Y-66842678D01*
X205894404Y-66652202D01*
X205932500Y-66537916D01*
X206008690Y-66461726D01*
X206084880Y-66423630D01*
X206237261Y-66385535D01*
X206351547Y-66385535D01*
X206503928Y-66423630D01*
X206580119Y-66461726D01*
X206656309Y-66537916D01*
X206694404Y-66652202D01*
X206694404Y-66842678D01*
X206161071Y-65699821D02*
X206694404Y-65699821D01*
X205856309Y-65890297D02*
X206427738Y-66080773D01*
X206427738Y-65585535D01*
X205894404Y-65128392D02*
X205894404Y-65052202D01*
X205932500Y-64976011D01*
X205970595Y-64937916D01*
X206046785Y-64899821D01*
X206199166Y-64861726D01*
X206389642Y-64861726D01*
X206542023Y-64899821D01*
X206618214Y-64937916D01*
X206656309Y-64976011D01*
X206694404Y-65052202D01*
X206694404Y-65128392D01*
X206656309Y-65204583D01*
X206618214Y-65242678D01*
X206542023Y-65280773D01*
X206389642Y-65318869D01*
X206199166Y-65318869D01*
X206046785Y-65280773D01*
X205970595Y-65242678D01*
X205932500Y-65204583D01*
X205894404Y-65128392D01*
G04 #@! TO.C,D39*
X225694404Y-66842678D02*
X224894404Y-66842678D01*
X224894404Y-66652202D01*
X224932500Y-66537916D01*
X225008690Y-66461726D01*
X225084880Y-66423630D01*
X225237261Y-66385535D01*
X225351547Y-66385535D01*
X225503928Y-66423630D01*
X225580119Y-66461726D01*
X225656309Y-66537916D01*
X225694404Y-66652202D01*
X225694404Y-66842678D01*
X224894404Y-66118869D02*
X224894404Y-65623630D01*
X225199166Y-65890297D01*
X225199166Y-65776011D01*
X225237261Y-65699821D01*
X225275357Y-65661726D01*
X225351547Y-65623630D01*
X225542023Y-65623630D01*
X225618214Y-65661726D01*
X225656309Y-65699821D01*
X225694404Y-65776011D01*
X225694404Y-66004583D01*
X225656309Y-66080773D01*
X225618214Y-66118869D01*
X225694404Y-65242678D02*
X225694404Y-65090297D01*
X225656309Y-65014107D01*
X225618214Y-64976011D01*
X225503928Y-64899821D01*
X225351547Y-64861726D01*
X225046785Y-64861726D01*
X224970595Y-64899821D01*
X224932500Y-64937916D01*
X224894404Y-65014107D01*
X224894404Y-65166488D01*
X224932500Y-65242678D01*
X224970595Y-65280773D01*
X225046785Y-65318869D01*
X225237261Y-65318869D01*
X225313452Y-65280773D01*
X225351547Y-65242678D01*
X225389642Y-65166488D01*
X225389642Y-65014107D01*
X225351547Y-64937916D01*
X225313452Y-64899821D01*
X225237261Y-64861726D01*
G04 #@! TO.C,D38*
X244664527Y-66842678D02*
X243864527Y-66842678D01*
X243864527Y-66652202D01*
X243902623Y-66537916D01*
X243978813Y-66461726D01*
X244055003Y-66423630D01*
X244207384Y-66385535D01*
X244321670Y-66385535D01*
X244474051Y-66423630D01*
X244550242Y-66461726D01*
X244626432Y-66537916D01*
X244664527Y-66652202D01*
X244664527Y-66842678D01*
X243864527Y-66118869D02*
X243864527Y-65623630D01*
X244169289Y-65890297D01*
X244169289Y-65776011D01*
X244207384Y-65699821D01*
X244245480Y-65661726D01*
X244321670Y-65623630D01*
X244512146Y-65623630D01*
X244588337Y-65661726D01*
X244626432Y-65699821D01*
X244664527Y-65776011D01*
X244664527Y-66004583D01*
X244626432Y-66080773D01*
X244588337Y-66118869D01*
X244207384Y-65166488D02*
X244169289Y-65242678D01*
X244131194Y-65280773D01*
X244055003Y-65318869D01*
X244016908Y-65318869D01*
X243940718Y-65280773D01*
X243902623Y-65242678D01*
X243864527Y-65166488D01*
X243864527Y-65014107D01*
X243902623Y-64937916D01*
X243940718Y-64899821D01*
X244016908Y-64861726D01*
X244055003Y-64861726D01*
X244131194Y-64899821D01*
X244169289Y-64937916D01*
X244207384Y-65014107D01*
X244207384Y-65166488D01*
X244245480Y-65242678D01*
X244283575Y-65280773D01*
X244359765Y-65318869D01*
X244512146Y-65318869D01*
X244588337Y-65280773D01*
X244626432Y-65242678D01*
X244664527Y-65166488D01*
X244664527Y-65014107D01*
X244626432Y-64937916D01*
X244588337Y-64899821D01*
X244512146Y-64861726D01*
X244359765Y-64861726D01*
X244283575Y-64899821D01*
X244245480Y-64937916D01*
X244207384Y-65014107D01*
G04 #@! TO.C,D37*
X263694404Y-66842678D02*
X262894404Y-66842678D01*
X262894404Y-66652202D01*
X262932500Y-66537916D01*
X263008690Y-66461726D01*
X263084880Y-66423630D01*
X263237261Y-66385535D01*
X263351547Y-66385535D01*
X263503928Y-66423630D01*
X263580119Y-66461726D01*
X263656309Y-66537916D01*
X263694404Y-66652202D01*
X263694404Y-66842678D01*
X262894404Y-66118869D02*
X262894404Y-65623630D01*
X263199166Y-65890297D01*
X263199166Y-65776011D01*
X263237261Y-65699821D01*
X263275357Y-65661726D01*
X263351547Y-65623630D01*
X263542023Y-65623630D01*
X263618214Y-65661726D01*
X263656309Y-65699821D01*
X263694404Y-65776011D01*
X263694404Y-66004583D01*
X263656309Y-66080773D01*
X263618214Y-66118869D01*
X262894404Y-65356964D02*
X262894404Y-64823630D01*
X263694404Y-65166488D01*
G04 #@! TO.C,D36*
X282664527Y-66773025D02*
X281864527Y-66773025D01*
X281864527Y-66582549D01*
X281902623Y-66468263D01*
X281978813Y-66392073D01*
X282055003Y-66353977D01*
X282207384Y-66315882D01*
X282321670Y-66315882D01*
X282474051Y-66353977D01*
X282550242Y-66392073D01*
X282626432Y-66468263D01*
X282664527Y-66582549D01*
X282664527Y-66773025D01*
X281864527Y-66049216D02*
X281864527Y-65553977D01*
X282169289Y-65820644D01*
X282169289Y-65706358D01*
X282207384Y-65630168D01*
X282245480Y-65592073D01*
X282321670Y-65553977D01*
X282512146Y-65553977D01*
X282588337Y-65592073D01*
X282626432Y-65630168D01*
X282664527Y-65706358D01*
X282664527Y-65934930D01*
X282626432Y-66011120D01*
X282588337Y-66049216D01*
X281864527Y-64868263D02*
X281864527Y-65020644D01*
X281902623Y-65096835D01*
X281940718Y-65134930D01*
X282055003Y-65211120D01*
X282207384Y-65249216D01*
X282512146Y-65249216D01*
X282588337Y-65211120D01*
X282626432Y-65173025D01*
X282664527Y-65096835D01*
X282664527Y-64944454D01*
X282626432Y-64868263D01*
X282588337Y-64830168D01*
X282512146Y-64792073D01*
X282321670Y-64792073D01*
X282245480Y-64830168D01*
X282207384Y-64868263D01*
X282169289Y-64944454D01*
X282169289Y-65096835D01*
X282207384Y-65173025D01*
X282245480Y-65211120D01*
X282321670Y-65249216D01*
G04 #@! TO.C,D35*
X168694404Y-88842678D02*
X167894404Y-88842678D01*
X167894404Y-88652202D01*
X167932500Y-88537916D01*
X168008690Y-88461726D01*
X168084880Y-88423630D01*
X168237261Y-88385535D01*
X168351547Y-88385535D01*
X168503928Y-88423630D01*
X168580119Y-88461726D01*
X168656309Y-88537916D01*
X168694404Y-88652202D01*
X168694404Y-88842678D01*
X167894404Y-88118869D02*
X167894404Y-87623630D01*
X168199166Y-87890297D01*
X168199166Y-87776011D01*
X168237261Y-87699821D01*
X168275357Y-87661726D01*
X168351547Y-87623630D01*
X168542023Y-87623630D01*
X168618214Y-87661726D01*
X168656309Y-87699821D01*
X168694404Y-87776011D01*
X168694404Y-88004583D01*
X168656309Y-88080773D01*
X168618214Y-88118869D01*
X167894404Y-86899821D02*
X167894404Y-87280773D01*
X168275357Y-87318869D01*
X168237261Y-87280773D01*
X168199166Y-87204583D01*
X168199166Y-87014107D01*
X168237261Y-86937916D01*
X168275357Y-86899821D01*
X168351547Y-86861726D01*
X168542023Y-86861726D01*
X168618214Y-86899821D01*
X168656309Y-86937916D01*
X168694404Y-87014107D01*
X168694404Y-87204583D01*
X168656309Y-87280773D01*
X168618214Y-87318869D01*
G04 #@! TO.C,D34*
X187694404Y-91342678D02*
X186894404Y-91342678D01*
X186894404Y-91152202D01*
X186932500Y-91037916D01*
X187008690Y-90961726D01*
X187084880Y-90923630D01*
X187237261Y-90885535D01*
X187351547Y-90885535D01*
X187503928Y-90923630D01*
X187580119Y-90961726D01*
X187656309Y-91037916D01*
X187694404Y-91152202D01*
X187694404Y-91342678D01*
X186894404Y-90618869D02*
X186894404Y-90123630D01*
X187199166Y-90390297D01*
X187199166Y-90276011D01*
X187237261Y-90199821D01*
X187275357Y-90161726D01*
X187351547Y-90123630D01*
X187542023Y-90123630D01*
X187618214Y-90161726D01*
X187656309Y-90199821D01*
X187694404Y-90276011D01*
X187694404Y-90504583D01*
X187656309Y-90580773D01*
X187618214Y-90618869D01*
X187161071Y-89437916D02*
X187694404Y-89437916D01*
X186856309Y-89628392D02*
X187427738Y-89818869D01*
X187427738Y-89323630D01*
G04 #@! TO.C,D33*
X206694404Y-88842678D02*
X205894404Y-88842678D01*
X205894404Y-88652202D01*
X205932500Y-88537916D01*
X206008690Y-88461726D01*
X206084880Y-88423630D01*
X206237261Y-88385535D01*
X206351547Y-88385535D01*
X206503928Y-88423630D01*
X206580119Y-88461726D01*
X206656309Y-88537916D01*
X206694404Y-88652202D01*
X206694404Y-88842678D01*
X205894404Y-88118869D02*
X205894404Y-87623630D01*
X206199166Y-87890297D01*
X206199166Y-87776011D01*
X206237261Y-87699821D01*
X206275357Y-87661726D01*
X206351547Y-87623630D01*
X206542023Y-87623630D01*
X206618214Y-87661726D01*
X206656309Y-87699821D01*
X206694404Y-87776011D01*
X206694404Y-88004583D01*
X206656309Y-88080773D01*
X206618214Y-88118869D01*
X205894404Y-87356964D02*
X205894404Y-86861726D01*
X206199166Y-87128392D01*
X206199166Y-87014107D01*
X206237261Y-86937916D01*
X206275357Y-86899821D01*
X206351547Y-86861726D01*
X206542023Y-86861726D01*
X206618214Y-86899821D01*
X206656309Y-86937916D01*
X206694404Y-87014107D01*
X206694404Y-87242678D01*
X206656309Y-87318869D01*
X206618214Y-87356964D01*
G04 #@! TO.C,D32*
X225694404Y-84342678D02*
X224894404Y-84342678D01*
X224894404Y-84152202D01*
X224932500Y-84037916D01*
X225008690Y-83961726D01*
X225084880Y-83923630D01*
X225237261Y-83885535D01*
X225351547Y-83885535D01*
X225503928Y-83923630D01*
X225580119Y-83961726D01*
X225656309Y-84037916D01*
X225694404Y-84152202D01*
X225694404Y-84342678D01*
X224894404Y-83618869D02*
X224894404Y-83123630D01*
X225199166Y-83390297D01*
X225199166Y-83276011D01*
X225237261Y-83199821D01*
X225275357Y-83161726D01*
X225351547Y-83123630D01*
X225542023Y-83123630D01*
X225618214Y-83161726D01*
X225656309Y-83199821D01*
X225694404Y-83276011D01*
X225694404Y-83504583D01*
X225656309Y-83580773D01*
X225618214Y-83618869D01*
X224970595Y-82818869D02*
X224932500Y-82780773D01*
X224894404Y-82704583D01*
X224894404Y-82514107D01*
X224932500Y-82437916D01*
X224970595Y-82399821D01*
X225046785Y-82361726D01*
X225122976Y-82361726D01*
X225237261Y-82399821D01*
X225694404Y-82856964D01*
X225694404Y-82361726D01*
G04 #@! TO.C,D31*
X244694404Y-84342678D02*
X243894404Y-84342678D01*
X243894404Y-84152202D01*
X243932500Y-84037916D01*
X244008690Y-83961726D01*
X244084880Y-83923630D01*
X244237261Y-83885535D01*
X244351547Y-83885535D01*
X244503928Y-83923630D01*
X244580119Y-83961726D01*
X244656309Y-84037916D01*
X244694404Y-84152202D01*
X244694404Y-84342678D01*
X243894404Y-83618869D02*
X243894404Y-83123630D01*
X244199166Y-83390297D01*
X244199166Y-83276011D01*
X244237261Y-83199821D01*
X244275357Y-83161726D01*
X244351547Y-83123630D01*
X244542023Y-83123630D01*
X244618214Y-83161726D01*
X244656309Y-83199821D01*
X244694404Y-83276011D01*
X244694404Y-83504583D01*
X244656309Y-83580773D01*
X244618214Y-83618869D01*
X244694404Y-82361726D02*
X244694404Y-82818869D01*
X244694404Y-82590297D02*
X243894404Y-82590297D01*
X244008690Y-82666488D01*
X244084880Y-82742678D01*
X244122976Y-82818869D01*
G04 #@! TO.C,D30*
X263694404Y-85842678D02*
X262894404Y-85842678D01*
X262894404Y-85652202D01*
X262932500Y-85537916D01*
X263008690Y-85461726D01*
X263084880Y-85423630D01*
X263237261Y-85385535D01*
X263351547Y-85385535D01*
X263503928Y-85423630D01*
X263580119Y-85461726D01*
X263656309Y-85537916D01*
X263694404Y-85652202D01*
X263694404Y-85842678D01*
X262894404Y-85118869D02*
X262894404Y-84623630D01*
X263199166Y-84890297D01*
X263199166Y-84776011D01*
X263237261Y-84699821D01*
X263275357Y-84661726D01*
X263351547Y-84623630D01*
X263542023Y-84623630D01*
X263618214Y-84661726D01*
X263656309Y-84699821D01*
X263694404Y-84776011D01*
X263694404Y-85004583D01*
X263656309Y-85080773D01*
X263618214Y-85118869D01*
X262894404Y-84128392D02*
X262894404Y-84052202D01*
X262932500Y-83976011D01*
X262970595Y-83937916D01*
X263046785Y-83899821D01*
X263199166Y-83861726D01*
X263389642Y-83861726D01*
X263542023Y-83899821D01*
X263618214Y-83937916D01*
X263656309Y-83976011D01*
X263694404Y-84052202D01*
X263694404Y-84128392D01*
X263656309Y-84204583D01*
X263618214Y-84242678D01*
X263542023Y-84280773D01*
X263389642Y-84318869D01*
X263199166Y-84318869D01*
X263046785Y-84280773D01*
X262970595Y-84242678D01*
X262932500Y-84204583D01*
X262894404Y-84128392D01*
G04 #@! TO.C,D29*
X282694404Y-84473025D02*
X281894404Y-84473025D01*
X281894404Y-84282549D01*
X281932500Y-84168263D01*
X282008690Y-84092073D01*
X282084880Y-84053977D01*
X282237261Y-84015882D01*
X282351547Y-84015882D01*
X282503928Y-84053977D01*
X282580119Y-84092073D01*
X282656309Y-84168263D01*
X282694404Y-84282549D01*
X282694404Y-84473025D01*
X281970595Y-83711120D02*
X281932500Y-83673025D01*
X281894404Y-83596835D01*
X281894404Y-83406358D01*
X281932500Y-83330168D01*
X281970595Y-83292073D01*
X282046785Y-83253977D01*
X282122976Y-83253977D01*
X282237261Y-83292073D01*
X282694404Y-83749216D01*
X282694404Y-83253977D01*
X282694404Y-82873025D02*
X282694404Y-82720644D01*
X282656309Y-82644454D01*
X282618214Y-82606358D01*
X282503928Y-82530168D01*
X282351547Y-82492073D01*
X282046785Y-82492073D01*
X281970595Y-82530168D01*
X281932500Y-82568263D01*
X281894404Y-82644454D01*
X281894404Y-82796835D01*
X281932500Y-82873025D01*
X281970595Y-82911120D01*
X282046785Y-82949216D01*
X282237261Y-82949216D01*
X282313452Y-82911120D01*
X282351547Y-82873025D01*
X282389642Y-82796835D01*
X282389642Y-82644454D01*
X282351547Y-82568263D01*
X282313452Y-82530168D01*
X282237261Y-82492073D01*
G04 #@! TO.C,D28*
X149694404Y-88842678D02*
X148894404Y-88842678D01*
X148894404Y-88652202D01*
X148932500Y-88537916D01*
X149008690Y-88461726D01*
X149084880Y-88423630D01*
X149237261Y-88385535D01*
X149351547Y-88385535D01*
X149503928Y-88423630D01*
X149580119Y-88461726D01*
X149656309Y-88537916D01*
X149694404Y-88652202D01*
X149694404Y-88842678D01*
X148970595Y-88080773D02*
X148932500Y-88042678D01*
X148894404Y-87966488D01*
X148894404Y-87776011D01*
X148932500Y-87699821D01*
X148970595Y-87661726D01*
X149046785Y-87623630D01*
X149122976Y-87623630D01*
X149237261Y-87661726D01*
X149694404Y-88118869D01*
X149694404Y-87623630D01*
X149237261Y-87166488D02*
X149199166Y-87242678D01*
X149161071Y-87280773D01*
X149084880Y-87318869D01*
X149046785Y-87318869D01*
X148970595Y-87280773D01*
X148932500Y-87242678D01*
X148894404Y-87166488D01*
X148894404Y-87014107D01*
X148932500Y-86937916D01*
X148970595Y-86899821D01*
X149046785Y-86861726D01*
X149084880Y-86861726D01*
X149161071Y-86899821D01*
X149199166Y-86937916D01*
X149237261Y-87014107D01*
X149237261Y-87166488D01*
X149275357Y-87242678D01*
X149313452Y-87280773D01*
X149389642Y-87318869D01*
X149542023Y-87318869D01*
X149618214Y-87280773D01*
X149656309Y-87242678D01*
X149694404Y-87166488D01*
X149694404Y-87014107D01*
X149656309Y-86937916D01*
X149618214Y-86899821D01*
X149542023Y-86861726D01*
X149389642Y-86861726D01*
X149313452Y-86899821D01*
X149275357Y-86937916D01*
X149237261Y-87014107D01*
G04 #@! TO.C,D27*
X130694404Y-88842678D02*
X129894404Y-88842678D01*
X129894404Y-88652202D01*
X129932500Y-88537916D01*
X130008690Y-88461726D01*
X130084880Y-88423630D01*
X130237261Y-88385535D01*
X130351547Y-88385535D01*
X130503928Y-88423630D01*
X130580119Y-88461726D01*
X130656309Y-88537916D01*
X130694404Y-88652202D01*
X130694404Y-88842678D01*
X129970595Y-88080773D02*
X129932500Y-88042678D01*
X129894404Y-87966488D01*
X129894404Y-87776011D01*
X129932500Y-87699821D01*
X129970595Y-87661726D01*
X130046785Y-87623630D01*
X130122976Y-87623630D01*
X130237261Y-87661726D01*
X130694404Y-88118869D01*
X130694404Y-87623630D01*
X129894404Y-87356964D02*
X129894404Y-86823630D01*
X130694404Y-87166488D01*
G04 #@! TO.C,D26*
X111694404Y-91342678D02*
X110894404Y-91342678D01*
X110894404Y-91152202D01*
X110932500Y-91037916D01*
X111008690Y-90961726D01*
X111084880Y-90923630D01*
X111237261Y-90885535D01*
X111351547Y-90885535D01*
X111503928Y-90923630D01*
X111580119Y-90961726D01*
X111656309Y-91037916D01*
X111694404Y-91152202D01*
X111694404Y-91342678D01*
X110970595Y-90580773D02*
X110932500Y-90542678D01*
X110894404Y-90466488D01*
X110894404Y-90276011D01*
X110932500Y-90199821D01*
X110970595Y-90161726D01*
X111046785Y-90123630D01*
X111122976Y-90123630D01*
X111237261Y-90161726D01*
X111694404Y-90618869D01*
X111694404Y-90123630D01*
X110894404Y-89437916D02*
X110894404Y-89590297D01*
X110932500Y-89666488D01*
X110970595Y-89704583D01*
X111084880Y-89780773D01*
X111237261Y-89818869D01*
X111542023Y-89818869D01*
X111618214Y-89780773D01*
X111656309Y-89742678D01*
X111694404Y-89666488D01*
X111694404Y-89514107D01*
X111656309Y-89437916D01*
X111618214Y-89399821D01*
X111542023Y-89361726D01*
X111351547Y-89361726D01*
X111275357Y-89399821D01*
X111237261Y-89437916D01*
X111199166Y-89514107D01*
X111199166Y-89666488D01*
X111237261Y-89742678D01*
X111275357Y-89780773D01*
X111351547Y-89818869D01*
G04 #@! TO.C,D25*
X92694404Y-84842678D02*
X91894404Y-84842678D01*
X91894404Y-84652202D01*
X91932500Y-84537916D01*
X92008690Y-84461726D01*
X92084880Y-84423630D01*
X92237261Y-84385535D01*
X92351547Y-84385535D01*
X92503928Y-84423630D01*
X92580119Y-84461726D01*
X92656309Y-84537916D01*
X92694404Y-84652202D01*
X92694404Y-84842678D01*
X91970595Y-84080773D02*
X91932500Y-84042678D01*
X91894404Y-83966488D01*
X91894404Y-83776011D01*
X91932500Y-83699821D01*
X91970595Y-83661726D01*
X92046785Y-83623630D01*
X92122976Y-83623630D01*
X92237261Y-83661726D01*
X92694404Y-84118869D01*
X92694404Y-83623630D01*
X91894404Y-82899821D02*
X91894404Y-83280773D01*
X92275357Y-83318869D01*
X92237261Y-83280773D01*
X92199166Y-83204583D01*
X92199166Y-83014107D01*
X92237261Y-82937916D01*
X92275357Y-82899821D01*
X92351547Y-82861726D01*
X92542023Y-82861726D01*
X92618214Y-82899821D01*
X92656309Y-82937916D01*
X92694404Y-83014107D01*
X92694404Y-83204583D01*
X92656309Y-83280773D01*
X92618214Y-83318869D01*
G04 #@! TO.C,D24*
X73694404Y-84342678D02*
X72894404Y-84342678D01*
X72894404Y-84152202D01*
X72932500Y-84037916D01*
X73008690Y-83961726D01*
X73084880Y-83923630D01*
X73237261Y-83885535D01*
X73351547Y-83885535D01*
X73503928Y-83923630D01*
X73580119Y-83961726D01*
X73656309Y-84037916D01*
X73694404Y-84152202D01*
X73694404Y-84342678D01*
X72970595Y-83580773D02*
X72932500Y-83542678D01*
X72894404Y-83466488D01*
X72894404Y-83276011D01*
X72932500Y-83199821D01*
X72970595Y-83161726D01*
X73046785Y-83123630D01*
X73122976Y-83123630D01*
X73237261Y-83161726D01*
X73694404Y-83618869D01*
X73694404Y-83123630D01*
X73161071Y-82437916D02*
X73694404Y-82437916D01*
X72856309Y-82628392D02*
X73427738Y-82818869D01*
X73427738Y-82323630D01*
G04 #@! TO.C,D23*
X54694404Y-84342678D02*
X53894404Y-84342678D01*
X53894404Y-84152202D01*
X53932500Y-84037916D01*
X54008690Y-83961726D01*
X54084880Y-83923630D01*
X54237261Y-83885535D01*
X54351547Y-83885535D01*
X54503928Y-83923630D01*
X54580119Y-83961726D01*
X54656309Y-84037916D01*
X54694404Y-84152202D01*
X54694404Y-84342678D01*
X53970595Y-83580773D02*
X53932500Y-83542678D01*
X53894404Y-83466488D01*
X53894404Y-83276011D01*
X53932500Y-83199821D01*
X53970595Y-83161726D01*
X54046785Y-83123630D01*
X54122976Y-83123630D01*
X54237261Y-83161726D01*
X54694404Y-83618869D01*
X54694404Y-83123630D01*
X53894404Y-82856964D02*
X53894404Y-82361726D01*
X54199166Y-82628392D01*
X54199166Y-82514107D01*
X54237261Y-82437916D01*
X54275357Y-82399821D01*
X54351547Y-82361726D01*
X54542023Y-82361726D01*
X54618214Y-82399821D01*
X54656309Y-82437916D01*
X54694404Y-82514107D01*
X54694404Y-82742678D01*
X54656309Y-82818869D01*
X54618214Y-82856964D01*
G04 #@! TO.C,D22*
X35694404Y-85842678D02*
X34894404Y-85842678D01*
X34894404Y-85652202D01*
X34932500Y-85537916D01*
X35008690Y-85461726D01*
X35084880Y-85423630D01*
X35237261Y-85385535D01*
X35351547Y-85385535D01*
X35503928Y-85423630D01*
X35580119Y-85461726D01*
X35656309Y-85537916D01*
X35694404Y-85652202D01*
X35694404Y-85842678D01*
X34970595Y-85080773D02*
X34932500Y-85042678D01*
X34894404Y-84966488D01*
X34894404Y-84776011D01*
X34932500Y-84699821D01*
X34970595Y-84661726D01*
X35046785Y-84623630D01*
X35122976Y-84623630D01*
X35237261Y-84661726D01*
X35694404Y-85118869D01*
X35694404Y-84623630D01*
X34970595Y-84318869D02*
X34932500Y-84280773D01*
X34894404Y-84204583D01*
X34894404Y-84014107D01*
X34932500Y-83937916D01*
X34970595Y-83899821D01*
X35046785Y-83861726D01*
X35122976Y-83861726D01*
X35237261Y-83899821D01*
X35694404Y-84356964D01*
X35694404Y-83861726D01*
G04 #@! TO.C,D21*
X149694404Y-66842678D02*
X148894404Y-66842678D01*
X148894404Y-66652202D01*
X148932500Y-66537916D01*
X149008690Y-66461726D01*
X149084880Y-66423630D01*
X149237261Y-66385535D01*
X149351547Y-66385535D01*
X149503928Y-66423630D01*
X149580119Y-66461726D01*
X149656309Y-66537916D01*
X149694404Y-66652202D01*
X149694404Y-66842678D01*
X148970595Y-66080773D02*
X148932500Y-66042678D01*
X148894404Y-65966488D01*
X148894404Y-65776011D01*
X148932500Y-65699821D01*
X148970595Y-65661726D01*
X149046785Y-65623630D01*
X149122976Y-65623630D01*
X149237261Y-65661726D01*
X149694404Y-66118869D01*
X149694404Y-65623630D01*
X149694404Y-64861726D02*
X149694404Y-65318869D01*
X149694404Y-65090297D02*
X148894404Y-65090297D01*
X149008690Y-65166488D01*
X149084880Y-65242678D01*
X149122976Y-65318869D01*
G04 #@! TO.C,D20*
X130694404Y-66842678D02*
X129894404Y-66842678D01*
X129894404Y-66652202D01*
X129932500Y-66537916D01*
X130008690Y-66461726D01*
X130084880Y-66423630D01*
X130237261Y-66385535D01*
X130351547Y-66385535D01*
X130503928Y-66423630D01*
X130580119Y-66461726D01*
X130656309Y-66537916D01*
X130694404Y-66652202D01*
X130694404Y-66842678D01*
X129970595Y-66080773D02*
X129932500Y-66042678D01*
X129894404Y-65966488D01*
X129894404Y-65776011D01*
X129932500Y-65699821D01*
X129970595Y-65661726D01*
X130046785Y-65623630D01*
X130122976Y-65623630D01*
X130237261Y-65661726D01*
X130694404Y-66118869D01*
X130694404Y-65623630D01*
X129894404Y-65128392D02*
X129894404Y-65052202D01*
X129932500Y-64976011D01*
X129970595Y-64937916D01*
X130046785Y-64899821D01*
X130199166Y-64861726D01*
X130389642Y-64861726D01*
X130542023Y-64899821D01*
X130618214Y-64937916D01*
X130656309Y-64976011D01*
X130694404Y-65052202D01*
X130694404Y-65128392D01*
X130656309Y-65204583D01*
X130618214Y-65242678D01*
X130542023Y-65280773D01*
X130389642Y-65318869D01*
X130199166Y-65318869D01*
X130046785Y-65280773D01*
X129970595Y-65242678D01*
X129932500Y-65204583D01*
X129894404Y-65128392D01*
G04 #@! TO.C,D19*
X111694404Y-66842678D02*
X110894404Y-66842678D01*
X110894404Y-66652202D01*
X110932500Y-66537916D01*
X111008690Y-66461726D01*
X111084880Y-66423630D01*
X111237261Y-66385535D01*
X111351547Y-66385535D01*
X111503928Y-66423630D01*
X111580119Y-66461726D01*
X111656309Y-66537916D01*
X111694404Y-66652202D01*
X111694404Y-66842678D01*
X111694404Y-65623630D02*
X111694404Y-66080773D01*
X111694404Y-65852202D02*
X110894404Y-65852202D01*
X111008690Y-65928392D01*
X111084880Y-66004583D01*
X111122976Y-66080773D01*
X111694404Y-65242678D02*
X111694404Y-65090297D01*
X111656309Y-65014107D01*
X111618214Y-64976011D01*
X111503928Y-64899821D01*
X111351547Y-64861726D01*
X111046785Y-64861726D01*
X110970595Y-64899821D01*
X110932500Y-64937916D01*
X110894404Y-65014107D01*
X110894404Y-65166488D01*
X110932500Y-65242678D01*
X110970595Y-65280773D01*
X111046785Y-65318869D01*
X111237261Y-65318869D01*
X111313452Y-65280773D01*
X111351547Y-65242678D01*
X111389642Y-65166488D01*
X111389642Y-65014107D01*
X111351547Y-64937916D01*
X111313452Y-64899821D01*
X111237261Y-64861726D01*
G04 #@! TO.C,D18*
X92694404Y-66842678D02*
X91894404Y-66842678D01*
X91894404Y-66652202D01*
X91932500Y-66537916D01*
X92008690Y-66461726D01*
X92084880Y-66423630D01*
X92237261Y-66385535D01*
X92351547Y-66385535D01*
X92503928Y-66423630D01*
X92580119Y-66461726D01*
X92656309Y-66537916D01*
X92694404Y-66652202D01*
X92694404Y-66842678D01*
X92694404Y-65623630D02*
X92694404Y-66080773D01*
X92694404Y-65852202D02*
X91894404Y-65852202D01*
X92008690Y-65928392D01*
X92084880Y-66004583D01*
X92122976Y-66080773D01*
X92237261Y-65166488D02*
X92199166Y-65242678D01*
X92161071Y-65280773D01*
X92084880Y-65318869D01*
X92046785Y-65318869D01*
X91970595Y-65280773D01*
X91932500Y-65242678D01*
X91894404Y-65166488D01*
X91894404Y-65014107D01*
X91932500Y-64937916D01*
X91970595Y-64899821D01*
X92046785Y-64861726D01*
X92084880Y-64861726D01*
X92161071Y-64899821D01*
X92199166Y-64937916D01*
X92237261Y-65014107D01*
X92237261Y-65166488D01*
X92275357Y-65242678D01*
X92313452Y-65280773D01*
X92389642Y-65318869D01*
X92542023Y-65318869D01*
X92618214Y-65280773D01*
X92656309Y-65242678D01*
X92694404Y-65166488D01*
X92694404Y-65014107D01*
X92656309Y-64937916D01*
X92618214Y-64899821D01*
X92542023Y-64861726D01*
X92389642Y-64861726D01*
X92313452Y-64899821D01*
X92275357Y-64937916D01*
X92237261Y-65014107D01*
G04 #@! TO.C,D17*
X73694404Y-66842678D02*
X72894404Y-66842678D01*
X72894404Y-66652202D01*
X72932500Y-66537916D01*
X73008690Y-66461726D01*
X73084880Y-66423630D01*
X73237261Y-66385535D01*
X73351547Y-66385535D01*
X73503928Y-66423630D01*
X73580119Y-66461726D01*
X73656309Y-66537916D01*
X73694404Y-66652202D01*
X73694404Y-66842678D01*
X73694404Y-65623630D02*
X73694404Y-66080773D01*
X73694404Y-65852202D02*
X72894404Y-65852202D01*
X73008690Y-65928392D01*
X73084880Y-66004583D01*
X73122976Y-66080773D01*
X72894404Y-65356964D02*
X72894404Y-64823630D01*
X73694404Y-65166488D01*
G04 #@! TO.C,D16*
X54694404Y-66842678D02*
X53894404Y-66842678D01*
X53894404Y-66652202D01*
X53932500Y-66537916D01*
X54008690Y-66461726D01*
X54084880Y-66423630D01*
X54237261Y-66385535D01*
X54351547Y-66385535D01*
X54503928Y-66423630D01*
X54580119Y-66461726D01*
X54656309Y-66537916D01*
X54694404Y-66652202D01*
X54694404Y-66842678D01*
X54694404Y-65623630D02*
X54694404Y-66080773D01*
X54694404Y-65852202D02*
X53894404Y-65852202D01*
X54008690Y-65928392D01*
X54084880Y-66004583D01*
X54122976Y-66080773D01*
X53894404Y-64937916D02*
X53894404Y-65090297D01*
X53932500Y-65166488D01*
X53970595Y-65204583D01*
X54084880Y-65280773D01*
X54237261Y-65318869D01*
X54542023Y-65318869D01*
X54618214Y-65280773D01*
X54656309Y-65242678D01*
X54694404Y-65166488D01*
X54694404Y-65014107D01*
X54656309Y-64937916D01*
X54618214Y-64899821D01*
X54542023Y-64861726D01*
X54351547Y-64861726D01*
X54275357Y-64899821D01*
X54237261Y-64937916D01*
X54199166Y-65014107D01*
X54199166Y-65166488D01*
X54237261Y-65242678D01*
X54275357Y-65280773D01*
X54351547Y-65318869D01*
G04 #@! TO.C,D15*
X35694404Y-66842678D02*
X34894404Y-66842678D01*
X34894404Y-66652202D01*
X34932500Y-66537916D01*
X35008690Y-66461726D01*
X35084880Y-66423630D01*
X35237261Y-66385535D01*
X35351547Y-66385535D01*
X35503928Y-66423630D01*
X35580119Y-66461726D01*
X35656309Y-66537916D01*
X35694404Y-66652202D01*
X35694404Y-66842678D01*
X35694404Y-65623630D02*
X35694404Y-66080773D01*
X35694404Y-65852202D02*
X34894404Y-65852202D01*
X35008690Y-65928392D01*
X35084880Y-66004583D01*
X35122976Y-66080773D01*
X34894404Y-64899821D02*
X34894404Y-65280773D01*
X35275357Y-65318869D01*
X35237261Y-65280773D01*
X35199166Y-65204583D01*
X35199166Y-65014107D01*
X35237261Y-64937916D01*
X35275357Y-64899821D01*
X35351547Y-64861726D01*
X35542023Y-64861726D01*
X35618214Y-64899821D01*
X35656309Y-64937916D01*
X35694404Y-65014107D01*
X35694404Y-65204583D01*
X35656309Y-65280773D01*
X35618214Y-65318869D01*
G04 #@! TO.C,D14*
X149694404Y-46342678D02*
X148894404Y-46342678D01*
X148894404Y-46152202D01*
X148932500Y-46037916D01*
X149008690Y-45961726D01*
X149084880Y-45923630D01*
X149237261Y-45885535D01*
X149351547Y-45885535D01*
X149503928Y-45923630D01*
X149580119Y-45961726D01*
X149656309Y-46037916D01*
X149694404Y-46152202D01*
X149694404Y-46342678D01*
X149694404Y-45123630D02*
X149694404Y-45580773D01*
X149694404Y-45352202D02*
X148894404Y-45352202D01*
X149008690Y-45428392D01*
X149084880Y-45504583D01*
X149122976Y-45580773D01*
X149161071Y-44437916D02*
X149694404Y-44437916D01*
X148856309Y-44628392D02*
X149427738Y-44818869D01*
X149427738Y-44323630D01*
G04 #@! TO.C,D13*
X130694404Y-46342678D02*
X129894404Y-46342678D01*
X129894404Y-46152202D01*
X129932500Y-46037916D01*
X130008690Y-45961726D01*
X130084880Y-45923630D01*
X130237261Y-45885535D01*
X130351547Y-45885535D01*
X130503928Y-45923630D01*
X130580119Y-45961726D01*
X130656309Y-46037916D01*
X130694404Y-46152202D01*
X130694404Y-46342678D01*
X130694404Y-45123630D02*
X130694404Y-45580773D01*
X130694404Y-45352202D02*
X129894404Y-45352202D01*
X130008690Y-45428392D01*
X130084880Y-45504583D01*
X130122976Y-45580773D01*
X129894404Y-44856964D02*
X129894404Y-44361726D01*
X130199166Y-44628392D01*
X130199166Y-44514107D01*
X130237261Y-44437916D01*
X130275357Y-44399821D01*
X130351547Y-44361726D01*
X130542023Y-44361726D01*
X130618214Y-44399821D01*
X130656309Y-44437916D01*
X130694404Y-44514107D01*
X130694404Y-44742678D01*
X130656309Y-44818869D01*
X130618214Y-44856964D01*
G04 #@! TO.C,D12*
X111694404Y-48842678D02*
X110894404Y-48842678D01*
X110894404Y-48652202D01*
X110932500Y-48537916D01*
X111008690Y-48461726D01*
X111084880Y-48423630D01*
X111237261Y-48385535D01*
X111351547Y-48385535D01*
X111503928Y-48423630D01*
X111580119Y-48461726D01*
X111656309Y-48537916D01*
X111694404Y-48652202D01*
X111694404Y-48842678D01*
X111694404Y-47623630D02*
X111694404Y-48080773D01*
X111694404Y-47852202D02*
X110894404Y-47852202D01*
X111008690Y-47928392D01*
X111084880Y-48004583D01*
X111122976Y-48080773D01*
X110970595Y-47318869D02*
X110932500Y-47280773D01*
X110894404Y-47204583D01*
X110894404Y-47014107D01*
X110932500Y-46937916D01*
X110970595Y-46899821D01*
X111046785Y-46861726D01*
X111122976Y-46861726D01*
X111237261Y-46899821D01*
X111694404Y-47356964D01*
X111694404Y-46861726D01*
G04 #@! TO.C,D11*
X92944404Y-46342678D02*
X92144404Y-46342678D01*
X92144404Y-46152202D01*
X92182500Y-46037916D01*
X92258690Y-45961726D01*
X92334880Y-45923630D01*
X92487261Y-45885535D01*
X92601547Y-45885535D01*
X92753928Y-45923630D01*
X92830119Y-45961726D01*
X92906309Y-46037916D01*
X92944404Y-46152202D01*
X92944404Y-46342678D01*
X92944404Y-45123630D02*
X92944404Y-45580773D01*
X92944404Y-45352202D02*
X92144404Y-45352202D01*
X92258690Y-45428392D01*
X92334880Y-45504583D01*
X92372976Y-45580773D01*
X92944404Y-44361726D02*
X92944404Y-44818869D01*
X92944404Y-44590297D02*
X92144404Y-44590297D01*
X92258690Y-44666488D01*
X92334880Y-44742678D01*
X92372976Y-44818869D01*
G04 #@! TO.C,D10*
X73694404Y-46342678D02*
X72894404Y-46342678D01*
X72894404Y-46152202D01*
X72932500Y-46037916D01*
X73008690Y-45961726D01*
X73084880Y-45923630D01*
X73237261Y-45885535D01*
X73351547Y-45885535D01*
X73503928Y-45923630D01*
X73580119Y-45961726D01*
X73656309Y-46037916D01*
X73694404Y-46152202D01*
X73694404Y-46342678D01*
X73694404Y-45123630D02*
X73694404Y-45580773D01*
X73694404Y-45352202D02*
X72894404Y-45352202D01*
X73008690Y-45428392D01*
X73084880Y-45504583D01*
X73122976Y-45580773D01*
X72894404Y-44628392D02*
X72894404Y-44552202D01*
X72932500Y-44476011D01*
X72970595Y-44437916D01*
X73046785Y-44399821D01*
X73199166Y-44361726D01*
X73389642Y-44361726D01*
X73542023Y-44399821D01*
X73618214Y-44437916D01*
X73656309Y-44476011D01*
X73694404Y-44552202D01*
X73694404Y-44628392D01*
X73656309Y-44704583D01*
X73618214Y-44742678D01*
X73542023Y-44780773D01*
X73389642Y-44818869D01*
X73199166Y-44818869D01*
X73046785Y-44780773D01*
X72970595Y-44742678D01*
X72932500Y-44704583D01*
X72894404Y-44628392D01*
G04 #@! TO.C,D9*
X54724281Y-48392073D02*
X53924281Y-48392073D01*
X53924281Y-48201597D01*
X53962377Y-48087311D01*
X54038567Y-48011120D01*
X54114757Y-47973025D01*
X54267138Y-47934930D01*
X54381424Y-47934930D01*
X54533805Y-47973025D01*
X54609996Y-48011120D01*
X54686186Y-48087311D01*
X54724281Y-48201597D01*
X54724281Y-48392073D01*
X54724281Y-47553977D02*
X54724281Y-47401597D01*
X54686186Y-47325406D01*
X54648091Y-47287311D01*
X54533805Y-47211120D01*
X54381424Y-47173025D01*
X54076662Y-47173025D01*
X54000472Y-47211120D01*
X53962377Y-47249216D01*
X53924281Y-47325406D01*
X53924281Y-47477787D01*
X53962377Y-47553977D01*
X54000472Y-47592073D01*
X54076662Y-47630168D01*
X54267138Y-47630168D01*
X54343329Y-47592073D01*
X54381424Y-47553977D01*
X54419519Y-47477787D01*
X54419519Y-47325406D01*
X54381424Y-47249216D01*
X54343329Y-47211120D01*
X54267138Y-47173025D01*
G04 #@! TO.C,D8*
X35694404Y-45961726D02*
X34894404Y-45961726D01*
X34894404Y-45771250D01*
X34932500Y-45656964D01*
X35008690Y-45580773D01*
X35084880Y-45542678D01*
X35237261Y-45504583D01*
X35351547Y-45504583D01*
X35503928Y-45542678D01*
X35580119Y-45580773D01*
X35656309Y-45656964D01*
X35694404Y-45771250D01*
X35694404Y-45961726D01*
X35237261Y-45047440D02*
X35199166Y-45123630D01*
X35161071Y-45161726D01*
X35084880Y-45199821D01*
X35046785Y-45199821D01*
X34970595Y-45161726D01*
X34932500Y-45123630D01*
X34894404Y-45047440D01*
X34894404Y-44895059D01*
X34932500Y-44818869D01*
X34970595Y-44780773D01*
X35046785Y-44742678D01*
X35084880Y-44742678D01*
X35161071Y-44780773D01*
X35199166Y-44818869D01*
X35237261Y-44895059D01*
X35237261Y-45047440D01*
X35275357Y-45123630D01*
X35313452Y-45161726D01*
X35389642Y-45199821D01*
X35542023Y-45199821D01*
X35618214Y-45161726D01*
X35656309Y-45123630D01*
X35694404Y-45047440D01*
X35694404Y-44895059D01*
X35656309Y-44818869D01*
X35618214Y-44780773D01*
X35542023Y-44742678D01*
X35389642Y-44742678D01*
X35313452Y-44780773D01*
X35275357Y-44818869D01*
X35237261Y-44895059D01*
G04 #@! TO.C,D7*
X149694404Y-26961726D02*
X148894404Y-26961726D01*
X148894404Y-26771250D01*
X148932500Y-26656964D01*
X149008690Y-26580773D01*
X149084880Y-26542678D01*
X149237261Y-26504583D01*
X149351547Y-26504583D01*
X149503928Y-26542678D01*
X149580119Y-26580773D01*
X149656309Y-26656964D01*
X149694404Y-26771250D01*
X149694404Y-26961726D01*
X148894404Y-26237916D02*
X148894404Y-25704583D01*
X149694404Y-26047440D01*
G04 #@! TO.C,D6*
X130694404Y-26961726D02*
X129894404Y-26961726D01*
X129894404Y-26771250D01*
X129932500Y-26656964D01*
X130008690Y-26580773D01*
X130084880Y-26542678D01*
X130237261Y-26504583D01*
X130351547Y-26504583D01*
X130503928Y-26542678D01*
X130580119Y-26580773D01*
X130656309Y-26656964D01*
X130694404Y-26771250D01*
X130694404Y-26961726D01*
X129894404Y-25818869D02*
X129894404Y-25971250D01*
X129932500Y-26047440D01*
X129970595Y-26085535D01*
X130084880Y-26161726D01*
X130237261Y-26199821D01*
X130542023Y-26199821D01*
X130618214Y-26161726D01*
X130656309Y-26123630D01*
X130694404Y-26047440D01*
X130694404Y-25895059D01*
X130656309Y-25818869D01*
X130618214Y-25780773D01*
X130542023Y-25742678D01*
X130351547Y-25742678D01*
X130275357Y-25780773D01*
X130237261Y-25818869D01*
X130199166Y-25895059D01*
X130199166Y-26047440D01*
X130237261Y-26123630D01*
X130275357Y-26161726D01*
X130351547Y-26199821D01*
G04 #@! TO.C,D5*
X111694404Y-27092073D02*
X110894404Y-27092073D01*
X110894404Y-26901597D01*
X110932500Y-26787311D01*
X111008690Y-26711120D01*
X111084880Y-26673025D01*
X111237261Y-26634930D01*
X111351547Y-26634930D01*
X111503928Y-26673025D01*
X111580119Y-26711120D01*
X111656309Y-26787311D01*
X111694404Y-26901597D01*
X111694404Y-27092073D01*
X110894404Y-25911120D02*
X110894404Y-26292073D01*
X111275357Y-26330168D01*
X111237261Y-26292073D01*
X111199166Y-26215882D01*
X111199166Y-26025406D01*
X111237261Y-25949216D01*
X111275357Y-25911120D01*
X111351547Y-25873025D01*
X111542023Y-25873025D01*
X111618214Y-25911120D01*
X111656309Y-25949216D01*
X111694404Y-26025406D01*
X111694404Y-26215882D01*
X111656309Y-26292073D01*
X111618214Y-26330168D01*
G04 #@! TO.C,D4*
X92694404Y-26961726D02*
X91894404Y-26961726D01*
X91894404Y-26771250D01*
X91932500Y-26656964D01*
X92008690Y-26580773D01*
X92084880Y-26542678D01*
X92237261Y-26504583D01*
X92351547Y-26504583D01*
X92503928Y-26542678D01*
X92580119Y-26580773D01*
X92656309Y-26656964D01*
X92694404Y-26771250D01*
X92694404Y-26961726D01*
X92161071Y-25818869D02*
X92694404Y-25818869D01*
X91856309Y-26009345D02*
X92427738Y-26199821D01*
X92427738Y-25704583D01*
G04 #@! TO.C,D3*
X73694404Y-26961726D02*
X72894404Y-26961726D01*
X72894404Y-26771250D01*
X72932500Y-26656964D01*
X73008690Y-26580773D01*
X73084880Y-26542678D01*
X73237261Y-26504583D01*
X73351547Y-26504583D01*
X73503928Y-26542678D01*
X73580119Y-26580773D01*
X73656309Y-26656964D01*
X73694404Y-26771250D01*
X73694404Y-26961726D01*
X72894404Y-26237916D02*
X72894404Y-25742678D01*
X73199166Y-26009345D01*
X73199166Y-25895059D01*
X73237261Y-25818869D01*
X73275357Y-25780773D01*
X73351547Y-25742678D01*
X73542023Y-25742678D01*
X73618214Y-25780773D01*
X73656309Y-25818869D01*
X73694404Y-25895059D01*
X73694404Y-26123630D01*
X73656309Y-26199821D01*
X73618214Y-26237916D01*
G04 #@! TO.C,D2*
X54694404Y-26961726D02*
X53894404Y-26961726D01*
X53894404Y-26771250D01*
X53932500Y-26656964D01*
X54008690Y-26580773D01*
X54084880Y-26542678D01*
X54237261Y-26504583D01*
X54351547Y-26504583D01*
X54503928Y-26542678D01*
X54580119Y-26580773D01*
X54656309Y-26656964D01*
X54694404Y-26771250D01*
X54694404Y-26961726D01*
X53970595Y-26199821D02*
X53932500Y-26161726D01*
X53894404Y-26085535D01*
X53894404Y-25895059D01*
X53932500Y-25818869D01*
X53970595Y-25780773D01*
X54046785Y-25742678D01*
X54122976Y-25742678D01*
X54237261Y-25780773D01*
X54694404Y-26237916D01*
X54694404Y-25742678D01*
G04 #@! TO.C,D1*
X34694404Y-31961726D02*
X33894404Y-31961726D01*
X33894404Y-31771250D01*
X33932500Y-31656964D01*
X34008690Y-31580773D01*
X34084880Y-31542678D01*
X34237261Y-31504583D01*
X34351547Y-31504583D01*
X34503928Y-31542678D01*
X34580119Y-31580773D01*
X34656309Y-31656964D01*
X34694404Y-31771250D01*
X34694404Y-31961726D01*
X34694404Y-30742678D02*
X34694404Y-31199821D01*
X34694404Y-30971250D02*
X33894404Y-30971250D01*
X34008690Y-31047440D01*
X34084880Y-31123630D01*
X34122976Y-31199821D01*
G04 #@! TD*
M02*
