M48
;DRILL file {KiCad (5.0.2-4-g3082e92af)} date 2019 March 04, Monday 22:31:31
;FORMAT={-:-/ absolute / inch / decimal}
FMAT,2
INCH,TZ
T1C0.0157
T2C0.0320
T3C0.0394
T4C0.0590
T5C0.1575
T6C0.0709
T7C0.1181
T8C0.1570
T9C0.1575
%
G90
G05
T1
X0.6627Y-3.0815
X0.6824Y-2.2941
X0.8202Y-1.3493
X0.8595Y-2.2941
X0.8989Y-3.9083
X0.9383Y-3.7902
X0.9383Y-3.0422
X0.958Y-1.0343
X0.958Y-1.743
X0.9973Y-3.8493
X1.1351Y-2.2548
X1.1351Y-3.0028
X1.1548Y-3.7508
X1.5485Y-2.491
X1.5485Y-3.239
X1.5682Y-1.3886
X1.5682Y-2.0973
X1.5879Y-2.8453
X1.5879Y-3.0422
X1.5879Y-3.5934
X1.6076Y-2.2941
X1.6076Y-3.7902
X1.7454Y-1.7036
X1.7454Y-3.8493
X1.8832Y-2.2548
X1.8832Y-3.0028
X1.8832Y-3.7508
X1.9422Y-1.2902
X2.0603Y-1.3689
X2.2178Y-3.1012
X2.3556Y-1.5461
X2.3556Y-2.2941
X2.3556Y-3.0422
X2.3556Y-3.7902
X2.6312Y-3.0028
X2.6312Y-1.2902
X2.6312Y-2.2548
X2.6312Y-3.7508
X2.6509Y-1.5067
X2.9658Y-3.1209
X3.0446Y-1.743
X3.0446Y-2.491
X3.0446Y-3.239
X3.084Y-2.0973
X3.084Y-2.8453
X3.084Y-3.5934
X3.1036Y-1.5461
X3.1036Y-2.2941
X3.1036Y-3.0422
X3.1036Y-3.7902
X3.3792Y-1.5067
X3.3792Y-2.2548
X3.3792Y-3.0028
X3.3792Y-3.7508
X3.3989Y-1.2902
X3.3989Y-3.9477
X3.4186Y-3.9083
X3.7139Y-3.1406
X3.8517Y-1.5461
X3.8517Y-2.2941
X3.8517Y-3.0422
X3.8517Y-3.9871
X4.1273Y-1.2902
X4.1273Y-1.5067
X4.1273Y-2.2548
X4.1273Y-3.0028
X4.1273Y-3.9477
X4.4619Y-3.1603
X4.521Y-3.4359
X4.5406Y-1.743
X4.5406Y-2.491
X4.58Y-2.0973
X4.58Y-2.8453
X4.58Y-3.7902
X4.5997Y-1.5461
X4.5997Y-2.2941
X4.5997Y-3.0422
X4.5997Y-3.9871
X4.6588Y-3.2193
X4.7572Y-3.2587
X4.8753Y-1.5067
X4.8753Y-2.2548
X4.8753Y-3.0028
X4.8753Y-3.9477
X4.895Y-1.2902
X5.3477Y-1.5461
X5.3477Y-2.2941
X5.3477Y-3.0422
X5.3477Y-3.9871
X5.6233Y-1.5067
X5.6233Y-2.2548
X5.6233Y-3.0028
X5.6233Y-3.9477
X5.643Y-1.2902
X6.017Y-3.4359
X6.0367Y-1.743
X6.0367Y-2.491
X6.0761Y-2.0973
X6.0761Y-2.8453
X6.0761Y-3.7902
X6.0958Y-1.5461
X6.0958Y-2.2941
X6.0958Y-3.0422
X6.0958Y-3.9871
X6.1155Y-3.2193
X6.2336Y-3.2981
X6.3714Y-1.5067
X6.3714Y-2.2548
X6.3714Y-3.0028
X6.3714Y-3.9477
X6.391Y-1.2902
X6.706Y-3.1603
X6.8438Y-1.5461
X6.8438Y-2.2941
X6.8438Y-3.0422
X6.8438Y-3.9871
X7.1194Y-1.2902
X7.1194Y-1.5067
X7.1194Y-2.2548
X7.1194Y-3.0028
X7.1194Y-3.9477
X7.454Y-3.1406
X7.5328Y-1.743
X7.5328Y-2.491
X7.5328Y-3.4162
X7.5721Y-2.0973
X7.5721Y-2.8453
X7.5721Y-3.7902
X7.5918Y-1.5461
X7.5918Y-2.2941
X7.5918Y-3.0422
X7.5918Y-3.9871
X7.8674Y-1.5067
X7.8674Y-2.2548
X7.8674Y-3.0028
X7.8674Y-3.9477
X7.8871Y-1.2902
X8.0249Y-3.9083
X8.0446Y-3.9477
X8.2021Y-3.1209
X8.3399Y-1.5461
X8.3399Y-2.2941
X8.3399Y-3.0422
X8.3399Y-3.8099
X8.5958Y-3.7705
X8.6155Y-1.2902
X8.6155Y-1.5067
X8.6155Y-2.2548
X8.6155Y-3.0028
X8.9501Y-3.1012
X9.0288Y-1.743
X9.0288Y-2.491
X9.0288Y-3.239
X9.0682Y-2.0973
X9.0682Y-2.8453
X9.0682Y-3.5934
X9.0879Y-1.5461
X9.0879Y-2.2941
X9.0879Y-3.0422
X9.0879Y-3.8099
X9.3635Y-1.5067
X9.3635Y-2.2548
X9.3635Y-3.0028
X9.3635Y-3.7705
X9.3832Y-1.2902
X9.8359Y-1.5461
X9.8359Y-2.2941
X9.8359Y-3.0422
X9.8359Y-3.8099
X9.9147Y-3.8493
X10.1115Y-1.2902
X10.1115Y-1.5067
X10.1115Y-2.2548
X10.1115Y-3.0028
X10.1115Y-3.7705
X10.5249Y-1.743
X10.5249Y-2.491
X10.5249Y-3.239
X10.5446Y-2.0973
X10.5643Y-2.8453
X10.5643Y-3.5934
X10.584Y-1.5461
X10.584Y-2.2941
X10.584Y-3.0422
X10.584Y-3.8099
X10.7808Y-3.8493
X10.8584Y-1.5056
X10.8595Y-2.2548
X10.8595Y-3.0028
X10.8595Y-3.7705
X11.0367Y-1.3886
X11.0367Y-2.117
T2
X0.7032Y-0.8918
X0.7032Y-1.4918
X0.8032Y-0.8918
X0.8032Y-1.4918
X0.9032Y-0.8918
X0.9032Y-1.4918
X1.0032Y-0.8918
X1.0032Y-1.4918
X1.1032Y-0.8918
X1.1032Y-1.4918
X1.2032Y-0.8918
X1.2032Y-1.4918
X1.3032Y-0.8918
X1.3032Y-1.4918
X1.4032Y-0.8918
X1.4032Y-1.4918
X1.5032Y-0.8918
X1.5032Y-1.4918
X1.6032Y-0.8918
X1.6032Y-1.4918
X1.7032Y-0.8918
X1.7032Y-1.4918
X1.8032Y-0.8918
X1.8032Y-1.4918
T3
X11.054Y-2.4516
X11.054Y-2.7587
X5.819Y-0.8992
X5.819Y-1.2063
X1.3308Y-3.2024
X1.3308Y-3.5095
X8.0631Y-2.4544
X8.0631Y-2.7615
X11.054Y-1.6473
X11.054Y-1.9544
X3.5749Y-0.8992
X3.5749Y-1.2063
X4.3229Y-2.4544
X4.3229Y-2.7615
X9.558Y-0.8992
X9.558Y-1.2063
X4.3229Y-1.7457
X4.3229Y-2.0528
X8.8111Y-1.6473
X8.8111Y-1.9544
X6.567Y-1.6473
X6.567Y-1.9544
X5.071Y-1.6473
X5.071Y-1.9544
X11.0552Y-3.1485
X11.0552Y-3.4556
X2.8269Y-3.1433
X2.8269Y-3.4504
X2.0788Y-0.8992
X2.0788Y-1.2063
X8.8111Y-3.1433
X8.8111Y-3.4504
X5.071Y-3.3205
X5.071Y-3.6276
X5.071Y-0.8992
X5.071Y-1.2063
X6.5659Y-2.4544
X6.5659Y-2.7615
X5.819Y-2.4544
X5.819Y-2.7615
X6.567Y-3.3205
X6.567Y-3.6276
X5.819Y-3.3205
X5.819Y-3.6276
X8.8111Y-2.4544
X8.8111Y-2.7615
X2.8269Y-0.8992
X2.8269Y-1.2063
X3.5749Y-2.4544
X3.5749Y-2.7615
X10.3072Y-2.4544
X10.3072Y-2.7615
X7.3151Y-1.726
X7.3151Y-2.0331
X7.3151Y-3.4189
X7.3151Y-3.726
X9.558Y-2.4544
X9.558Y-2.7615
X1.3308Y-1.6473
X1.3308Y-1.9544
X2.0788Y-3.1433
X2.0788Y-3.4504
X1.2914Y-1.0961
X1.2914Y-1.4032
X2.0788Y-2.4544
X2.0788Y-2.7615
X8.8111Y-0.8992
X8.8111Y-1.2063
X9.5592Y-3.1433
X9.5592Y-3.4504
X4.3229Y-0.9044
X4.3229Y-1.2115
X5.071Y-2.4544
X5.071Y-2.7615
X8.0631Y-0.8992
X8.0631Y-1.2063
X2.8269Y-2.4544
X2.8269Y-2.7615
X4.3229Y-3.4189
X4.3229Y-3.726
X8.0631Y-1.6473
X8.0631Y-1.9544
X8.0631Y-3.3205
X8.0631Y-3.6276
X10.3072Y-0.8992
X10.3072Y-1.2063
X1.3308Y-2.4544
X1.3308Y-2.7615
X3.5847Y-1.6473
X3.5847Y-1.9544
X9.5592Y-1.6473
X9.5592Y-1.9544
X3.5749Y-3.163
X3.5749Y-3.4701
X2.08Y-1.743
X2.08Y-2.05
X10.3072Y-3.2024
X10.3072Y-3.5095
X10.306Y-1.7063
X10.306Y-2.0134
X11.0552Y-0.8992
X11.0552Y-1.2063
X7.3151Y-2.4544
X7.3151Y-2.7615
X5.819Y-1.6473
X5.819Y-1.9544
X6.5659Y-0.8992
X6.5659Y-1.2063
X7.3151Y-0.8992
X7.3151Y-1.2063
X2.8269Y-1.6473
X2.8269Y-1.9544
T4
X1.5954Y-1.0918
X1.8454Y-0.9918
X0.8473Y-1.0918
X1.0973Y-0.9918
T5
X10.3477Y-3.0619
X4.3635Y-3.239
X7.3556Y-1.5658
X10.3477Y-1.5658
X7.3556Y-3.239
X1.3714Y-3.0619
X2.1194Y-1.5658
X4.3635Y-1.5658
T6
X9.0257Y-1.9398
X9.4257Y-1.9398
X1.5454Y-3.4359
X1.9454Y-3.4359
X1.5454Y-1.1918
X1.9454Y-1.1918
X5.2855Y-3.6229
X5.6855Y-3.6229
X5.2855Y-2.6878
X5.6855Y-2.6878
X3.7895Y-3.6229
X4.1895Y-3.6229
X7.5281Y-1.1949
X7.9281Y-1.1949
X7.5296Y-3.6229
X7.9296Y-3.6229
X9.0257Y-3.4359
X9.4257Y-3.4359
X4.5375Y-1.9398
X4.9375Y-1.9398
X9.7737Y-1.1918
X10.1737Y-1.1918
X9.7737Y-3.4359
X10.1737Y-3.4359
X10.5218Y-1.1918
X10.9218Y-1.1918
X3.7895Y-1.1918
X4.1895Y-1.1918
X4.5375Y-3.6229
X4.9375Y-3.6229
X3.0414Y-3.4359
X3.4414Y-3.4359
X3.0414Y-2.6878
X3.4414Y-2.6878
X8.2777Y-1.1918
X8.6777Y-1.1918
X2.2934Y-3.4359
X2.6934Y-3.4359
X9.0257Y-1.1918
X9.4257Y-1.1918
X10.5218Y-1.9398
X10.9218Y-1.9398
X0.7973Y-1.1918
X1.1973Y-1.1918
X7.5296Y-2.6878
X7.9296Y-2.6878
X9.0257Y-2.6878
X9.4257Y-2.6878
X3.7895Y-2.6878
X4.1895Y-2.6878
X9.7737Y-2.6878
X10.1737Y-2.6878
X6.7816Y-3.6229
X7.1816Y-3.6229
X4.5375Y-2.6878
X4.9375Y-2.6878
X5.2855Y-1.9398
X5.6855Y-1.9398
X6.0336Y-1.1918
X6.4336Y-1.1918
X1.5454Y-2.6878
X1.9454Y-2.6878
X7.5296Y-1.9398
X7.9296Y-1.9398
X3.0414Y-1.9398
X3.4414Y-1.9398
X1.5454Y-1.9398
X1.9454Y-1.9398
X5.2855Y-1.1918
X5.6855Y-1.1918
X3.0414Y-1.1918
X3.4414Y-1.1918
X6.7816Y-1.1918
X7.1816Y-1.1918
X4.5375Y-1.1918
X4.9375Y-1.1918
X9.7737Y-1.9398
X10.1737Y-1.9398
X0.7973Y-3.4359
X1.1973Y-3.4359
X2.2934Y-2.6878
X2.6934Y-2.6878
X6.0336Y-2.6878
X6.4336Y-2.6878
X6.7816Y-2.6878
X7.1816Y-2.6878
X8.2777Y-2.6878
X8.6777Y-2.6878
X10.5218Y-3.4359
X10.9218Y-3.4359
X10.5218Y-2.6878
X10.9218Y-2.6878
X6.0336Y-3.6229
X6.4336Y-3.6229
X0.7973Y-2.6878
X1.1973Y-2.6878
X8.2777Y-3.4359
X8.6777Y-3.4359
X3.7895Y-1.9398
X4.1895Y-1.9398
X2.2934Y-1.1918
X2.6934Y-1.1918
X6.0367Y-1.9398
X6.4367Y-1.9398
X6.7816Y-1.9398
X7.1816Y-1.9398
X2.2934Y-1.9398
X2.6934Y-1.9398
X0.7973Y-1.9398
X1.1973Y-1.9398
X8.2777Y-1.9398
X8.6777Y-1.9398
T7
X10.5718Y-1.0918
X10.8218Y-0.9918
X3.8395Y-1.0918
X4.0895Y-0.9918
X4.5875Y-3.5229
X4.8375Y-3.4229
X3.0914Y-3.3359
X3.3414Y-3.2359
X3.0914Y-2.5878
X3.3414Y-2.4878
X8.3277Y-1.0918
X8.5777Y-0.9918
X2.3434Y-3.3359
X2.5934Y-3.2359
X9.0757Y-1.0918
X9.3257Y-0.9918
X10.5718Y-1.8398
X10.8218Y-1.7398
X7.5796Y-2.5878
X7.8296Y-2.4878
X9.0757Y-2.5878
X9.3257Y-2.4878
X3.8395Y-2.5878
X4.0895Y-2.4878
X9.8237Y-2.5878
X10.0737Y-2.4878
X6.8316Y-3.5229
X7.0816Y-3.4229
X4.5875Y-2.5878
X4.8375Y-2.4878
X5.3355Y-1.8398
X5.5855Y-1.7398
X6.0836Y-1.0918
X6.3336Y-0.9918
X1.5954Y-2.5878
X1.8454Y-2.4878
X7.5796Y-1.8398
X7.8296Y-1.7398
X3.0914Y-1.8398
X3.3414Y-1.7398
X1.5954Y-1.8398
X1.8454Y-1.7398
X5.3355Y-1.0918
X5.5855Y-0.9918
X3.0914Y-1.0918
X3.3414Y-0.9918
X6.8316Y-1.0918
X7.0816Y-0.9918
X4.5875Y-1.0918
X4.8375Y-0.9918
X9.8237Y-1.8398
X10.0737Y-1.7398
X0.8473Y-3.3359
X1.0973Y-3.2359
X2.3434Y-2.5878
X2.5934Y-2.4878
X6.0836Y-2.5878
X6.3336Y-2.4878
X6.8316Y-2.5878
X7.0816Y-2.4878
X8.3277Y-2.5878
X8.5777Y-2.4878
X10.5718Y-3.3359
X10.8218Y-3.2359
X10.5718Y-2.5878
X10.8218Y-2.4878
X6.0836Y-3.5229
X6.3336Y-3.4229
X0.8473Y-2.5878
X1.0973Y-2.4878
X8.3277Y-3.3359
X8.5777Y-3.2359
X3.8395Y-1.8398
X4.0895Y-1.7398
X2.3434Y-1.0918
X2.5934Y-0.9918
X6.0867Y-1.8398
X6.3367Y-1.7398
X6.8316Y-1.8398
X7.0816Y-1.7398
X2.3434Y-1.8398
X2.5934Y-1.7398
X0.8473Y-1.8398
X1.0973Y-1.7398
X8.3277Y-1.8398
X8.5777Y-1.7398
X9.0757Y-1.8398
X9.3257Y-1.7398
X1.5954Y-3.3359
X1.8454Y-3.2359
X5.3355Y-3.5229
X5.5855Y-3.4229
X5.3355Y-2.5878
X5.5855Y-2.4878
X3.8395Y-3.5229
X4.0895Y-3.4229
X7.5781Y-1.0949
X7.8281Y-0.9949
X7.5796Y-3.5229
X7.8296Y-3.4229
X9.0757Y-3.3359
X9.3257Y-3.2359
X4.5875Y-1.8398
X4.8375Y-1.7398
X9.8237Y-1.0918
X10.0737Y-0.9918
X9.8237Y-3.3359
X10.0737Y-3.2359
T8
X1.7454Y-1.1918
X0.9973Y-1.1918
T9
X9.2257Y-1.9398
X1.7454Y-3.4359
X5.4855Y-3.6229
X5.4855Y-2.6878
X3.9895Y-3.6229
X7.7281Y-1.1949
X7.7296Y-3.6229
X9.2257Y-3.4359
X4.7375Y-1.9398
X9.9737Y-1.1918
X9.9737Y-3.4359
X10.7218Y-1.1918
X3.9895Y-1.1918
X4.7375Y-3.6229
X3.2414Y-3.4359
X3.2414Y-2.6878
X8.4777Y-1.1918
X2.4934Y-3.4359
X9.2257Y-1.1918
X10.7218Y-1.9398
X7.7296Y-2.6878
X9.2257Y-2.6878
X3.9895Y-2.6878
X9.9737Y-2.6878
X6.9816Y-3.6229
X4.7375Y-2.6878
X5.4855Y-1.9398
X6.2336Y-1.1918
X1.7454Y-2.6878
X7.7296Y-1.9398
X3.2414Y-1.9398
X1.7454Y-1.9398
X5.4855Y-1.1918
X3.2414Y-1.1918
X6.9816Y-1.1918
X4.7375Y-1.1918
X9.9737Y-1.9398
X0.9973Y-3.4359
X2.4934Y-2.6878
X6.2336Y-2.6878
X6.9816Y-2.6878
X8.4777Y-2.6878
X10.7218Y-3.4359
X10.7218Y-2.6878
X6.2336Y-3.6229
X0.9973Y-2.6878
X8.4777Y-3.4359
X3.9895Y-1.9398
X2.4934Y-1.1918
X6.2367Y-1.9398
X6.9816Y-1.9398
X2.4934Y-1.9398
X0.9973Y-1.9398
X8.4777Y-1.9398
T0
M30
