G04 #@! TF.GenerationSoftware,KiCad,Pcbnew,(5.0.2-4-g3082e92af)*
G04 #@! TF.CreationDate,2019-03-02T21:10:19+01:00*
G04 #@! TF.ProjectId,ortho56,6f727468-6f35-4362-9e6b-696361645f70,rev?*
G04 #@! TF.SameCoordinates,Original*
G04 #@! TF.FileFunction,Soldermask,Bot*
G04 #@! TF.FilePolarity,Negative*
%FSLAX46Y46*%
G04 Gerber Fmt 4.6, Leading zero omitted, Abs format (unit mm)*
G04 Created by KiCad (PCBNEW (5.0.2-4-g3082e92af)) date 2019 March 02, Saturday 21:10:19*
%MOMM*%
%LPD*%
G01*
G04 APERTURE LIST*
%ADD10C,0.100000*%
G04 APERTURE END LIST*
D10*
G36*
X187168234Y-81164482D02*
X187377702Y-81251246D01*
X187566223Y-81377212D01*
X187726538Y-81537527D01*
X187852504Y-81726048D01*
X187939268Y-81935516D01*
X187983500Y-82157885D01*
X187983500Y-82384615D01*
X187939268Y-82606984D01*
X187852504Y-82816452D01*
X187726538Y-83004973D01*
X187566223Y-83165288D01*
X187377702Y-83291254D01*
X187168234Y-83378018D01*
X186945865Y-83422250D01*
X186719135Y-83422250D01*
X186496766Y-83378018D01*
X186287298Y-83291254D01*
X186098777Y-83165288D01*
X185938462Y-83004973D01*
X185812496Y-82816452D01*
X185725732Y-82606984D01*
X185681500Y-82384615D01*
X185681500Y-82157885D01*
X185725732Y-81935516D01*
X185812496Y-81726048D01*
X185938462Y-81537527D01*
X186098777Y-81377212D01*
X186287298Y-81251246D01*
X186496766Y-81164482D01*
X186719135Y-81120250D01*
X186945865Y-81120250D01*
X187168234Y-81164482D01*
X187168234Y-81164482D01*
G37*
G36*
X111168234Y-81164482D02*
X111377702Y-81251246D01*
X111566223Y-81377212D01*
X111726538Y-81537527D01*
X111852504Y-81726048D01*
X111939268Y-81935516D01*
X111983500Y-82157885D01*
X111983500Y-82384615D01*
X111939268Y-82606984D01*
X111852504Y-82816452D01*
X111726538Y-83004973D01*
X111566223Y-83165288D01*
X111377702Y-83291254D01*
X111168234Y-83378018D01*
X110945865Y-83422250D01*
X110719135Y-83422250D01*
X110496766Y-83378018D01*
X110287298Y-83291254D01*
X110098777Y-83165288D01*
X109938462Y-83004973D01*
X109812496Y-82816452D01*
X109725732Y-82606984D01*
X109681500Y-82384615D01*
X109681500Y-82157885D01*
X109725732Y-81935516D01*
X109812496Y-81726048D01*
X109938462Y-81537527D01*
X110098777Y-81377212D01*
X110287298Y-81251246D01*
X110496766Y-81164482D01*
X110719135Y-81120250D01*
X110945865Y-81120250D01*
X111168234Y-81164482D01*
X111168234Y-81164482D01*
G37*
G36*
X263168234Y-76664482D02*
X263377702Y-76751246D01*
X263566223Y-76877212D01*
X263726538Y-77037527D01*
X263852504Y-77226048D01*
X263939268Y-77435516D01*
X263983500Y-77657885D01*
X263983500Y-77884615D01*
X263939268Y-78106984D01*
X263852504Y-78316452D01*
X263726538Y-78504973D01*
X263566223Y-78665288D01*
X263377702Y-78791254D01*
X263168234Y-78878018D01*
X262945865Y-78922250D01*
X262719135Y-78922250D01*
X262496766Y-78878018D01*
X262287298Y-78791254D01*
X262098777Y-78665288D01*
X261938462Y-78504973D01*
X261812496Y-78316452D01*
X261725732Y-78106984D01*
X261681500Y-77884615D01*
X261681500Y-77657885D01*
X261725732Y-77435516D01*
X261812496Y-77226048D01*
X261938462Y-77037527D01*
X262098777Y-76877212D01*
X262287298Y-76751246D01*
X262496766Y-76664482D01*
X262719135Y-76620250D01*
X262945865Y-76620250D01*
X263168234Y-76664482D01*
X263168234Y-76664482D01*
G37*
G36*
X35168234Y-76664482D02*
X35377702Y-76751246D01*
X35566223Y-76877212D01*
X35726538Y-77037527D01*
X35852504Y-77226048D01*
X35939268Y-77435516D01*
X35983500Y-77657885D01*
X35983500Y-77884615D01*
X35939268Y-78106984D01*
X35852504Y-78316452D01*
X35726538Y-78504973D01*
X35566223Y-78665288D01*
X35377702Y-78791254D01*
X35168234Y-78878018D01*
X34945865Y-78922250D01*
X34719135Y-78922250D01*
X34496766Y-78878018D01*
X34287298Y-78791254D01*
X34098777Y-78665288D01*
X33938462Y-78504973D01*
X33812496Y-78316452D01*
X33725732Y-78106984D01*
X33681500Y-77884615D01*
X33681500Y-77657885D01*
X33725732Y-77435516D01*
X33812496Y-77226048D01*
X33938462Y-77037527D01*
X34098777Y-76877212D01*
X34287298Y-76751246D01*
X34496766Y-76664482D01*
X34719135Y-76620250D01*
X34945865Y-76620250D01*
X35168234Y-76664482D01*
X35168234Y-76664482D01*
G37*
G36*
X263168234Y-38664482D02*
X263377702Y-38751246D01*
X263566223Y-38877212D01*
X263726538Y-39037527D01*
X263852504Y-39226048D01*
X263939268Y-39435516D01*
X263983500Y-39657885D01*
X263983500Y-39884615D01*
X263939268Y-40106984D01*
X263852504Y-40316452D01*
X263726538Y-40504973D01*
X263566223Y-40665288D01*
X263377702Y-40791254D01*
X263168234Y-40878018D01*
X262945865Y-40922250D01*
X262719135Y-40922250D01*
X262496766Y-40878018D01*
X262287298Y-40791254D01*
X262098777Y-40665288D01*
X261938462Y-40504973D01*
X261812496Y-40316452D01*
X261725732Y-40106984D01*
X261681500Y-39884615D01*
X261681500Y-39657885D01*
X261725732Y-39435516D01*
X261812496Y-39226048D01*
X261938462Y-39037527D01*
X262098777Y-38877212D01*
X262287298Y-38751246D01*
X262496766Y-38664482D01*
X262719135Y-38620250D01*
X262945865Y-38620250D01*
X263168234Y-38664482D01*
X263168234Y-38664482D01*
G37*
G36*
X187168234Y-38664482D02*
X187377702Y-38751246D01*
X187566223Y-38877212D01*
X187726538Y-39037527D01*
X187852504Y-39226048D01*
X187939268Y-39435516D01*
X187983500Y-39657885D01*
X187983500Y-39884615D01*
X187939268Y-40106984D01*
X187852504Y-40316452D01*
X187726538Y-40504973D01*
X187566223Y-40665288D01*
X187377702Y-40791254D01*
X187168234Y-40878018D01*
X186945865Y-40922250D01*
X186719135Y-40922250D01*
X186496766Y-40878018D01*
X186287298Y-40791254D01*
X186098777Y-40665288D01*
X185938462Y-40504973D01*
X185812496Y-40316452D01*
X185725732Y-40106984D01*
X185681500Y-39884615D01*
X185681500Y-39657885D01*
X185725732Y-39435516D01*
X185812496Y-39226048D01*
X185938462Y-39037527D01*
X186098777Y-38877212D01*
X186287298Y-38751246D01*
X186496766Y-38664482D01*
X186719135Y-38620250D01*
X186945865Y-38620250D01*
X187168234Y-38664482D01*
X187168234Y-38664482D01*
G37*
G36*
X111168234Y-38664482D02*
X111377702Y-38751246D01*
X111566223Y-38877212D01*
X111726538Y-39037527D01*
X111852504Y-39226048D01*
X111939268Y-39435516D01*
X111983500Y-39657885D01*
X111983500Y-39884615D01*
X111939268Y-40106984D01*
X111852504Y-40316452D01*
X111726538Y-40504973D01*
X111566223Y-40665288D01*
X111377702Y-40791254D01*
X111168234Y-40878018D01*
X110945865Y-40922250D01*
X110719135Y-40922250D01*
X110496766Y-40878018D01*
X110287298Y-40791254D01*
X110098777Y-40665288D01*
X109938462Y-40504973D01*
X109812496Y-40316452D01*
X109725732Y-40106984D01*
X109681500Y-39884615D01*
X109681500Y-39657885D01*
X109725732Y-39435516D01*
X109812496Y-39226048D01*
X109938462Y-39037527D01*
X110098777Y-38877212D01*
X110287298Y-38751246D01*
X110496766Y-38664482D01*
X110719135Y-38620250D01*
X110945865Y-38620250D01*
X111168234Y-38664482D01*
X111168234Y-38664482D01*
G37*
G36*
X54168234Y-38664482D02*
X54377702Y-38751246D01*
X54566223Y-38877212D01*
X54726538Y-39037527D01*
X54852504Y-39226048D01*
X54939268Y-39435516D01*
X54983500Y-39657885D01*
X54983500Y-39884615D01*
X54939268Y-40106984D01*
X54852504Y-40316452D01*
X54726538Y-40504973D01*
X54566223Y-40665288D01*
X54377702Y-40791254D01*
X54168234Y-40878018D01*
X53945865Y-40922250D01*
X53719135Y-40922250D01*
X53496766Y-40878018D01*
X53287298Y-40791254D01*
X53098777Y-40665288D01*
X52938462Y-40504973D01*
X52812496Y-40316452D01*
X52725732Y-40106984D01*
X52681500Y-39884615D01*
X52681500Y-39657885D01*
X52725732Y-39435516D01*
X52812496Y-39226048D01*
X52938462Y-39037527D01*
X53098777Y-38877212D01*
X53287298Y-38751246D01*
X53496766Y-38664482D01*
X53719135Y-38620250D01*
X53945865Y-38620250D01*
X54168234Y-38664482D01*
X54168234Y-38664482D01*
G37*
M02*
